<?xml version="1.0" encoding="UTF-8" standalone="no"?><svg xmlns="http://www.w3.org/2000/svg" xmlns:xlink="http://www.w3.org/1999/xlink" clip-rule="evenodd" stroke-miterlimit="4.00" viewBox="0 0 1024 768"><desc>SVG generated by Keynote</desc><defs></defs><g transform="matrix(1.00, 0.00, -0.00, -1.00, 0.0, 768.0)"><path d="M 0.0 768.0 L 1024.0 768.0 L 1024.0 0.0 L 0.0 0.0 Z M 0.0 768.0 " fill="#FEFFFF"></path><text xml:space="preserve" font-family="ProximaNova-Semibold" font-weight="bold" font-size="60.0" fill="#276AA5" transform="matrix(1.00, 0.00, -0.00, -1.00, 56.0, 662.0)">O</text><text xml:space="preserve" font-family="ProximaNova-Semibold" font-weight="bold" font-size="60.0" fill="#276AA5" transform="matrix(1.00, 0.00, -0.00, -1.00, 100.1, 662.0)">r</text><text xml:space="preserve" font-family="ProximaNova-Semibold" font-weight="bold" font-size="60.0" fill="#276AA5" transform="matrix(1.00, 0.00, -0.00, -1.00, 119.1, 662.0)">d</text><text xml:space="preserve" font-family="ProximaNova-Semibold" font-weight="bold" font-size="60.0" fill="#276AA5" transform="matrix(1.00, 0.00, -0.00, -1.00, 152.2, 662.0)">e</text><text xml:space="preserve" font-family="ProximaNova-Semibold" font-weight="bold" font-size="60.0" fill="#276AA5" transform="matrix(1.00, 0.00, -0.00, -1.00, 183.8, 662.0)">r</text><text xml:space="preserve" font-family="ProximaNova-Semibold" font-weight="bold" font-size="60.0" fill="#276AA5" transform="matrix(1.00, 0.00, -0.00, -1.00, 202.8, 662.0)">i</text><text xml:space="preserve" font-family="ProximaNova-Semibold" font-weight="bold" font-size="60.0" fill="#276AA5" transform="matrix(1.00, 0.00, -0.00, -1.00, 215.5, 662.0)">n</text><text xml:space="preserve" font-family="ProximaNova-Semibold" font-weight="bold" font-size="60.0" fill="#276AA5" transform="matrix(1.00, 0.00, -0.00, -1.00, 247.8, 662.0)">g</text><text xml:space="preserve" font-family="ProximaNova-Semibold" font-weight="bold" font-size="60.0" fill="#276AA5" transform="matrix(1.00, 0.00, -0.00, -1.00, 280.8, 662.0)"> </text><text xml:space="preserve" font-family="ProximaNova-Semibold" font-weight="bold" font-size="60.0" fill="#276AA5" transform="matrix(1.00, 0.00, -0.00, -1.00, 294.5, 662.0)">a</text><text xml:space="preserve" font-family="ProximaNova-Semibold" font-weight="bold" font-size="60.0" fill="#276AA5" transform="matrix(1.00, 0.00, -0.00, -1.00, 324.9, 662.0)">n</text><text xml:space="preserve" font-family="ProximaNova-Semibold" font-weight="bold" font-size="60.0" fill="#276AA5" transform="matrix(1.00, 0.00, -0.00, -1.00, 357.2, 662.0)">d</text><text xml:space="preserve" font-family="ProximaNova-Semibold" font-weight="bold" font-size="60.0" fill="#276AA5" transform="matrix(1.00, 0.00, -0.00, -1.00, 390.3, 662.0)"> </text><text xml:space="preserve" font-family="ProximaNova-Semibold" font-weight="bold" font-size="60.0" fill="#276AA5" transform="matrix(1.00, 0.00, -0.00, -1.00, 403.9, 662.0)">S</text><text xml:space="preserve" font-family="ProximaNova-Semibold" font-weight="bold" font-size="60.0" fill="#276AA5" transform="matrix(1.00, 0.00, -0.00, -1.00, 437.8, 662.0)">k</text><text xml:space="preserve" font-family="ProximaNova-Semibold" font-weight="bold" font-size="60.0" fill="#276AA5" transform="matrix(1.00, 0.00, -0.00, -1.00, 467.6, 662.0)">i</text><text xml:space="preserve" font-family="ProximaNova-Semibold" font-weight="bold" font-size="60.0" fill="#276AA5" transform="matrix(1.00, 0.00, -0.00, -1.00, 480.3, 662.0)">p</text><text xml:space="preserve" font-family="ProximaNova-Semibold" font-weight="bold" font-size="60.0" fill="#276AA5" transform="matrix(1.00, 0.00, -0.00, -1.00, 513.2, 662.0)">p</text><text xml:space="preserve" font-family="ProximaNova-Semibold" font-weight="bold" font-size="60.0" fill="#276AA5" transform="matrix(1.00, 0.00, -0.00, -1.00, 546.1, 662.0)">i</text><text xml:space="preserve" font-family="ProximaNova-Semibold" font-weight="bold" font-size="60.0" fill="#276AA5" transform="matrix(1.00, 0.00, -0.00, -1.00, 558.8, 662.0)">n</text><text xml:space="preserve" font-family="ProximaNova-Semibold" font-weight="bold" font-size="60.0" fill="#276AA5" transform="matrix(1.00, 0.00, -0.00, -1.00, 591.1, 662.0)">g</text><text xml:space="preserve" font-family="ProximaNova-Regular" font-size="30.0" fill="#000000" transform="matrix(1.00, 0.00, -0.00, -1.00, 52.0, 566.0)">O</text><text xml:space="preserve" font-family="ProximaNova-Regular" font-size="30.0" fill="#000000" transform="matrix(1.00, 0.00, -0.00, -1.00, 75.0, 566.0)">r</text><text xml:space="preserve" font-family="ProximaNova-Regular" font-size="30.0" fill="#000000" transform="matrix(1.00, 0.00, -0.00, -1.00, 84.8, 566.0)">d</text><text xml:space="preserve" font-family="ProximaNova-Regular" font-size="30.0" fill="#000000" transform="matrix(1.00, 0.00, -0.00, -1.00, 102.1, 566.0)">e</text><text xml:space="preserve" font-family="ProximaNova-Regular" font-size="30.0" fill="#000000" transform="matrix(1.00, 0.00, -0.00, -1.00, 119.0, 566.0)">r</text><text xml:space="preserve" font-family="ProximaNova-Regular" font-size="30.0" fill="#000000" transform="matrix(1.00, 0.00, -0.00, -1.00, 128.9, 566.0)"> </text><text xml:space="preserve" font-family="ProximaNova-Regular" font-size="30.0" fill="#000000" transform="matrix(1.00, 0.00, -0.00, -1.00, 136.7, 566.0)">i</text><text xml:space="preserve" font-family="ProximaNova-Regular" font-size="30.0" fill="#000000" transform="matrix(1.00, 0.00, -0.00, -1.00, 143.4, 566.0)">s</text><text xml:space="preserve" font-family="ProximaNova-Regular" font-size="30.0" fill="#000000" transform="matrix(1.00, 0.00, -0.00, -1.00, 157.4, 566.0)">n</text><text xml:space="preserve" font-family="ProximaNova-Regular" font-size="30.0" fill="#000000" transform="matrix(1.00, 0.00, -0.00, -1.00, 173.7, 566.0)">’</text><text xml:space="preserve" font-family="ProximaNova-Regular" font-size="30.0" fill="#000000" transform="matrix(1.00, 0.00, -0.00, -1.00, 180.6, 566.0)">t</text><text xml:space="preserve" font-family="ProximaNova-Regular" font-size="30.0" fill="#000000" transform="matrix(1.00, 0.00, -0.00, -1.00, 189.5, 566.0)"> </text><text xml:space="preserve" font-family="ProximaNova-Regular" font-size="30.0" fill="#000000" transform="matrix(1.00, 0.00, -0.00, -1.00, 197.2, 566.0)">g</text><text xml:space="preserve" font-family="ProximaNova-Regular" font-size="30.0" fill="#000000" transform="matrix(1.00, 0.00, -0.00, -1.00, 214.5, 566.0)">u</text><text xml:space="preserve" font-family="ProximaNova-Regular" font-size="30.0" fill="#000000" transform="matrix(1.00, 0.00, -0.00, -1.00, 231.0, 566.0)">a</text><text xml:space="preserve" font-family="ProximaNova-Regular" font-size="30.0" fill="#000000" transform="matrix(1.00, 0.00, -0.00, -1.00, 246.9, 566.0)">r</text><text xml:space="preserve" font-family="ProximaNova-Regular" font-size="30.0" fill="#000000" transform="matrix(1.00, 0.00, -0.00, -1.00, 256.8, 566.0)">a</text><text xml:space="preserve" font-family="ProximaNova-Regular" font-size="30.0" fill="#000000" transform="matrix(1.00, 0.00, -0.00, -1.00, 272.6, 566.0)">n</text><text xml:space="preserve" font-family="ProximaNova-Regular" font-size="30.0" fill="#000000" transform="matrix(1.00, 0.00, -0.00, -1.00, 289.2, 566.0)">t</text><text xml:space="preserve" font-family="ProximaNova-Regular" font-size="30.0" fill="#000000" transform="matrix(1.00, 0.00, -0.00, -1.00, 298.0, 566.0)">e</text><text xml:space="preserve" font-family="ProximaNova-Regular" font-size="30.0" fill="#000000" transform="matrix(1.00, 0.00, -0.00, -1.00, 314.9, 566.0)">e</text><text xml:space="preserve" font-family="ProximaNova-Regular" font-size="30.0" fill="#000000" transform="matrix(1.00, 0.00, -0.00, -1.00, 331.8, 566.0)">d</text><text xml:space="preserve" font-family="ProximaNova-Regular" font-size="30.0" fill="#000000" transform="matrix(1.00, 0.00, -0.00, -1.00, 349.0, 566.0)"> </text><text xml:space="preserve" font-family="ProximaNova-Regular" font-size="30.0" fill="#000000" transform="matrix(1.00, 0.00, -0.00, -1.00, 356.8, 566.0)">b</text><text xml:space="preserve" font-family="ProximaNova-Regular" font-size="30.0" fill="#000000" transform="matrix(1.00, 0.00, -0.00, -1.00, 374.0, 566.0)">y</text><text xml:space="preserve" font-family="ProximaNova-Regular" font-size="30.0" fill="#000000" transform="matrix(1.00, 0.00, -0.00, -1.00, 388.7, 566.0)"> </text><text xml:space="preserve" font-family="ProximaNova-Regular" font-size="30.0" fill="#000000" transform="matrix(1.00, 0.00, -0.00, -1.00, 396.5, 566.0)">d</text><text xml:space="preserve" font-family="ProximaNova-Regular" font-size="30.0" fill="#000000" transform="matrix(1.00, 0.00, -0.00, -1.00, 413.7, 566.0)">e</text><text xml:space="preserve" font-family="ProximaNova-Regular" font-size="30.0" fill="#000000" transform="matrix(1.00, 0.00, -0.00, -1.00, 430.6, 566.0)">f</text><text xml:space="preserve" font-family="ProximaNova-Regular" font-size="30.0" fill="#000000" transform="matrix(1.00, 0.00, -0.00, -1.00, 439.1, 566.0)">a</text><text xml:space="preserve" font-family="ProximaNova-Regular" font-size="30.0" fill="#000000" transform="matrix(1.00, 0.00, -0.00, -1.00, 455.0, 566.0)">u</text><text xml:space="preserve" font-family="ProximaNova-Regular" font-size="30.0" fill="#000000" transform="matrix(1.00, 0.00, -0.00, -1.00, 471.5, 566.0)">l</text><text xml:space="preserve" font-family="ProximaNova-Regular" font-size="30.0" fill="#000000" transform="matrix(1.00, 0.00, -0.00, -1.00, 478.3, 566.0)">t</text><text xml:space="preserve" font-family="ProximaNova-Regular" font-size="30.0" fill="#000000" transform="matrix(1.00, 0.00, -0.00, -1.00, 487.1, 566.0)">,</text><text xml:space="preserve" font-family="ProximaNova-Regular" font-size="30.0" fill="#000000" transform="matrix(1.00, 0.00, -0.00, -1.00, 494.0, 566.0)"> </text><text xml:space="preserve" font-family="ProximaNova-Regular" font-size="30.0" fill="#000000" transform="matrix(1.00, 0.00, -0.00, -1.00, 501.8, 566.0)">b</text><text xml:space="preserve" font-family="ProximaNova-Regular" font-size="30.0" fill="#000000" transform="matrix(1.00, 0.00, -0.00, -1.00, 519.0, 566.0)">u</text><text xml:space="preserve" font-family="ProximaNova-Regular" font-size="30.0" fill="#000000" transform="matrix(1.00, 0.00, -0.00, -1.00, 535.5, 566.0)">t</text><text xml:space="preserve" font-family="ProximaNova-Regular" font-size="30.0" fill="#000000" transform="matrix(1.00, 0.00, -0.00, -1.00, 544.4, 566.0)"> </text><text xml:space="preserve" font-family="ProximaNova-Regular" font-size="30.0" fill="#000000" transform="matrix(1.00, 0.00, -0.00, -1.00, 552.1, 566.0)">y</text><text xml:space="preserve" font-family="ProximaNova-Regular" font-size="30.0" fill="#000000" transform="matrix(1.00, 0.00, -0.00, -1.00, 566.8, 566.0)">o</text><text xml:space="preserve" font-family="ProximaNova-Regular" font-size="30.0" fill="#000000" transform="matrix(1.00, 0.00, -0.00, -1.00, 584.0, 566.0)">u</text><text xml:space="preserve" font-family="ProximaNova-Regular" font-size="30.0" fill="#000000" transform="matrix(1.00, 0.00, -0.00, -1.00, 600.5, 566.0)"> </text><text xml:space="preserve" font-family="ProximaNova-Regular" font-size="30.0" fill="#000000" transform="matrix(1.00, 0.00, -0.00, -1.00, 608.3, 566.0)">c</text><text xml:space="preserve" font-family="ProximaNova-Regular" font-size="30.0" fill="#000000" transform="matrix(1.00, 0.00, -0.00, -1.00, 623.2, 566.0)">a</text><text xml:space="preserve" font-family="ProximaNova-Regular" font-size="30.0" fill="#000000" transform="matrix(1.00, 0.00, -0.00, -1.00, 639.0, 566.0)">n</text><text xml:space="preserve" font-family="ProximaNova-Regular" font-size="30.0" fill="#000000" transform="matrix(1.00, 0.00, -0.00, -1.00, 655.6, 566.0)"> </text><text xml:space="preserve" font-family="ProximaNova-Regular" font-size="30.0" fill="#000000" transform="matrix(1.00, 0.00, -0.00, -1.00, 663.3, 566.0)">e</text><text xml:space="preserve" font-family="ProximaNova-Regular" font-size="30.0" fill="#000000" transform="matrix(1.00, 0.00, -0.00, -1.00, 680.2, 566.0)">n</text><text xml:space="preserve" font-family="ProximaNova-Regular" font-size="30.0" fill="#000000" transform="matrix(1.00, 0.00, -0.00, -1.00, 696.8, 566.0)">f</text><text xml:space="preserve" font-family="ProximaNova-Regular" font-size="30.0" fill="#000000" transform="matrix(1.00, 0.00, -0.00, -1.00, 705.3, 566.0)">o</text><text xml:space="preserve" font-family="ProximaNova-Regular" font-size="30.0" fill="#000000" transform="matrix(1.00, 0.00, -0.00, -1.00, 722.5, 566.0)">r</text><text xml:space="preserve" font-family="ProximaNova-Regular" font-size="30.0" fill="#000000" transform="matrix(1.00, 0.00, -0.00, -1.00, 732.4, 566.0)">c</text><text xml:space="preserve" font-family="ProximaNova-Regular" font-size="30.0" fill="#000000" transform="matrix(1.00, 0.00, -0.00, -1.00, 747.2, 566.0)">e</text><text xml:space="preserve" font-family="ProximaNova-Regular" font-size="30.0" fill="#000000" transform="matrix(1.00, 0.00, -0.00, -1.00, 764.1, 566.0)"> </text><text xml:space="preserve" font-family="ProximaNova-Regular" font-size="30.0" fill="#000000" transform="matrix(1.00, 0.00, -0.00, -1.00, 771.9, 566.0)">i</text><text xml:space="preserve" font-family="ProximaNova-Regular" font-size="30.0" fill="#000000" transform="matrix(1.00, 0.00, -0.00, -1.00, 778.7, 566.0)">t</text><text xml:space="preserve" font-family="ProximaNova-Regular" font-size="30.0" fill="#000000" transform="matrix(1.00, 0.00, -0.00, -1.00, 787.5, 566.0)">:</text><text xml:space="preserve" font-family="ProximaNova-Regular" font-size="30.0" fill="#000000" transform="matrix(1.00, 0.00, -0.00, -1.00, 794.2, 566.0)"> </text><text xml:space="preserve" font-family="Courier-Bold" font-weight="bold" font-size="33.0" fill="#164E86" transform="matrix(1.00, 0.00, -0.00, -1.00, 52.0, 508.0)">O</text><text xml:space="preserve" font-family="Courier-Bold" font-weight="bold" font-size="33.0" fill="#164E86" transform="matrix(1.00, 0.00, -0.00, -1.00, 71.8, 508.0)">R</text><text xml:space="preserve" font-family="Courier-Bold" font-weight="bold" font-size="33.0" fill="#164E86" transform="matrix(1.00, 0.00, -0.00, -1.00, 91.6, 508.0)">D</text><text xml:space="preserve" font-family="Courier-Bold" font-weight="bold" font-size="33.0" fill="#164E86" transform="matrix(1.00, 0.00, -0.00, -1.00, 111.4, 508.0)">E</text><text xml:space="preserve" font-family="Courier-Bold" font-weight="bold" font-size="33.0" fill="#164E86" transform="matrix(1.00, 0.00, -0.00, -1.00, 131.2, 508.0)">R</text><text xml:space="preserve" font-family="Courier-Bold" font-weight="bold" font-size="33.0" fill="#164E86" transform="matrix(1.00, 0.00, -0.00, -1.00, 151.0, 508.0)"> </text><text xml:space="preserve" font-family="Courier-Bold" font-weight="bold" font-size="33.0" fill="#164E86" transform="matrix(1.00, 0.00, -0.00, -1.00, 170.8, 508.0)">B</text><text xml:space="preserve" font-family="Courier-Bold" font-weight="bold" font-size="33.0" fill="#164E86" transform="matrix(1.00, 0.00, -0.00, -1.00, 190.6, 508.0)">Y</text><text xml:space="preserve" font-family="Courier-Bold" font-weight="bold" font-size="33.0" fill="#164E86" transform="matrix(1.00, 0.00, -0.00, -1.00, 210.5, 508.0)">,</text><text xml:space="preserve" font-family="Courier-Bold" font-weight="bold" font-size="33.0" fill="#164E86" transform="matrix(1.00, 0.00, -0.00, -1.00, 230.3, 508.0)"> </text><text xml:space="preserve" font-family="Courier-Bold" font-weight="bold" font-size="33.0" fill="#164E86" transform="matrix(1.00, 0.00, -0.00, -1.00, 250.1, 508.0)">L</text><text xml:space="preserve" font-family="Courier-Bold" font-weight="bold" font-size="33.0" fill="#164E86" transform="matrix(1.00, 0.00, -0.00, -1.00, 269.9, 508.0)">I</text><text xml:space="preserve" font-family="Courier-Bold" font-weight="bold" font-size="33.0" fill="#164E86" transform="matrix(1.00, 0.00, -0.00, -1.00, 289.7, 508.0)">M</text><text xml:space="preserve" font-family="Courier-Bold" font-weight="bold" font-size="33.0" fill="#164E86" transform="matrix(1.00, 0.00, -0.00, -1.00, 309.5, 508.0)">I</text><text xml:space="preserve" font-family="Courier-Bold" font-weight="bold" font-size="33.0" fill="#164E86" transform="matrix(1.00, 0.00, -0.00, -1.00, 329.3, 508.0)">T</text><text xml:space="preserve" font-family="Courier-Bold" font-weight="bold" font-size="33.0" fill="#164E86" transform="matrix(1.00, 0.00, -0.00, -1.00, 349.1, 508.0)">,</text><text xml:space="preserve" font-family="Courier-Bold" font-weight="bold" font-size="33.0" fill="#164E86" transform="matrix(1.00, 0.00, -0.00, -1.00, 368.9, 508.0)"> </text><text xml:space="preserve" font-family="Courier-Bold" font-weight="bold" font-size="33.0" fill="#164E86" transform="matrix(1.00, 0.00, -0.00, -1.00, 388.7, 508.0)">S</text><text xml:space="preserve" font-family="Courier-Bold" font-weight="bold" font-size="33.0" fill="#164E86" transform="matrix(1.00, 0.00, -0.00, -1.00, 408.5, 508.0)">K</text><text xml:space="preserve" font-family="Courier-Bold" font-weight="bold" font-size="33.0" fill="#164E86" transform="matrix(1.00, 0.00, -0.00, -1.00, 428.3, 508.0)">I</text><text xml:space="preserve" font-family="Courier-Bold" font-weight="bold" font-size="33.0" fill="#164E86" transform="matrix(1.00, 0.00, -0.00, -1.00, 448.1, 508.0)">P</text><text xml:space="preserve" font-family="ProximaNova-Regular" font-size="30.0" fill="#000000" transform="matrix(1.00, 0.00, -0.00, -1.00, 52.0, 390.0)">E</text><text xml:space="preserve" font-family="ProximaNova-Regular" font-size="30.0" fill="#000000" transform="matrix(1.00, 0.00, -0.00, -1.00, 69.1, 390.0)">x</text><text xml:space="preserve" font-family="ProximaNova-Regular" font-size="30.0" fill="#000000" transform="matrix(1.00, 0.00, -0.00, -1.00, 83.7, 390.0)">a</text><text xml:space="preserve" font-family="ProximaNova-Regular" font-size="30.0" fill="#000000" transform="matrix(1.00, 0.00, -0.00, -1.00, 99.5, 390.0)">m</text><text xml:space="preserve" font-family="ProximaNova-Regular" font-size="30.0" fill="#000000" transform="matrix(1.00, 0.00, -0.00, -1.00, 123.8, 390.0)">p</text><text xml:space="preserve" font-family="ProximaNova-Regular" font-size="30.0" fill="#000000" transform="matrix(1.00, 0.00, -0.00, -1.00, 140.9, 390.0)">l</text><text xml:space="preserve" font-family="ProximaNova-Regular" font-size="30.0" fill="#000000" transform="matrix(1.00, 0.00, -0.00, -1.00, 147.7, 390.0)">e</text><text xml:space="preserve" font-family="ProximaNova-Regular" font-size="30.0" fill="#000000" transform="matrix(1.00, 0.00, -0.00, -1.00, 164.6, 390.0)">:</text><text xml:space="preserve" font-family="ProximaNova-Regular" font-size="30.0" fill="#000000" transform="matrix(1.00, 0.00, -0.00, -1.00, 171.3, 390.0)"> </text><text xml:space="preserve" font-family="Courier-Bold" font-weight="bold" font-size="33.0" fill="#164E86" transform="matrix(1.00, 0.00, -0.00, -1.00, 52.0, 332.0)">M</text><text xml:space="preserve" font-family="Courier-Bold" font-weight="bold" font-size="33.0" fill="#164E86" transform="matrix(1.00, 0.00, -0.00, -1.00, 71.8, 332.0)">A</text><text xml:space="preserve" font-family="Courier-Bold" font-weight="bold" font-size="33.0" fill="#164E86" transform="matrix(1.00, 0.00, -0.00, -1.00, 91.6, 332.0)">T</text><text xml:space="preserve" font-family="Courier-Bold" font-weight="bold" font-size="33.0" fill="#164E86" transform="matrix(1.00, 0.00, -0.00, -1.00, 111.4, 332.0)">C</text><text xml:space="preserve" font-family="Courier-Bold" font-weight="bold" font-size="33.0" fill="#164E86" transform="matrix(1.00, 0.00, -0.00, -1.00, 131.2, 332.0)">H</text><text xml:space="preserve" font-family="Courier-Bold" font-weight="bold" font-size="33.0" fill="#164E86" transform="matrix(1.00, 0.00, -0.00, -1.00, 151.0, 332.0)"> </text><text xml:space="preserve" font-family="Courier-Bold" font-weight="bold" font-size="33.0" fill="#164E86" transform="matrix(1.00, 0.00, -0.00, -1.00, 170.8, 332.0)">(</text><text xml:space="preserve" font-family="Courier-Bold" font-weight="bold" font-size="33.0" fill="#164E86" transform="matrix(1.00, 0.00, -0.00, -1.00, 190.6, 332.0)">a</text><text xml:space="preserve" font-family="Courier-Bold" font-weight="bold" font-size="33.0" fill="#164E86" transform="matrix(1.00, 0.00, -0.00, -1.00, 210.5, 332.0)">)</text><text xml:space="preserve" font-family="Courier-Bold" font-weight="bold" font-size="33.0" fill="#164E86" transform="matrix(1.00, 0.00, -0.00, -1.00, 230.3, 332.0)">-</text><text xml:space="preserve" font-family="Courier-Bold" font-weight="bold" font-size="33.0" fill="#164E86" transform="matrix(1.00, 0.00, -0.00, -1.00, 250.1, 332.0)"> </text><text xml:space="preserve" font-family="Courier-Bold" font-weight="bold" font-size="33.0" fill="#164E86" transform="matrix(1.00, 0.00, -0.00, -1.00, 269.9, 332.0)">-</text><text xml:space="preserve" font-family="Courier-Bold" font-weight="bold" font-size="33.0" fill="#164E86" transform="matrix(1.00, 0.00, -0.00, -1.00, 289.7, 332.0)">(</text><text xml:space="preserve" font-family="Courier-Bold" font-weight="bold" font-size="33.0" fill="#164E86" transform="matrix(1.00, 0.00, -0.00, -1.00, 309.5, 332.0)">b</text><text xml:space="preserve" font-family="Courier-Bold" font-weight="bold" font-size="33.0" fill="#164E86" transform="matrix(1.00, 0.00, -0.00, -1.00, 329.3, 332.0)">)</text><text xml:space="preserve" font-family="Courier-Bold" font-weight="bold" font-size="33.0" fill="#164E86" transform="matrix(1.00, 0.00, -0.00, -1.00, 52.0, 272.0)">R</text><text xml:space="preserve" font-family="Courier-Bold" font-weight="bold" font-size="33.0" fill="#164E86" transform="matrix(1.00, 0.00, -0.00, -1.00, 71.8, 272.0)">E</text><text xml:space="preserve" font-family="Courier-Bold" font-weight="bold" font-size="33.0" fill="#164E86" transform="matrix(1.00, 0.00, -0.00, -1.00, 91.6, 272.0)">T</text><text xml:space="preserve" font-family="Courier-Bold" font-weight="bold" font-size="33.0" fill="#164E86" transform="matrix(1.00, 0.00, -0.00, -1.00, 111.4, 272.0)">U</text><text xml:space="preserve" font-family="Courier-Bold" font-weight="bold" font-size="33.0" fill="#164E86" transform="matrix(1.00, 0.00, -0.00, -1.00, 131.2, 272.0)">R</text><text xml:space="preserve" font-family="Courier-Bold" font-weight="bold" font-size="33.0" fill="#164E86" transform="matrix(1.00, 0.00, -0.00, -1.00, 151.0, 272.0)">N</text><text xml:space="preserve" font-family="Courier-Bold" font-weight="bold" font-size="33.0" fill="#164E86" transform="matrix(1.00, 0.00, -0.00, -1.00, 170.8, 272.0)"> </text><text xml:space="preserve" font-family="Courier-Bold" font-weight="bold" font-size="33.0" fill="#164E86" transform="matrix(1.00, 0.00, -0.00, -1.00, 190.6, 272.0)">a</text><text xml:space="preserve" font-family="Courier-Bold" font-weight="bold" font-size="33.0" fill="#164E86" transform="matrix(1.00, 0.00, -0.00, -1.00, 210.5, 272.0)">,</text><text xml:space="preserve" font-family="Courier-Bold" font-weight="bold" font-size="33.0" fill="#164E86" transform="matrix(1.00, 0.00, -0.00, -1.00, 230.3, 272.0)"> </text><text xml:space="preserve" font-family="Courier-Bold" font-weight="bold" font-size="33.0" fill="#164E86" transform="matrix(1.00, 0.00, -0.00, -1.00, 250.1, 272.0)">C</text><text xml:space="preserve" font-family="Courier-Bold" font-weight="bold" font-size="33.0" fill="#164E86" transform="matrix(1.00, 0.00, -0.00, -1.00, 269.9, 272.0)">O</text><text xml:space="preserve" font-family="Courier-Bold" font-weight="bold" font-size="33.0" fill="#164E86" transform="matrix(1.00, 0.00, -0.00, -1.00, 289.7, 272.0)">U</text><text xml:space="preserve" font-family="Courier-Bold" font-weight="bold" font-size="33.0" fill="#164E86" transform="matrix(1.00, 0.00, -0.00, -1.00, 309.5, 272.0)">N</text><text xml:space="preserve" font-family="Courier-Bold" font-weight="bold" font-size="33.0" fill="#164E86" transform="matrix(1.00, 0.00, -0.00, -1.00, 329.3, 272.0)">T</text><text xml:space="preserve" font-family="Courier-Bold" font-weight="bold" font-size="33.0" fill="#164E86" transform="matrix(1.00, 0.00, -0.00, -1.00, 349.1, 272.0)">(</text><text xml:space="preserve" font-family="Courier-Bold" font-weight="bold" font-size="33.0" fill="#164E86" transform="matrix(1.00, 0.00, -0.00, -1.00, 368.9, 272.0)">b</text><text xml:space="preserve" font-family="Courier-Bold" font-weight="bold" font-size="33.0" fill="#164E86" transform="matrix(1.00, 0.00, -0.00, -1.00, 388.7, 272.0)">)</text><text xml:space="preserve" font-family="Courier-Bold" font-weight="bold" font-size="33.0" fill="#164E86" transform="matrix(1.00, 0.00, -0.00, -1.00, 408.5, 272.0)"> </text><text xml:space="preserve" font-family="Courier-Bold" font-weight="bold" font-size="33.0" fill="#164E86" transform="matrix(1.00, 0.00, -0.00, -1.00, 428.3, 272.0)">A</text><text xml:space="preserve" font-family="Courier-Bold" font-weight="bold" font-size="33.0" fill="#164E86" transform="matrix(1.00, 0.00, -0.00, -1.00, 448.1, 272.0)">S</text><text xml:space="preserve" font-family="Courier-Bold" font-weight="bold" font-size="33.0" fill="#164E86" transform="matrix(1.00, 0.00, -0.00, -1.00, 467.9, 272.0)"> </text><text xml:space="preserve" font-family="Courier-Bold" font-weight="bold" font-size="33.0" fill="#164E86" transform="matrix(1.00, 0.00, -0.00, -1.00, 487.7, 272.0)">c</text><text xml:space="preserve" font-family="Courier-Bold" font-weight="bold" font-size="33.0" fill="#164E86" transform="matrix(1.00, 0.00, -0.00, -1.00, 507.6, 272.0)">o</text><text xml:space="preserve" font-family="Courier-Bold" font-weight="bold" font-size="33.0" fill="#164E86" transform="matrix(1.00, 0.00, -0.00, -1.00, 527.4, 272.0)">u</text><text xml:space="preserve" font-family="Courier-Bold" font-weight="bold" font-size="33.0" fill="#164E86" transform="matrix(1.00, 0.00, -0.00, -1.00, 547.2, 272.0)">n</text><text xml:space="preserve" font-family="Courier-Bold" font-weight="bold" font-size="33.0" fill="#164E86" transform="matrix(1.00, 0.00, -0.00, -1.00, 567.0, 272.0)">t</text><text xml:space="preserve" font-family="Courier-Bold" font-weight="bold" font-size="33.0" fill="#164E86" transform="matrix(1.00, 0.00, -0.00, -1.00, 52.0, 212.0)">O</text><text xml:space="preserve" font-family="Courier-Bold" font-weight="bold" font-size="33.0" fill="#164E86" transform="matrix(1.00, 0.00, -0.00, -1.00, 71.8, 212.0)">R</text><text xml:space="preserve" font-family="Courier-Bold" font-weight="bold" font-size="33.0" fill="#164E86" transform="matrix(1.00, 0.00, -0.00, -1.00, 91.6, 212.0)">D</text><text xml:space="preserve" font-family="Courier-Bold" font-weight="bold" font-size="33.0" fill="#164E86" transform="matrix(1.00, 0.00, -0.00, -1.00, 111.4, 212.0)">E</text><text xml:space="preserve" font-family="Courier-Bold" font-weight="bold" font-size="33.0" fill="#164E86" transform="matrix(1.00, 0.00, -0.00, -1.00, 131.2, 212.0)">R</text><text xml:space="preserve" font-family="Courier-Bold" font-weight="bold" font-size="33.0" fill="#164E86" transform="matrix(1.00, 0.00, -0.00, -1.00, 151.0, 212.0)"> </text><text xml:space="preserve" font-family="Courier-Bold" font-weight="bold" font-size="33.0" fill="#164E86" transform="matrix(1.00, 0.00, -0.00, -1.00, 170.8, 212.0)">B</text><text xml:space="preserve" font-family="Courier-Bold" font-weight="bold" font-size="33.0" fill="#164E86" transform="matrix(1.00, 0.00, -0.00, -1.00, 190.6, 212.0)">Y</text><text xml:space="preserve" font-family="Courier-Bold" font-weight="bold" font-size="33.0" fill="#164E86" transform="matrix(1.00, 0.00, -0.00, -1.00, 210.5, 212.0)"> </text><text xml:space="preserve" font-family="Courier-Bold" font-weight="bold" font-size="33.0" fill="#164E86" transform="matrix(1.00, 0.00, -0.00, -1.00, 230.3, 212.0)">c</text><text xml:space="preserve" font-family="Courier-Bold" font-weight="bold" font-size="33.0" fill="#164E86" transform="matrix(1.00, 0.00, -0.00, -1.00, 250.1, 212.0)">o</text><text xml:space="preserve" font-family="Courier-Bold" font-weight="bold" font-size="33.0" fill="#164E86" transform="matrix(1.00, 0.00, -0.00, -1.00, 269.9, 212.0)">u</text><text xml:space="preserve" font-family="Courier-Bold" font-weight="bold" font-size="33.0" fill="#164E86" transform="matrix(1.00, 0.00, -0.00, -1.00, 289.7, 212.0)">n</text><text xml:space="preserve" font-family="Courier-Bold" font-weight="bold" font-size="33.0" fill="#164E86" transform="matrix(1.00, 0.00, -0.00, -1.00, 309.5, 212.0)">t</text><text xml:space="preserve" font-family="Courier-Bold" font-weight="bold" font-size="33.0" fill="#164E86" transform="matrix(1.00, 0.00, -0.00, -1.00, 329.3, 212.0)"> </text><text xml:space="preserve" font-family="Courier-Bold" font-weight="bold" font-size="33.0" fill="#164E86" transform="matrix(1.00, 0.00, -0.00, -1.00, 349.1, 212.0)">D</text><text xml:space="preserve" font-family="Courier-Bold" font-weight="bold" font-size="33.0" fill="#164E86" transform="matrix(1.00, 0.00, -0.00, -1.00, 368.9, 212.0)">E</text><text xml:space="preserve" font-family="Courier-Bold" font-weight="bold" font-size="33.0" fill="#164E86" transform="matrix(1.00, 0.00, -0.00, -1.00, 388.7, 212.0)">S</text><text xml:space="preserve" font-family="Courier-Bold" font-weight="bold" font-size="33.0" fill="#164E86" transform="matrix(1.00, 0.00, -0.00, -1.00, 408.5, 212.0)">C</text><text xml:space="preserve" font-family="Courier-Bold" font-weight="bold" font-size="33.0" fill="#164E86" transform="matrix(1.00, 0.00, -0.00, -1.00, 52.0, 152.0)">L</text><text xml:space="preserve" font-family="Courier-Bold" font-weight="bold" font-size="33.0" fill="#164E86" transform="matrix(1.00, 0.00, -0.00, -1.00, 71.8, 152.0)">I</text><text xml:space="preserve" font-family="Courier-Bold" font-weight="bold" font-size="33.0" fill="#164E86" transform="matrix(1.00, 0.00, -0.00, -1.00, 91.6, 152.0)">M</text><text xml:space="preserve" font-family="Courier-Bold" font-weight="bold" font-size="33.0" fill="#164E86" transform="matrix(1.00, 0.00, -0.00, -1.00, 111.4, 152.0)">I</text><text xml:space="preserve" font-family="Courier-Bold" font-weight="bold" font-size="33.0" fill="#164E86" transform="matrix(1.00, 0.00, -0.00, -1.00, 131.2, 152.0)">T</text><text xml:space="preserve" font-family="Courier-Bold" font-weight="bold" font-size="33.0" fill="#164E86" transform="matrix(1.00, 0.00, -0.00, -1.00, 151.0, 152.0)"> </text><text xml:space="preserve" font-family="Courier-Bold" font-weight="bold" font-size="33.0" fill="#164E86" transform="matrix(1.00, 0.00, -0.00, -1.00, 170.8, 152.0)">5</text></g></svg>