<?xml version="1.0" encoding="UTF-8" standalone="no"?><svg xmlns="http://www.w3.org/2000/svg" xmlns:xlink="http://www.w3.org/1999/xlink" clip-rule="evenodd" stroke-miterlimit="4.00" viewBox="0 0 1024 768"><desc>SVG generated by Keynote</desc><defs></defs><g transform="matrix(1.00, 0.00, -0.00, -1.00, 0.0, 768.0)"><g><clipPath id="clip-192921"><path d="M 0.0 768.0 L 1024.0 768.0 L 1024.0 0.0 L 0.0 0.0 Z M 0.0 768.0 "></path></clipPath><g clip-path="url(#clip-192921)"><image xlink:href="../../4C5BC850-A5A0-4CA6-98FD-210C540B1F8D/assets/FD09BE66AF37B893564B83D5753DE453.png" width="1024.00" height="768.00" transform="matrix(1.00, 0.00, -0.00, -1.00, 0.0, 768.0)"></image></g></g><g><clipPath id="clip-192922"><path d="M 872.0 108.0 L 999.0 108.0 L 999.0 28.0 L 872.0 28.0 Z M 872.0 108.0 "></path></clipPath><g clip-path="url(#clip-192922)"><g><clipPath id="clip-192923"><path d="M 871.0 28.0 L 1000.0 28.0 L 1000.0 108.0 L 871.0 108.0 Z M 871.0 28.0 "></path></clipPath><g clip-path="url(#clip-192923)"><text xml:space="preserve" font-family="ProximaNova-Regular" font-size="53.7" fill="#FFFEFE" transform="matrix(0.44, 0.00, -0.00, -0.43, 871.0, 34.3)">G</text><text xml:space="preserve" font-family="ProximaNova-Regular" font-size="53.7" fill="#FFFEFE" transform="matrix(0.44, 0.00, -0.00, -0.43, 887.7, 34.3)">r</text><text xml:space="preserve" font-family="ProximaNova-Regular" font-size="53.7" fill="#FFFEFE" transform="matrix(0.44, 0.00, -0.00, -0.43, 895.4, 34.3)">a</text><text xml:space="preserve" font-family="ProximaNova-Regular" font-size="53.7" fill="#FFFEFE" transform="matrix(0.44, 0.00, -0.00, -0.43, 907.8, 34.3)">p</text><text xml:space="preserve" font-family="ProximaNova-Regular" font-size="53.7" fill="#FFFEFE" transform="matrix(0.44, 0.00, -0.00, -0.43, 921.2, 34.3)">h</text></g></g></g></g><g><clipPath id="clip-192924"><path d="M 872.0 108.0 L 999.0 108.0 L 999.0 28.0 L 872.0 28.0 Z M 872.0 108.0 "></path></clipPath><g clip-path="url(#clip-192924)"><g><clipPath id="clip-192925"><path d="M 871.0 28.0 L 1000.0 28.0 L 1000.0 108.0 L 871.0 108.0 Z M 871.0 28.0 "></path></clipPath><g clip-path="url(#clip-192925)"><text xml:space="preserve" font-family="Helvetica" font-size="53.7" fill="#FFFEFE" transform="matrix(0.44, 0.00, -0.00, -0.43, 934.1, 34.3)">A</text><text xml:space="preserve" font-family="Helvetica" font-size="53.7" fill="#FFFEFE" transform="matrix(0.44, 0.00, -0.00, -0.43, 949.3, 34.3)">w</text><text xml:space="preserve" font-family="Helvetica" font-size="53.7" fill="#FFFEFE" transform="matrix(0.44, 0.00, -0.00, -0.43, 966.2, 34.3)">a</text><text xml:space="preserve" font-family="Helvetica" font-size="53.7" fill="#FFFEFE" transform="matrix(0.44, 0.00, -0.00, -0.43, 979.2, 34.3)">r</text><text xml:space="preserve" font-family="Helvetica" font-size="53.7" fill="#FFFEFE" transform="matrix(0.44, 0.00, -0.00, -0.43, 987.1, 34.3)">e</text></g></g></g></g><g><clipPath id="clip-192926"><path d="M 872.0 108.0 L 999.0 108.0 L 999.0 28.0 L 872.0 28.0 Z M 872.0 108.0 "></path></clipPath><g clip-path="url(#clip-192926)"><g><clipPath id="clip-192927"><path d="M 871.0 28.0 L 1000.0 28.0 L 1000.0 108.0 L 871.0 108.0 Z M 871.0 28.0 "></path></clipPath><g clip-path="url(#clip-192927)"><path d="M 937.2 84.7 C 937.2 84.3 937.1 83.9 937.0 83.6 L 945.2 78.9 C 945.7 79.6 946.5 80.1 947.4 80.1 C 949.0 80.1 950.3 78.8 950.3 77.2 C 950.3 75.6 949.0 74.3 947.4 74.3 C 946.5 74.3 945.7 74.8 945.2 75.5 L 937.0 70.8 C 937.1 70.5 937.2 70.1 937.2 69.7 C 937.2 68.1 935.9 66.8 934.3 66.8 C 932.7 66.8 931.4 68.1 931.4 69.7 C 931.4 70.1 931.5 70.5 931.6 70.8 L 923.5 75.5 C 922.9 74.8 922.1 74.3 921.2 74.3 C 919.6 74.3 918.3 75.6 918.3 77.2 C 918.3 78.8 919.6 80.1 921.2 80.1 C 922.1 80.1 922.9 79.6 923.5 78.9 L 931.6 83.6 C 931.5 83.9 931.4 84.3 931.4 84.7 C 931.4 85.1 931.5 85.5 931.6 85.8 L 923.5 90.5 C 922.9 89.8 922.1 89.3 921.2 89.3 C 919.6 89.3 918.3 90.6 918.3 92.2 C 918.3 93.8 919.6 95.1 921.2 95.1 C 922.1 95.1 922.9 94.6 923.5 93.9 L 931.6 98.6 C 931.5 99.0 931.4 99.3 931.4 99.7 C 931.4 101.3 932.7 102.6 934.3 102.6 C 935.9 102.6 937.2 101.3 937.2 99.7 C 937.2 98.3 936.1 97.1 934.7 96.9 L 934.7 87.5 C 935.5 87.4 936.1 87.0 936.6 86.4 L 944.8 91.1 C 944.6 91.4 944.6 91.8 944.6 92.2 C 944.6 93.8 945.8 95.1 947.4 95.1 C 949.0 95.1 950.3 93.8 950.3 92.2 C 950.3 90.6 949.0 89.3 947.4 89.3 C 946.5 89.3 945.7 89.8 945.2 90.5 L 937.0 85.8 C 937.1 85.5 937.2 85.1 937.2 84.7 M 953.5 97.6 L 936.0 107.6 C 935.1 108.1 933.6 108.1 932.6 107.6 L 915.1 97.6 C 914.2 97.1 913.4 95.8 913.4 94.7 L 913.4 74.7 C 913.4 73.6 914.2 72.3 915.1 71.8 L 932.6 61.8 C 933.6 61.3 935.1 61.3 936.0 61.8 L 953.5 71.8 C 954.4 72.3 955.2 73.6 955.2 74.7 L 955.2 94.7 C 955.2 95.8 954.4 97.1 953.5 97.6 M 934.7 81.9 L 934.7 72.5 C 935.5 72.4 936.1 72.0 936.6 71.4 L 944.8 76.1 C 944.6 76.4 944.6 76.8 944.6 77.2 C 944.6 77.6 944.6 78.0 944.8 78.3 L 936.6 83.0 C 936.1 82.4 935.5 82.0 934.7 81.9 M 932.0 98.0 L 923.8 93.3 C 924.0 93.0 924.1 92.6 924.1 92.2 C 924.1 91.8 924.0 91.4 923.8 91.1 L 932.0 86.4 C 932.5 87.0 933.1 87.4 933.9 87.5 L 933.9 96.9 C 933.1 97.0 932.5 97.4 932.0 98.0 M 932.0 83.0 L 923.8 78.3 C 924.0 78.0 924.1 77.6 924.1 77.2 C 924.1 76.8 924.0 76.4 923.8 76.1 L 932.0 71.4 C 932.5 72.0 933.1 72.4 933.9 72.5 L 933.9 81.9 C 933.1 82.0 932.5 82.4 932.0 83.0 " fill="#FFFEFE"></path></g></g></g></g><g><clipPath id="clip-192928"><path d="M 872.0 108.0 L 999.0 108.0 L 999.0 28.0 L 872.0 28.0 Z M 872.0 108.0 "></path></clipPath><g clip-path="url(#clip-192928)"><g><clipPath id="clip-192929"><path d="M 871.0 28.0 L 1000.0 28.0 L 1000.0 108.0 L 871.0 108.0 Z M 871.0 28.0 "></path></clipPath><g clip-path="url(#clip-192929)"><text xml:space="preserve" font-family="ProximaNova-Light" font-size="18.0" fill="#FFFEFE" transform="matrix(0.44, 0.00, -0.00, -0.43, 994.3, 44.4)">®</text></g></g></g></g><text xml:space="preserve" font-family="ProximaNova-Semibold" font-weight="bold" font-size="104.0" fill="#FEFFFF" transform="matrix(1.00, 0.00, -0.00, -1.00, 39.0, 661.0)">D</text><text xml:space="preserve" font-family="ProximaNova-Semibold" font-weight="bold" font-size="104.0" fill="#FEFFFF" transform="matrix(1.00, 0.00, -0.00, -1.00, 112.8, 661.0)">a</text><text xml:space="preserve" font-family="ProximaNova-Semibold" font-weight="bold" font-size="104.0" fill="#FEFFFF" transform="matrix(1.00, 0.00, -0.00, -1.00, 168.7, 661.0)">y</text><text xml:space="preserve" font-family="ProximaNova-Semibold" font-weight="bold" font-size="104.0" fill="#FEFFFF" transform="matrix(1.00, 0.00, -0.00, -1.00, 221.0, 661.0)"> </text><text xml:space="preserve" font-family="ProximaNova-Semibold" font-weight="bold" font-size="104.0" fill="#FEFFFF" transform="matrix(1.00, 0.00, -0.00, -1.00, 247.8, 661.0)">6</text><text xml:space="preserve" font-family="ProximaNova-Regular" font-size="30.0" fill="#FEFFFE" transform="matrix(1.00, 0.00, -0.00, -1.00, 43.0, 609.0)">O</text><text xml:space="preserve" font-family="ProximaNova-Regular" font-size="30.0" fill="#FEFFFE" transform="matrix(1.00, 0.00, -0.00, -1.00, 66.0, 609.0)">p</text><text xml:space="preserve" font-family="ProximaNova-Regular" font-size="30.0" fill="#FEFFFE" transform="matrix(1.00, 0.00, -0.00, -1.00, 83.1, 609.0)">e</text><text xml:space="preserve" font-family="ProximaNova-Regular" font-size="30.0" fill="#FEFFFE" transform="matrix(1.00, 0.00, -0.00, -1.00, 100.0, 609.0)">r</text><text xml:space="preserve" font-family="ProximaNova-Regular" font-size="30.0" fill="#FEFFFE" transform="matrix(1.00, 0.00, -0.00, -1.00, 109.9, 609.0)">a</text><text xml:space="preserve" font-family="ProximaNova-Regular" font-size="30.0" fill="#FEFFFE" transform="matrix(1.00, 0.00, -0.00, -1.00, 125.7, 609.0)">t</text><text xml:space="preserve" font-family="ProximaNova-Regular" font-size="30.0" fill="#FEFFFE" transform="matrix(1.00, 0.00, -0.00, -1.00, 134.6, 609.0)">i</text><text xml:space="preserve" font-family="ProximaNova-Regular" font-size="30.0" fill="#FEFFFE" transform="matrix(1.00, 0.00, -0.00, -1.00, 141.3, 609.0)">o</text><text xml:space="preserve" font-family="ProximaNova-Regular" font-size="30.0" fill="#FEFFFE" transform="matrix(1.00, 0.00, -0.00, -1.00, 158.5, 609.0)">n</text><text xml:space="preserve" font-family="ProximaNova-Regular" font-size="30.0" fill="#FEFFFE" transform="matrix(1.00, 0.00, -0.00, -1.00, 175.0, 609.0)">s</text><text xml:space="preserve" font-family="ProximaNova-Regular" font-size="30.0" fill="#FEFFFE" transform="matrix(1.00, 0.00, -0.00, -1.00, 189.0, 609.0)"> </text><text xml:space="preserve" font-family="ProximaNova-Regular" font-size="30.0" fill="#FEFFFE" transform="matrix(1.00, 0.00, -0.00, -1.00, 196.8, 609.0)">w</text><text xml:space="preserve" font-family="ProximaNova-Regular" font-size="30.0" fill="#FEFFFE" transform="matrix(1.00, 0.00, -0.00, -1.00, 218.8, 609.0)">i</text><text xml:space="preserve" font-family="ProximaNova-Regular" font-size="30.0" fill="#FEFFFE" transform="matrix(1.00, 0.00, -0.00, -1.00, 225.5, 609.0)">t</text><text xml:space="preserve" font-family="ProximaNova-Regular" font-size="30.0" fill="#FEFFFE" transform="matrix(1.00, 0.00, -0.00, -1.00, 234.3, 609.0)">h</text><text xml:space="preserve" font-family="ProximaNova-Regular" font-size="30.0" fill="#FEFFFE" transform="matrix(1.00, 0.00, -0.00, -1.00, 250.9, 609.0)"> </text><text xml:space="preserve" font-family="ProximaNova-Regular" font-size="30.0" fill="#FEFFFE" transform="matrix(1.00, 0.00, -0.00, -1.00, 258.7, 609.0)">N</text><text xml:space="preserve" font-family="ProximaNova-Regular" font-size="30.0" fill="#FEFFFE" transform="matrix(1.00, 0.00, -0.00, -1.00, 279.9, 609.0)">e</text><text xml:space="preserve" font-family="ProximaNova-Regular" font-size="30.0" fill="#FEFFFE" transform="matrix(1.00, 0.00, -0.00, -1.00, 296.8, 609.0)">o</text><text xml:space="preserve" font-family="ProximaNova-Regular" font-size="30.0" fill="#FEFFFE" transform="matrix(1.00, 0.00, -0.00, -1.00, 314.0, 609.0)">4</text><text xml:space="preserve" font-family="ProximaNova-Regular" font-size="30.0" fill="#FEFFFE" transform="matrix(1.00, 0.00, -0.00, -1.00, 330.7, 609.0)">j</text><text xml:space="preserve" font-family="ProximaNova-Regular" font-size="30.0" fill="#FEFFFE" transform="matrix(1.00, 0.00, -0.00, -1.00, 89.0, 84.0)">g</text><text xml:space="preserve" font-family="ProximaNova-Regular" font-size="30.0" fill="#FEFFFE" transform="matrix(1.00, 0.00, -0.00, -1.00, 106.2, 84.0)">r</text><text xml:space="preserve" font-family="ProximaNova-Regular" font-size="30.0" fill="#FEFFFE" transform="matrix(1.00, 0.00, -0.00, -1.00, 116.2, 84.0)">a</text><text xml:space="preserve" font-family="ProximaNova-Regular" font-size="30.0" fill="#FEFFFE" transform="matrix(1.00, 0.00, -0.00, -1.00, 132.0, 84.0)">p</text><text xml:space="preserve" font-family="ProximaNova-Regular" font-size="30.0" fill="#FEFFFE" transform="matrix(1.00, 0.00, -0.00, -1.00, 149.1, 84.0)">h</text><text xml:space="preserve" font-family="ProximaNova-Regular" font-size="30.0" fill="#FEFFFE" transform="matrix(1.00, 0.00, -0.00, -1.00, 165.7, 84.0)">a</text><text xml:space="preserve" font-family="ProximaNova-Regular" font-size="30.0" fill="#FEFFFE" transform="matrix(1.00, 0.00, -0.00, -1.00, 181.6, 84.0)">w</text><text xml:space="preserve" font-family="ProximaNova-Regular" font-size="30.0" fill="#FEFFFE" transform="matrix(1.00, 0.00, -0.00, -1.00, 203.6, 84.0)">a</text><text xml:space="preserve" font-family="ProximaNova-Regular" font-size="30.0" fill="#FEFFFE" transform="matrix(1.00, 0.00, -0.00, -1.00, 219.4, 84.0)">r</text><text xml:space="preserve" font-family="ProximaNova-Regular" font-size="30.0" fill="#FEFFFE" transform="matrix(1.00, 0.00, -0.00, -1.00, 229.3, 84.0)">e</text><text xml:space="preserve" font-family="ProximaNova-Regular" font-size="30.0" fill="#FEFFFE" transform="matrix(1.00, 0.00, -0.00, -1.00, 246.0, 84.0)">.</text><text xml:space="preserve" font-family="ProximaNova-Regular" font-size="30.0" fill="#FEFFFE" transform="matrix(1.00, 0.00, -0.00, -1.00, 252.7, 84.0)">c</text><text xml:space="preserve" font-family="ProximaNova-Regular" font-size="30.0" fill="#FEFFFE" transform="matrix(1.00, 0.00, -0.00, -1.00, 267.6, 84.0)">o</text><text xml:space="preserve" font-family="ProximaNova-Regular" font-size="30.0" fill="#FEFFFE" transform="matrix(1.00, 0.00, -0.00, -1.00, 284.8, 84.0)">m</text><text xml:space="preserve" font-family="ProximaNova-Regular" font-size="30.0" fill="#FEFFFE" transform="matrix(1.00, 0.00, -0.00, -1.00, 309.0, 84.0)"> </text><text xml:space="preserve" font-family="ProximaNova-Regular" font-size="30.0" fill="#FEFFFE" transform="matrix(1.00, 0.00, -0.00, -1.00, 89.0, 28.0)">@</text><text xml:space="preserve" font-family="ProximaNova-Regular" font-size="30.0" fill="#FEFFFE" transform="matrix(1.00, 0.00, -0.00, -1.00, 112.5, 28.0)">g</text><text xml:space="preserve" font-family="ProximaNova-Regular" font-size="30.0" fill="#FEFFFE" transform="matrix(1.00, 0.00, -0.00, -1.00, 129.7, 28.0)">r</text><text xml:space="preserve" font-family="ProximaNova-Regular" font-size="30.0" fill="#FEFFFE" transform="matrix(1.00, 0.00, -0.00, -1.00, 139.6, 28.0)">a</text><text xml:space="preserve" font-family="ProximaNova-Regular" font-size="30.0" fill="#FEFFFE" transform="matrix(1.00, 0.00, -0.00, -1.00, 155.5, 28.0)">p</text><text xml:space="preserve" font-family="ProximaNova-Regular" font-size="30.0" fill="#FEFFFE" transform="matrix(1.00, 0.00, -0.00, -1.00, 172.6, 28.0)">h</text><text xml:space="preserve" font-family="ProximaNova-Regular" font-size="30.0" fill="#FEFFFE" transform="matrix(1.00, 0.00, -0.00, -1.00, 189.2, 28.0)">_</text><text xml:space="preserve" font-family="ProximaNova-Regular" font-size="30.0" fill="#FEFFFE" transform="matrix(1.00, 0.00, -0.00, -1.00, 206.1, 28.0)">a</text><text xml:space="preserve" font-family="ProximaNova-Regular" font-size="30.0" fill="#FEFFFE" transform="matrix(1.00, 0.00, -0.00, -1.00, 222.0, 28.0)">w</text><text xml:space="preserve" font-family="ProximaNova-Regular" font-size="30.0" fill="#FEFFFE" transform="matrix(1.00, 0.00, -0.00, -1.00, 244.0, 28.0)">a</text><text xml:space="preserve" font-family="ProximaNova-Regular" font-size="30.0" fill="#FEFFFE" transform="matrix(1.00, 0.00, -0.00, -1.00, 259.8, 28.0)">r</text><text xml:space="preserve" font-family="ProximaNova-Regular" font-size="30.0" fill="#FEFFFE" transform="matrix(1.00, 0.00, -0.00, -1.00, 269.7, 28.0)">e</text><image xlink:href="../../4C5BC850-A5A0-4CA6-98FD-210C540B1F8D/assets/B048D18AB4D196E62CEF176CC72329BE.png" width="38.00" height="38.00" transform="matrix(1.00, 0.00, -0.00, -1.00, 31.0, 113.0)"></image><image xlink:href="../../4C5BC850-A5A0-4CA6-98FD-210C540B1F8D/assets/1702D64B71AFEA4DA19260DF7C87EF31.png" width="38.00" height="38.00" transform="matrix(1.00, 0.00, -0.00, -0.97, 31.0, 60.0)"></image><g><clipPath id="clip-192930"><path d="M 77.9 502.1 L 1008.2 502.1 L 1008.2 243.7 L 77.9 243.7 Z M 77.9 502.1 "></path></clipPath><g clip-path="url(#clip-192930)"><path d="M 79.0 501.0 L 399.5 501.0 L 399.5 443.4 L 79.0 443.4 Z M 79.0 501.0 " fill="#892C91"></path><path d="M 399.5 501.0 L 1007.1 501.0 L 1007.1 443.4 L 399.5 443.4 Z M 399.5 501.0 " fill="#A1D1E9"></path><path d="M 79.0 443.4 L 399.5 443.4 L 399.5 387.4 L 79.0 387.4 Z M 79.0 443.4 " fill="#892C91"></path><path d="M 399.5 443.4 L 1007.1 443.4 L 1007.1 387.4 L 399.5 387.4 Z M 399.5 443.4 " fill="#A1D1E9"></path><path d="M 79.0 387.4 L 399.5 387.4 L 399.5 292.5 L 79.0 292.5 Z M 79.0 387.4 " fill="#892C91"></path><path d="M 399.5 387.4 L 1007.1 387.4 L 1007.1 292.5 L 399.5 292.5 Z M 399.5 387.4 " fill="#9DCBE2"></path><path d="M 79.0 292.5 L 399.5 292.5 L 399.5 244.9 L 79.0 244.9 Z M 79.0 292.5 " fill="#892C91"></path><path d="M 399.5 292.5 L 1007.1 292.5 L 1007.1 244.9 L 399.5 244.9 Z M 399.5 292.5 " fill="#9DCBE2"></path></g></g><g><clipPath id="clip-192931"><path d="M 77.9 502.1 L 1008.2 502.1 L 1008.2 243.7 L 77.9 243.7 Z M 77.9 502.1 "></path></clipPath><g clip-path="url(#clip-192931)"><g><clipPath id="clip-192932"><path d="M 80.1 443.9 L 399.0 443.9 L 399.0 499.9 L 80.1 499.9 Z M 80.1 443.9 "></path></clipPath><g clip-path="url(#clip-192932)"><text xml:space="preserve" font-family="ProximaNova-Semibold" font-weight="bold" font-size="32.0" fill="#FEFFFE" transform="matrix(1.00, 0.00, -0.00, -1.00, 174.0, 460.0)">S</text><text xml:space="preserve" font-family="ProximaNova-Semibold" font-weight="bold" font-size="32.0" fill="#FEFFFE" transform="matrix(1.00, 0.00, -0.00, -1.00, 193.0, 460.0)">e</text><text xml:space="preserve" font-family="ProximaNova-Semibold" font-weight="bold" font-size="32.0" fill="#FEFFFE" transform="matrix(1.00, 0.00, -0.00, -1.00, 210.8, 460.0)">s</text><text xml:space="preserve" font-family="ProximaNova-Semibold" font-weight="bold" font-size="32.0" fill="#FEFFFE" transform="matrix(1.00, 0.00, -0.00, -1.00, 225.9, 460.0)">s</text><text xml:space="preserve" font-family="ProximaNova-Semibold" font-weight="bold" font-size="32.0" fill="#FEFFFE" transform="matrix(1.00, 0.00, -0.00, -1.00, 241.0, 460.0)">i</text><text xml:space="preserve" font-family="ProximaNova-Semibold" font-weight="bold" font-size="32.0" fill="#FEFFFE" transform="matrix(1.00, 0.00, -0.00, -1.00, 248.8, 460.0)">o</text><text xml:space="preserve" font-family="ProximaNova-Semibold" font-weight="bold" font-size="32.0" fill="#FEFFFE" transform="matrix(1.00, 0.00, -0.00, -1.00, 267.1, 460.0)">n</text><text xml:space="preserve" font-family="ProximaNova-Semibold" font-weight="bold" font-size="32.0" fill="#FEFFFE" transform="matrix(1.00, 0.00, -0.00, -1.00, 285.3, 460.0)"> </text><text xml:space="preserve" font-family="ProximaNova-Semibold" font-weight="bold" font-size="32.0" fill="#FEFFFE" transform="matrix(1.00, 0.00, -0.00, -1.00, 293.6, 460.0)">1</text></g></g></g></g><g><clipPath id="clip-192933"><path d="M 77.9 502.1 L 1008.2 502.1 L 1008.2 243.7 L 77.9 243.7 Z M 77.9 502.1 "></path></clipPath><g clip-path="url(#clip-192933)"><g><clipPath id="clip-192934"><path d="M 400.0 443.9 L 1006.0 443.9 L 1006.0 499.9 L 400.0 499.9 Z M 400.0 443.9 "></path></clipPath><g clip-path="url(#clip-192934)"><text xml:space="preserve" font-family="ProximaNova-Regular" font-size="32.0" fill="#000000" transform="matrix(1.00, 0.00, -0.00, -1.00, 570.0, 460.0)">J</text><text xml:space="preserve" font-family="ProximaNova-Regular" font-size="32.0" fill="#000000" transform="matrix(1.00, 0.00, -0.00, -1.00, 585.2, 460.0)">a</text><text xml:space="preserve" font-family="ProximaNova-Regular" font-size="32.0" fill="#000000" transform="matrix(1.00, 0.00, -0.00, -1.00, 602.1, 460.0)">v</text><text xml:space="preserve" font-family="ProximaNova-Regular" font-size="32.0" fill="#000000" transform="matrix(1.00, 0.00, -0.00, -1.00, 617.8, 460.0)">a</text><text xml:space="preserve" font-family="ProximaNova-Regular" font-size="32.0" fill="#000000" transform="matrix(1.00, 0.00, -0.00, -1.00, 634.7, 460.0)"> </text><text xml:space="preserve" font-family="ProximaNova-Regular" font-size="32.0" fill="#000000" transform="matrix(1.00, 0.00, -0.00, -1.00, 643.0, 460.0)">A</text><text xml:space="preserve" font-family="ProximaNova-Regular" font-size="32.0" fill="#000000" transform="matrix(1.00, 0.00, -0.00, -1.00, 664.0, 460.0)">P</text><text xml:space="preserve" font-family="ProximaNova-Regular" font-size="32.0" fill="#000000" transform="matrix(1.00, 0.00, -0.00, -1.00, 682.8, 460.0)">I</text><text xml:space="preserve" font-family="ProximaNova-Regular" font-size="32.0" fill="#000000" transform="matrix(1.00, 0.00, -0.00, -1.00, 690.4, 460.0)"> </text><text xml:space="preserve" font-family="ProximaNova-Regular" font-size="32.0" fill="#000000" transform="matrix(1.00, 0.00, -0.00, -1.00, 698.7, 460.0)">a</text><text xml:space="preserve" font-family="ProximaNova-Regular" font-size="32.0" fill="#000000" transform="matrix(1.00, 0.00, -0.00, -1.00, 715.6, 460.0)">n</text><text xml:space="preserve" font-family="ProximaNova-Regular" font-size="32.0" fill="#000000" transform="matrix(1.00, 0.00, -0.00, -1.00, 733.3, 460.0)">d</text><text xml:space="preserve" font-family="ProximaNova-Regular" font-size="32.0" fill="#000000" transform="matrix(1.00, 0.00, -0.00, -1.00, 751.7, 460.0)"> </text><text xml:space="preserve" font-family="ProximaNova-Regular" font-size="32.0" fill="#000000" transform="matrix(1.00, 0.00, -0.00, -1.00, 760.0, 460.0)">B</text><text xml:space="preserve" font-family="ProximaNova-Regular" font-size="32.0" fill="#000000" transform="matrix(1.00, 0.00, -0.00, -1.00, 780.1, 460.0)">O</text><text xml:space="preserve" font-family="ProximaNova-Regular" font-size="32.0" fill="#000000" transform="matrix(1.00, 0.00, -0.00, -1.00, 804.6, 460.0)">L</text><text xml:space="preserve" font-family="ProximaNova-Regular" font-size="32.0" fill="#000000" transform="matrix(1.00, 0.00, -0.00, -1.00, 817.2, 460.0)">T</text></g></g></g></g><g><clipPath id="clip-192935"><path d="M 77.9 502.1 L 1008.2 502.1 L 1008.2 243.7 L 77.9 243.7 Z M 77.9 502.1 "></path></clipPath><g clip-path="url(#clip-192935)"><g><clipPath id="clip-192936"><path d="M 80.1 387.9 L 399.0 387.9 L 399.0 442.9 L 80.1 442.9 Z M 80.1 387.9 "></path></clipPath><g clip-path="url(#clip-192936)"><text xml:space="preserve" font-family="ProximaNova-Semibold" font-weight="bold" font-size="32.0" fill="#FEFFFE" transform="matrix(1.00, 0.00, -0.00, -1.00, 170.0, 403.0)">S</text><text xml:space="preserve" font-family="ProximaNova-Semibold" font-weight="bold" font-size="32.0" fill="#FEFFFE" transform="matrix(1.00, 0.00, -0.00, -1.00, 189.0, 403.0)">e</text><text xml:space="preserve" font-family="ProximaNova-Semibold" font-weight="bold" font-size="32.0" fill="#FEFFFE" transform="matrix(1.00, 0.00, -0.00, -1.00, 206.8, 403.0)">s</text><text xml:space="preserve" font-family="ProximaNova-Semibold" font-weight="bold" font-size="32.0" fill="#FEFFFE" transform="matrix(1.00, 0.00, -0.00, -1.00, 221.9, 403.0)">s</text><text xml:space="preserve" font-family="ProximaNova-Semibold" font-weight="bold" font-size="32.0" fill="#FEFFFE" transform="matrix(1.00, 0.00, -0.00, -1.00, 237.0, 403.0)">i</text><text xml:space="preserve" font-family="ProximaNova-Semibold" font-weight="bold" font-size="32.0" fill="#FEFFFE" transform="matrix(1.00, 0.00, -0.00, -1.00, 244.8, 403.0)">o</text><text xml:space="preserve" font-family="ProximaNova-Semibold" font-weight="bold" font-size="32.0" fill="#FEFFFE" transform="matrix(1.00, 0.00, -0.00, -1.00, 263.1, 403.0)">n</text><text xml:space="preserve" font-family="ProximaNova-Semibold" font-weight="bold" font-size="32.0" fill="#FEFFFE" transform="matrix(1.00, 0.00, -0.00, -1.00, 281.3, 403.0)"> </text><text xml:space="preserve" font-family="ProximaNova-Semibold" font-weight="bold" font-size="32.0" fill="#FEFFFE" transform="matrix(1.00, 0.00, -0.00, -1.00, 289.6, 403.0)">2</text></g></g></g></g><g><clipPath id="clip-192937"><path d="M 77.9 502.1 L 1008.2 502.1 L 1008.2 243.7 L 77.9 243.7 Z M 77.9 502.1 "></path></clipPath><g clip-path="url(#clip-192937)"><g><clipPath id="clip-192938"><path d="M 400.0 387.9 L 1006.0 387.9 L 1006.0 442.9 L 400.0 442.9 Z M 400.0 387.9 "></path></clipPath><g clip-path="url(#clip-192938)"><text xml:space="preserve" font-family="ProximaNova-Regular" font-size="32.0" fill="#000000" transform="matrix(1.00, 0.00, -0.00, -1.00, 552.0, 403.0)">E</text><text xml:space="preserve" font-family="ProximaNova-Regular" font-size="32.0" fill="#000000" transform="matrix(1.00, 0.00, -0.00, -1.00, 570.2, 403.0)">x</text><text xml:space="preserve" font-family="ProximaNova-Regular" font-size="32.0" fill="#000000" transform="matrix(1.00, 0.00, -0.00, -1.00, 585.8, 403.0)">a</text><text xml:space="preserve" font-family="ProximaNova-Regular" font-size="32.0" fill="#000000" transform="matrix(1.00, 0.00, -0.00, -1.00, 602.7, 403.0)">m</text><text xml:space="preserve" font-family="ProximaNova-Regular" font-size="32.0" fill="#000000" transform="matrix(1.00, 0.00, -0.00, -1.00, 628.5, 403.0)">p</text><text xml:space="preserve" font-family="ProximaNova-Regular" font-size="32.0" fill="#000000" transform="matrix(1.00, 0.00, -0.00, -1.00, 646.8, 403.0)">l</text><text xml:space="preserve" font-family="ProximaNova-Regular" font-size="32.0" fill="#000000" transform="matrix(1.00, 0.00, -0.00, -1.00, 654.0, 403.0)">e</text><text xml:space="preserve" font-family="ProximaNova-Regular" font-size="32.0" fill="#000000" transform="matrix(1.00, 0.00, -0.00, -1.00, 672.1, 403.0)">s</text><text xml:space="preserve" font-family="ProximaNova-Regular" font-size="32.0" fill="#000000" transform="matrix(1.00, 0.00, -0.00, -1.00, 686.9, 403.0)"> </text><text xml:space="preserve" font-family="ProximaNova-Regular" font-size="32.0" fill="#000000" transform="matrix(1.00, 0.00, -0.00, -1.00, 695.2, 403.0)">+</text><text xml:space="preserve" font-family="ProximaNova-Regular" font-size="32.0" fill="#000000" transform="matrix(1.00, 0.00, -0.00, -1.00, 711.2, 403.0)"> </text><text xml:space="preserve" font-family="ProximaNova-Regular" font-size="32.0" fill="#000000" transform="matrix(1.00, 0.00, -0.00, -1.00, 719.5, 403.0)">P</text><text xml:space="preserve" font-family="ProximaNova-Regular" font-size="32.0" fill="#000000" transform="matrix(1.00, 0.00, -0.00, -1.00, 738.3, 403.0)">r</text><text xml:space="preserve" font-family="ProximaNova-Regular" font-size="32.0" fill="#000000" transform="matrix(1.00, 0.00, -0.00, -1.00, 748.8, 403.0)">a</text><text xml:space="preserve" font-family="ProximaNova-Regular" font-size="32.0" fill="#000000" transform="matrix(1.00, 0.00, -0.00, -1.00, 765.7, 403.0)">c</text><text xml:space="preserve" font-family="ProximaNova-Regular" font-size="32.0" fill="#000000" transform="matrix(1.00, 0.00, -0.00, -1.00, 781.6, 403.0)">t</text><text xml:space="preserve" font-family="ProximaNova-Regular" font-size="32.0" fill="#000000" transform="matrix(1.00, 0.00, -0.00, -1.00, 791.0, 403.0)">i</text><text xml:space="preserve" font-family="ProximaNova-Regular" font-size="32.0" fill="#000000" transform="matrix(1.00, 0.00, -0.00, -1.00, 798.2, 403.0)">c</text><text xml:space="preserve" font-family="ProximaNova-Regular" font-size="32.0" fill="#000000" transform="matrix(1.00, 0.00, -0.00, -1.00, 814.1, 403.0)">a</text><text xml:space="preserve" font-family="ProximaNova-Regular" font-size="32.0" fill="#000000" transform="matrix(1.00, 0.00, -0.00, -1.00, 831.0, 403.0)">l</text><text xml:space="preserve" font-family="ProximaNova-Regular" font-size="32.0" fill="#000000" transform="matrix(1.00, 0.00, -0.00, -1.00, 838.2, 403.0)">s</text></g></g></g></g><g><clipPath id="clip-192939"><path d="M 77.9 502.1 L 1008.2 502.1 L 1008.2 243.7 L 77.9 243.7 Z M 77.9 502.1 "></path></clipPath><g clip-path="url(#clip-192939)"><g><clipPath id="clip-192940"><path d="M 80.1 293.0 L 399.0 293.0 L 399.0 386.9 L 80.1 386.9 Z M 80.1 293.0 "></path></clipPath><g clip-path="url(#clip-192940)"><text xml:space="preserve" font-family="ProximaNova-Semibold" font-weight="bold" font-size="32.0" fill="#FEFFFE" transform="matrix(1.00, 0.00, -0.00, -1.00, 171.0, 328.0)">S</text><text xml:space="preserve" font-family="ProximaNova-Semibold" font-weight="bold" font-size="32.0" fill="#FEFFFE" transform="matrix(1.00, 0.00, -0.00, -1.00, 190.0, 328.0)">e</text><text xml:space="preserve" font-family="ProximaNova-Semibold" font-weight="bold" font-size="32.0" fill="#FEFFFE" transform="matrix(1.00, 0.00, -0.00, -1.00, 207.8, 328.0)">s</text><text xml:space="preserve" font-family="ProximaNova-Semibold" font-weight="bold" font-size="32.0" fill="#FEFFFE" transform="matrix(1.00, 0.00, -0.00, -1.00, 222.9, 328.0)">s</text><text xml:space="preserve" font-family="ProximaNova-Semibold" font-weight="bold" font-size="32.0" fill="#FEFFFE" transform="matrix(1.00, 0.00, -0.00, -1.00, 238.0, 328.0)">i</text><text xml:space="preserve" font-family="ProximaNova-Semibold" font-weight="bold" font-size="32.0" fill="#FEFFFE" transform="matrix(1.00, 0.00, -0.00, -1.00, 245.8, 328.0)">o</text><text xml:space="preserve" font-family="ProximaNova-Semibold" font-weight="bold" font-size="32.0" fill="#FEFFFE" transform="matrix(1.00, 0.00, -0.00, -1.00, 264.1, 328.0)">n</text><text xml:space="preserve" font-family="ProximaNova-Semibold" font-weight="bold" font-size="32.0" fill="#FEFFFE" transform="matrix(1.00, 0.00, -0.00, -1.00, 282.3, 328.0)"> </text><text xml:space="preserve" font-family="ProximaNova-Semibold" font-weight="bold" font-size="32.0" fill="#FEFFFE" transform="matrix(1.00, 0.00, -0.00, -1.00, 290.6, 328.0)">3</text></g></g></g></g><g><clipPath id="clip-192941"><path d="M 77.9 502.1 L 1008.2 502.1 L 1008.2 243.7 L 77.9 243.7 Z M 77.9 502.1 "></path></clipPath><g clip-path="url(#clip-192941)"><g><clipPath id="clip-192942"><path d="M 400.0 293.0 L 1006.0 293.0 L 1006.0 386.9 L 400.0 386.9 Z M 400.0 293.0 "></path></clipPath><g clip-path="url(#clip-192942)"><text xml:space="preserve" font-family="ProximaNova-Regular" font-size="32.0" fill="#000000" transform="matrix(1.00, 0.00, -0.00, -1.00, 507.0, 352.0)">O</text><text xml:space="preserve" font-family="ProximaNova-Regular" font-size="32.0" fill="#000000" transform="matrix(1.00, 0.00, -0.00, -1.00, 531.5, 352.0)">p</text><text xml:space="preserve" font-family="ProximaNova-Regular" font-size="32.0" fill="#000000" transform="matrix(1.00, 0.00, -0.00, -1.00, 549.8, 352.0)">e</text><text xml:space="preserve" font-family="ProximaNova-Regular" font-size="32.0" fill="#000000" transform="matrix(1.00, 0.00, -0.00, -1.00, 567.8, 352.0)">r</text><text xml:space="preserve" font-family="ProximaNova-Regular" font-size="32.0" fill="#000000" transform="matrix(1.00, 0.00, -0.00, -1.00, 578.4, 352.0)">a</text><text xml:space="preserve" font-family="ProximaNova-Regular" font-size="32.0" fill="#000000" transform="matrix(1.00, 0.00, -0.00, -1.00, 595.3, 352.0)">t</text><text xml:space="preserve" font-family="ProximaNova-Regular" font-size="32.0" fill="#000000" transform="matrix(1.00, 0.00, -0.00, -1.00, 604.7, 352.0)">i</text><text xml:space="preserve" font-family="ProximaNova-Regular" font-size="32.0" fill="#000000" transform="matrix(1.00, 0.00, -0.00, -1.00, 611.9, 352.0)">o</text><text xml:space="preserve" font-family="ProximaNova-Regular" font-size="32.0" fill="#000000" transform="matrix(1.00, 0.00, -0.00, -1.00, 630.2, 352.0)">n</text><text xml:space="preserve" font-family="ProximaNova-Regular" font-size="32.0" fill="#000000" transform="matrix(1.00, 0.00, -0.00, -1.00, 647.8, 352.0)">s</text><text xml:space="preserve" font-family="ProximaNova-Regular" font-size="32.0" fill="#000000" transform="matrix(1.00, 0.00, -0.00, -1.00, 662.7, 352.0)"> </text><text xml:space="preserve" font-family="ProximaNova-Regular" font-size="32.0" fill="#000000" transform="matrix(1.00, 0.00, -0.00, -1.00, 671.0, 352.0)">(</text><text xml:space="preserve" font-family="ProximaNova-Regular" font-size="32.0" fill="#000000" transform="matrix(1.00, 0.00, -0.00, -1.00, 678.9, 352.0)">L</text><text xml:space="preserve" font-family="ProximaNova-Regular" font-size="32.0" fill="#000000" transform="matrix(1.00, 0.00, -0.00, -1.00, 694.0, 352.0)">o</text><text xml:space="preserve" font-family="ProximaNova-Regular" font-size="32.0" fill="#000000" transform="matrix(1.00, 0.00, -0.00, -1.00, 712.3, 352.0)">a</text><text xml:space="preserve" font-family="ProximaNova-Regular" font-size="32.0" fill="#000000" transform="matrix(1.00, 0.00, -0.00, -1.00, 729.2, 352.0)">d</text><text xml:space="preserve" font-family="ProximaNova-Regular" font-size="32.0" fill="#000000" transform="matrix(1.00, 0.00, -0.00, -1.00, 747.6, 352.0)"> </text><text xml:space="preserve" font-family="ProximaNova-Regular" font-size="32.0" fill="#000000" transform="matrix(1.00, 0.00, -0.00, -1.00, 755.9, 352.0)">b</text><text xml:space="preserve" font-family="ProximaNova-Regular" font-size="32.0" fill="#000000" transform="matrix(1.00, 0.00, -0.00, -1.00, 774.3, 352.0)">a</text><text xml:space="preserve" font-family="ProximaNova-Regular" font-size="32.0" fill="#000000" transform="matrix(1.00, 0.00, -0.00, -1.00, 791.2, 352.0)">l</text><text xml:space="preserve" font-family="ProximaNova-Regular" font-size="32.0" fill="#000000" transform="matrix(1.00, 0.00, -0.00, -1.00, 798.4, 352.0)">a</text><text xml:space="preserve" font-family="ProximaNova-Regular" font-size="32.0" fill="#000000" transform="matrix(1.00, 0.00, -0.00, -1.00, 815.3, 352.0)">n</text><text xml:space="preserve" font-family="ProximaNova-Regular" font-size="32.0" fill="#000000" transform="matrix(1.00, 0.00, -0.00, -1.00, 833.0, 352.0)">c</text><text xml:space="preserve" font-family="ProximaNova-Regular" font-size="32.0" fill="#000000" transform="matrix(1.00, 0.00, -0.00, -1.00, 848.9, 352.0)">i</text><text xml:space="preserve" font-family="ProximaNova-Regular" font-size="32.0" fill="#000000" transform="matrix(1.00, 0.00, -0.00, -1.00, 856.1, 352.0)">n</text><text xml:space="preserve" font-family="ProximaNova-Regular" font-size="32.0" fill="#000000" transform="matrix(1.00, 0.00, -0.00, -1.00, 873.7, 352.0)">g</text><text xml:space="preserve" font-family="ProximaNova-Regular" font-size="32.0" fill="#000000" transform="matrix(1.00, 0.00, -0.00, -1.00, 892.1, 352.0)">,</text><text xml:space="preserve" font-family="ProximaNova-Regular" font-size="32.0" fill="#000000" transform="matrix(1.00, 0.00, -0.00, -1.00, 899.5, 352.0)"> </text><text xml:space="preserve" font-family="ProximaNova-Regular" font-size="32.0" fill="#000000" transform="matrix(1.00, 0.00, -0.00, -1.00, 432.0, 314.0)">c</text><text xml:space="preserve" font-family="ProximaNova-Regular" font-size="32.0" fill="#000000" transform="matrix(1.00, 0.00, -0.00, -1.00, 447.9, 314.0)">o</text><text xml:space="preserve" font-family="ProximaNova-Regular" font-size="32.0" fill="#000000" transform="matrix(1.00, 0.00, -0.00, -1.00, 466.2, 314.0)">n</text><text xml:space="preserve" font-family="ProximaNova-Regular" font-size="32.0" fill="#000000" transform="matrix(1.00, 0.00, -0.00, -1.00, 483.8, 314.0)">ﬁ</text><text xml:space="preserve" font-family="ProximaNova-Regular" font-size="32.0" fill="#000000" transform="matrix(1.00, 0.00, -0.00, -1.00, 500.1, 314.0)">g</text><text xml:space="preserve" font-family="ProximaNova-Regular" font-size="32.0" fill="#000000" transform="matrix(1.00, 0.00, -0.00, -1.00, 518.5, 314.0)">u</text><text xml:space="preserve" font-family="ProximaNova-Regular" font-size="32.0" fill="#000000" transform="matrix(1.00, 0.00, -0.00, -1.00, 536.2, 314.0)">r</text><text xml:space="preserve" font-family="ProximaNova-Regular" font-size="32.0" fill="#000000" transform="matrix(1.00, 0.00, -0.00, -1.00, 546.7, 314.0)">a</text><text xml:space="preserve" font-family="ProximaNova-Regular" font-size="32.0" fill="#000000" transform="matrix(1.00, 0.00, -0.00, -1.00, 563.6, 314.0)">t</text><text xml:space="preserve" font-family="ProximaNova-Regular" font-size="32.0" fill="#000000" transform="matrix(1.00, 0.00, -0.00, -1.00, 573.0, 314.0)">i</text><text xml:space="preserve" font-family="ProximaNova-Regular" font-size="32.0" fill="#000000" transform="matrix(1.00, 0.00, -0.00, -1.00, 580.2, 314.0)">o</text><text xml:space="preserve" font-family="ProximaNova-Regular" font-size="32.0" fill="#000000" transform="matrix(1.00, 0.00, -0.00, -1.00, 598.5, 314.0)">n</text><text xml:space="preserve" font-family="ProximaNova-Regular" font-size="32.0" fill="#000000" transform="matrix(1.00, 0.00, -0.00, -1.00, 616.2, 314.0)">,</text><text xml:space="preserve" font-family="ProximaNova-Regular" font-size="32.0" fill="#000000" transform="matrix(1.00, 0.00, -0.00, -1.00, 623.6, 314.0)"> </text><text xml:space="preserve" font-family="ProximaNova-Regular" font-size="32.0" fill="#000000" transform="matrix(1.00, 0.00, -0.00, -1.00, 631.8, 314.0)">p</text><text xml:space="preserve" font-family="ProximaNova-Regular" font-size="32.0" fill="#000000" transform="matrix(1.00, 0.00, -0.00, -1.00, 650.1, 314.0)">e</text><text xml:space="preserve" font-family="ProximaNova-Regular" font-size="32.0" fill="#000000" transform="matrix(1.00, 0.00, -0.00, -1.00, 668.2, 314.0)">r</text><text xml:space="preserve" font-family="ProximaNova-Regular" font-size="32.0" fill="#000000" transform="matrix(1.00, 0.00, -0.00, -1.00, 678.7, 314.0)">f</text><text xml:space="preserve" font-family="ProximaNova-Regular" font-size="32.0" fill="#000000" transform="matrix(1.00, 0.00, -0.00, -1.00, 687.8, 314.0)">o</text><text xml:space="preserve" font-family="ProximaNova-Regular" font-size="32.0" fill="#000000" transform="matrix(1.00, 0.00, -0.00, -1.00, 706.1, 314.0)">r</text><text xml:space="preserve" font-family="ProximaNova-Regular" font-size="32.0" fill="#000000" transform="matrix(1.00, 0.00, -0.00, -1.00, 716.7, 314.0)">m</text><text xml:space="preserve" font-family="ProximaNova-Regular" font-size="32.0" fill="#000000" transform="matrix(1.00, 0.00, -0.00, -1.00, 742.5, 314.0)">a</text><text xml:space="preserve" font-family="ProximaNova-Regular" font-size="32.0" fill="#000000" transform="matrix(1.00, 0.00, -0.00, -1.00, 759.4, 314.0)">n</text><text xml:space="preserve" font-family="ProximaNova-Regular" font-size="32.0" fill="#000000" transform="matrix(1.00, 0.00, -0.00, -1.00, 777.1, 314.0)">c</text><text xml:space="preserve" font-family="ProximaNova-Regular" font-size="32.0" fill="#000000" transform="matrix(1.00, 0.00, -0.00, -1.00, 793.0, 314.0)">e</text><text xml:space="preserve" font-family="ProximaNova-Regular" font-size="32.0" fill="#000000" transform="matrix(1.00, 0.00, -0.00, -1.00, 811.0, 314.0)"> </text><text xml:space="preserve" font-family="ProximaNova-Regular" font-size="32.0" fill="#000000" transform="matrix(1.00, 0.00, -0.00, -1.00, 819.3, 314.0)">t</text><text xml:space="preserve" font-family="ProximaNova-Regular" font-size="32.0" fill="#000000" transform="matrix(1.00, 0.00, -0.00, -1.00, 828.7, 314.0)">u</text><text xml:space="preserve" font-family="ProximaNova-Regular" font-size="32.0" fill="#000000" transform="matrix(1.00, 0.00, -0.00, -1.00, 846.3, 314.0)">n</text><text xml:space="preserve" font-family="ProximaNova-Regular" font-size="32.0" fill="#000000" transform="matrix(1.00, 0.00, -0.00, -1.00, 864.0, 314.0)">i</text><text xml:space="preserve" font-family="ProximaNova-Regular" font-size="32.0" fill="#000000" transform="matrix(1.00, 0.00, -0.00, -1.00, 871.2, 314.0)">n</text><text xml:space="preserve" font-family="ProximaNova-Regular" font-size="32.0" fill="#000000" transform="matrix(1.00, 0.00, -0.00, -1.00, 888.8, 314.0)">g</text><text xml:space="preserve" font-family="ProximaNova-Regular" font-size="32.0" fill="#000000" transform="matrix(1.00, 0.00, -0.00, -1.00, 907.2, 314.0)"> </text><text xml:space="preserve" font-family="ProximaNova-Regular" font-size="32.0" fill="#000000" transform="matrix(1.00, 0.00, -0.00, -1.00, 915.5, 314.0)">e</text><text xml:space="preserve" font-family="ProximaNova-Regular" font-size="32.0" fill="#000000" transform="matrix(1.00, 0.00, -0.00, -1.00, 933.5, 314.0)">t</text><text xml:space="preserve" font-family="ProximaNova-Regular" font-size="32.0" fill="#000000" transform="matrix(1.00, 0.00, -0.00, -1.00, 942.9, 314.0)">c</text><text xml:space="preserve" font-family="ProximaNova-Regular" font-size="32.0" fill="#000000" transform="matrix(1.00, 0.00, -0.00, -1.00, 958.8, 314.0)">.</text><text xml:space="preserve" font-family="ProximaNova-Regular" font-size="32.0" fill="#000000" transform="matrix(1.00, 0.00, -0.00, -1.00, 966.2, 314.0)">)</text></g></g></g></g><g><clipPath id="clip-192943"><path d="M 77.9 502.1 L 1008.2 502.1 L 1008.2 243.7 L 77.9 243.7 Z M 77.9 502.1 "></path></clipPath><g clip-path="url(#clip-192943)"><g><clipPath id="clip-192944"><path d="M 80.1 246.0 L 399.0 246.0 L 399.0 292.0 L 80.1 292.0 Z M 80.1 246.0 "></path></clipPath><g clip-path="url(#clip-192944)"><text xml:space="preserve" font-family="ProximaNova-Semibold" font-weight="bold" font-size="32.0" fill="#FEFFFE" transform="matrix(1.00, 0.00, -0.00, -1.00, 170.0, 257.0)">S</text><text xml:space="preserve" font-family="ProximaNova-Semibold" font-weight="bold" font-size="32.0" fill="#FEFFFE" transform="matrix(1.00, 0.00, -0.00, -1.00, 189.0, 257.0)">e</text><text xml:space="preserve" font-family="ProximaNova-Semibold" font-weight="bold" font-size="32.0" fill="#FEFFFE" transform="matrix(1.00, 0.00, -0.00, -1.00, 206.8, 257.0)">s</text><text xml:space="preserve" font-family="ProximaNova-Semibold" font-weight="bold" font-size="32.0" fill="#FEFFFE" transform="matrix(1.00, 0.00, -0.00, -1.00, 221.9, 257.0)">s</text><text xml:space="preserve" font-family="ProximaNova-Semibold" font-weight="bold" font-size="32.0" fill="#FEFFFE" transform="matrix(1.00, 0.00, -0.00, -1.00, 237.0, 257.0)">i</text><text xml:space="preserve" font-family="ProximaNova-Semibold" font-weight="bold" font-size="32.0" fill="#FEFFFE" transform="matrix(1.00, 0.00, -0.00, -1.00, 244.8, 257.0)">o</text><text xml:space="preserve" font-family="ProximaNova-Semibold" font-weight="bold" font-size="32.0" fill="#FEFFFE" transform="matrix(1.00, 0.00, -0.00, -1.00, 263.1, 257.0)">n</text><text xml:space="preserve" font-family="ProximaNova-Semibold" font-weight="bold" font-size="32.0" fill="#FEFFFE" transform="matrix(1.00, 0.00, -0.00, -1.00, 281.3, 257.0)"> </text><text xml:space="preserve" font-family="ProximaNova-Semibold" font-weight="bold" font-size="32.0" fill="#FEFFFE" transform="matrix(1.00, 0.00, -0.00, -1.00, 289.6, 257.0)">4</text></g></g></g></g><g><clipPath id="clip-192945"><path d="M 77.9 502.1 L 1008.2 502.1 L 1008.2 243.7 L 77.9 243.7 Z M 77.9 502.1 "></path></clipPath><g clip-path="url(#clip-192945)"><g><clipPath id="clip-192946"><path d="M 400.0 246.0 L 1006.0 246.0 L 1006.0 292.0 L 400.0 292.0 Z M 400.0 246.0 "></path></clipPath><g clip-path="url(#clip-192946)"><text xml:space="preserve" font-family="ProximaNova-Regular" font-size="32.0" fill="#000000" transform="matrix(1.00, 0.00, -0.00, -1.00, 457.0, 257.0)">P</text><text xml:space="preserve" font-family="ProximaNova-Regular" font-size="32.0" fill="#000000" transform="matrix(1.00, 0.00, -0.00, -1.00, 475.8, 257.0)">r</text><text xml:space="preserve" font-family="ProximaNova-Regular" font-size="32.0" fill="#000000" transform="matrix(1.00, 0.00, -0.00, -1.00, 486.3, 257.0)">a</text><text xml:space="preserve" font-family="ProximaNova-Regular" font-size="32.0" fill="#000000" transform="matrix(1.00, 0.00, -0.00, -1.00, 503.2, 257.0)">c</text><text xml:space="preserve" font-family="ProximaNova-Regular" font-size="32.0" fill="#000000" transform="matrix(1.00, 0.00, -0.00, -1.00, 519.1, 257.0)">t</text><text xml:space="preserve" font-family="ProximaNova-Regular" font-size="32.0" fill="#000000" transform="matrix(1.00, 0.00, -0.00, -1.00, 528.5, 257.0)">i</text><text xml:space="preserve" font-family="ProximaNova-Regular" font-size="32.0" fill="#000000" transform="matrix(1.00, 0.00, -0.00, -1.00, 535.7, 257.0)">s</text><text xml:space="preserve" font-family="ProximaNova-Regular" font-size="32.0" fill="#000000" transform="matrix(1.00, 0.00, -0.00, -1.00, 550.6, 257.0)">e</text><text xml:space="preserve" font-family="ProximaNova-Regular" font-size="32.0" fill="#000000" transform="matrix(1.00, 0.00, -0.00, -1.00, 568.6, 257.0)"> </text><text xml:space="preserve" font-family="ProximaNova-Regular" font-size="32.0" fill="#000000" transform="matrix(1.00, 0.00, -0.00, -1.00, 576.9, 257.0)">c</text><text xml:space="preserve" font-family="ProximaNova-Regular" font-size="32.0" fill="#000000" transform="matrix(1.00, 0.00, -0.00, -1.00, 592.8, 257.0)">o</text><text xml:space="preserve" font-family="ProximaNova-Regular" font-size="32.0" fill="#000000" transform="matrix(1.00, 0.00, -0.00, -1.00, 611.1, 257.0)">m</text><text xml:space="preserve" font-family="ProximaNova-Regular" font-size="32.0" fill="#000000" transform="matrix(1.00, 0.00, -0.00, -1.00, 636.9, 257.0)">m</text><text xml:space="preserve" font-family="ProximaNova-Regular" font-size="32.0" fill="#000000" transform="matrix(1.00, 0.00, -0.00, -1.00, 662.8, 257.0)">u</text><text xml:space="preserve" font-family="ProximaNova-Regular" font-size="32.0" fill="#000000" transform="matrix(1.00, 0.00, -0.00, -1.00, 680.4, 257.0)">n</text><text xml:space="preserve" font-family="ProximaNova-Regular" font-size="32.0" fill="#000000" transform="matrix(1.00, 0.00, -0.00, -1.00, 698.1, 257.0)">i</text><text xml:space="preserve" font-family="ProximaNova-Regular" font-size="32.0" fill="#000000" transform="matrix(1.00, 0.00, -0.00, -1.00, 705.3, 257.0)">c</text><text xml:space="preserve" font-family="ProximaNova-Regular" font-size="32.0" fill="#000000" transform="matrix(1.00, 0.00, -0.00, -1.00, 721.2, 257.0)">a</text><text xml:space="preserve" font-family="ProximaNova-Regular" font-size="32.0" fill="#000000" transform="matrix(1.00, 0.00, -0.00, -1.00, 738.1, 257.0)">t</text><text xml:space="preserve" font-family="ProximaNova-Regular" font-size="32.0" fill="#000000" transform="matrix(1.00, 0.00, -0.00, -1.00, 747.5, 257.0)">i</text><text xml:space="preserve" font-family="ProximaNova-Regular" font-size="32.0" fill="#000000" transform="matrix(1.00, 0.00, -0.00, -1.00, 754.7, 257.0)">n</text><text xml:space="preserve" font-family="ProximaNova-Regular" font-size="32.0" fill="#000000" transform="matrix(1.00, 0.00, -0.00, -1.00, 772.3, 257.0)">g</text><text xml:space="preserve" font-family="ProximaNova-Regular" font-size="32.0" fill="#000000" transform="matrix(1.00, 0.00, -0.00, -1.00, 790.7, 257.0)"> </text><text xml:space="preserve" font-family="ProximaNova-Regular" font-size="32.0" fill="#000000" transform="matrix(1.00, 0.00, -0.00, -1.00, 799.0, 257.0)">w</text><text xml:space="preserve" font-family="ProximaNova-Regular" font-size="32.0" fill="#000000" transform="matrix(1.00, 0.00, -0.00, -1.00, 822.5, 257.0)">i</text><text xml:space="preserve" font-family="ProximaNova-Regular" font-size="32.0" fill="#000000" transform="matrix(1.00, 0.00, -0.00, -1.00, 829.7, 257.0)">t</text><text xml:space="preserve" font-family="ProximaNova-Regular" font-size="32.0" fill="#000000" transform="matrix(1.00, 0.00, -0.00, -1.00, 839.1, 257.0)">h</text><text xml:space="preserve" font-family="ProximaNova-Regular" font-size="32.0" fill="#000000" transform="matrix(1.00, 0.00, -0.00, -1.00, 856.8, 257.0)"> </text><text xml:space="preserve" font-family="ProximaNova-Regular" font-size="32.0" fill="#000000" transform="matrix(1.00, 0.00, -0.00, -1.00, 865.1, 257.0)">N</text><text xml:space="preserve" font-family="ProximaNova-Regular" font-size="32.0" fill="#000000" transform="matrix(1.00, 0.00, -0.00, -1.00, 887.7, 257.0)">e</text><text xml:space="preserve" font-family="ProximaNova-Regular" font-size="32.0" fill="#000000" transform="matrix(1.00, 0.00, -0.00, -1.00, 905.7, 257.0)">o</text><text xml:space="preserve" font-family="ProximaNova-Regular" font-size="32.0" fill="#000000" transform="matrix(1.00, 0.00, -0.00, -1.00, 924.0, 257.0)">4</text><text xml:space="preserve" font-family="ProximaNova-Regular" font-size="32.0" fill="#000000" transform="matrix(1.00, 0.00, -0.00, -1.00, 941.9, 257.0)">j</text></g></g></g></g><g><clipPath id="clip-192947"><path d="M 77.9 502.1 L 1008.2 502.1 L 1008.2 243.7 L 77.9 243.7 Z M 77.9 502.1 "></path></clipPath><g clip-path="url(#clip-192947)"><path d="M 323.5 2.0 L 323.5 60.6 " fill="none" stroke="#FEFFFE" stroke-width="1.00" transform="matrix(1.00, 0.00, 0.00, -1.00, 76.0, 504.0)"></path><path d="M 323.5 60.6 L 323.5 116.6 " fill="none" stroke="#FEFFFE" stroke-width="1.00" transform="matrix(1.00, 0.00, 0.00, -1.00, 76.0, 504.0)"></path><path d="M 323.5 116.6 L 323.5 211.5 " fill="none" stroke="#FEFFFE" stroke-width="1.00" transform="matrix(1.00, 0.00, 0.00, -1.00, 76.0, 504.0)"></path><path d="M 323.5 211.5 L 323.5 260.1 " fill="none" stroke="#FEFFFE" stroke-width="1.00" transform="matrix(1.00, 0.00, 0.00, -1.00, 76.0, 504.0)"></path><path d="M 2.0 60.6 L 323.5 60.6 " fill="none" stroke="#FEFFFE" stroke-width="1.00" transform="matrix(1.00, 0.00, 0.00, -1.00, 76.0, 504.0)"></path><path d="M 323.5 60.6 L 932.1 60.6 " fill="none" stroke="#FEFFFE" stroke-width="1.00" transform="matrix(1.00, 0.00, 0.00, -1.00, 76.0, 504.0)"></path><path d="M 2.0 116.6 L 323.5 116.6 " fill="none" stroke="#FEFFFE" stroke-width="1.00" transform="matrix(1.00, 0.00, 0.00, -1.00, 76.0, 504.0)"></path><path d="M 323.5 116.6 L 932.1 116.6 " fill="none" stroke="#FEFFFE" stroke-width="1.00" transform="matrix(1.00, 0.00, 0.00, -1.00, 76.0, 504.0)"></path><path d="M 2.0 211.5 L 323.5 211.5 " fill="none" stroke="#FEFFFE" stroke-width="1.00" transform="matrix(1.00, 0.00, 0.00, -1.00, 76.0, 504.0)"></path><path d="M 323.5 211.5 L 932.1 211.5 " fill="none" stroke="#FEFFFE" stroke-width="1.00" transform="matrix(1.00, 0.00, 0.00, -1.00, 76.0, 504.0)"></path><path d="M 3.0 2.0 L 3.0 260.1 " fill="none" stroke="#FEFFFE" stroke-width="2.25" transform="matrix(1.00, 0.00, 0.00, -1.00, 76.0, 504.0)"></path><path d="M 931.1 2.0 L 931.1 116.6 " fill="none" stroke="#FEFFFE" stroke-width="2.25" transform="matrix(1.00, 0.00, 0.00, -1.00, 76.0, 504.0)"></path><path d="M 931.1 116.6 L 931.1 211.5 " fill="none" stroke="#FEFFFE" stroke-width="2.25" transform="matrix(1.00, 0.00, 0.00, -1.00, 76.0, 504.0)"></path><path d="M 931.1 211.5 L 931.1 260.1 " fill="none" stroke="#FEFFFE" stroke-width="2.25" transform="matrix(1.00, 0.00, 0.00, -1.00, 76.0, 504.0)"></path><path d="M 2.0 3.0 L 932.1 3.0 " fill="none" stroke="#FEFFFE" stroke-width="2.25" transform="matrix(1.00, 0.00, 0.00, -1.00, 76.0, 504.0)"></path><path d="M 2.0 259.1 L 323.5 259.1 " fill="none" stroke="#FEFFFE" stroke-width="2.25" transform="matrix(1.00, 0.00, 0.00, -1.00, 76.0, 504.0)"></path><path d="M 323.5 259.1 L 932.1 259.1 " fill="none" stroke="#FEFFFE" stroke-width="2.25" transform="matrix(1.00, 0.00, 0.00, -1.00, 76.0, 504.0)"></path></g></g></g></svg>