<?xml version="1.0" encoding="UTF-8" standalone="no"?><svg xmlns="http://www.w3.org/2000/svg" xmlns:xlink="http://www.w3.org/1999/xlink" clip-rule="evenodd" stroke-miterlimit="4.00" viewBox="0 0 1024 768"><desc>SVG generated by Keynote</desc><defs></defs><g transform="matrix(1.00, 0.00, -0.00, -1.00, 0.0, 768.0)"><path d="M 0.0 768.0 L 1024.0 768.0 L 1024.0 0.0 L 0.0 0.0 Z M 0.0 768.0 " fill="#FEFFFF"></path><text xml:space="preserve" font-family="ProximaNova-Semibold" font-weight="bold" font-size="60.0" fill="#276AA5" transform="matrix(1.00, 0.00, -0.00, -1.00, 56.0, 662.0)">C</text><text xml:space="preserve" font-family="ProximaNova-Semibold" font-weight="bold" font-size="60.0" fill="#276AA5" transform="matrix(1.00, 0.00, -0.00, -1.00, 95.1, 662.0)">R</text><text xml:space="preserve" font-family="ProximaNova-Semibold" font-weight="bold" font-size="60.0" fill="#276AA5" transform="matrix(1.00, 0.00, -0.00, -1.00, 131.1, 662.0)">E</text><text xml:space="preserve" font-family="ProximaNova-Semibold" font-weight="bold" font-size="60.0" fill="#276AA5" transform="matrix(1.00, 0.00, -0.00, -1.00, 163.9, 662.0)">A</text><text xml:space="preserve" font-family="ProximaNova-Semibold" font-weight="bold" font-size="60.0" fill="#276AA5" transform="matrix(1.00, 0.00, -0.00, -1.00, 198.6, 662.0)">T</text><text xml:space="preserve" font-family="ProximaNova-Semibold" font-weight="bold" font-size="60.0" fill="#276AA5" transform="matrix(1.00, 0.00, -0.00, -1.00, 231.4, 662.0)">E</text><text xml:space="preserve" font-family="Courier-Bold" font-weight="bold" font-size="39.0" fill="#00872A" transform="matrix(1.00, 0.00, -0.00, -1.00, 473.0, 414.0)">C</text><text xml:space="preserve" font-family="Courier-Bold" font-weight="bold" font-size="39.0" fill="#00872A" transform="matrix(1.00, 0.00, -0.00, -1.00, 496.4, 414.0)">R</text><text xml:space="preserve" font-family="Courier-Bold" font-weight="bold" font-size="39.0" fill="#00872A" transform="matrix(1.00, 0.00, -0.00, -1.00, 519.8, 414.0)">E</text><text xml:space="preserve" font-family="Courier-Bold" font-weight="bold" font-size="39.0" fill="#00872A" transform="matrix(1.00, 0.00, -0.00, -1.00, 543.2, 414.0)">A</text><text xml:space="preserve" font-family="Courier-Bold" font-weight="bold" font-size="39.0" fill="#00872A" transform="matrix(1.00, 0.00, -0.00, -1.00, 566.6, 414.0)">T</text><text xml:space="preserve" font-family="Courier-Bold" font-weight="bold" font-size="39.0" fill="#00872A" transform="matrix(1.00, 0.00, -0.00, -1.00, 590.0, 414.0)">E</text><text xml:space="preserve" font-family="Courier-Bold" font-weight="bold" font-size="39.0" fill="#164E86" transform="matrix(1.00, 0.00, -0.00, -1.00, 613.4, 414.0)"> </text><text xml:space="preserve" font-family="Courier-Bold" font-weight="bold" font-size="39.0" fill="#164E86" transform="matrix(1.00, 0.00, -0.00, -1.00, 263.0, 347.0)">(</text><text xml:space="preserve" font-family="Courier-Bold" font-weight="bold" font-size="39.0" fill="#164E86" transform="matrix(1.00, 0.00, -0.00, -1.00, 286.4, 347.0)">a</text><text xml:space="preserve" font-family="Courier-Bold" font-weight="bold" font-size="39.0" fill="#164E86" transform="matrix(1.00, 0.00, -0.00, -1.00, 309.8, 347.0)">:</text><text xml:space="preserve" font-family="Courier-Bold" font-weight="bold" font-size="39.0" fill="#164E86" transform="matrix(1.00, 0.00, -0.00, -1.00, 333.2, 347.0)">U</text><text xml:space="preserve" font-family="Courier-Bold" font-weight="bold" font-size="39.0" fill="#164E86" transform="matrix(1.00, 0.00, -0.00, -1.00, 356.6, 347.0)">s</text><text xml:space="preserve" font-family="Courier-Bold" font-weight="bold" font-size="39.0" fill="#164E86" transform="matrix(1.00, 0.00, -0.00, -1.00, 380.0, 347.0)">e</text><text xml:space="preserve" font-family="Courier-Bold" font-weight="bold" font-size="39.0" fill="#164E86" transform="matrix(1.00, 0.00, -0.00, -1.00, 403.4, 347.0)">r</text><text xml:space="preserve" font-family="Courier-Bold" font-weight="bold" font-size="39.0" fill="#164E86" transform="matrix(1.00, 0.00, -0.00, -1.00, 426.9, 347.0)"> </text><text xml:space="preserve" font-family="Courier-Bold" font-weight="bold" font-size="39.0" fill="#164E86" transform="matrix(1.00, 0.00, -0.00, -1.00, 450.3, 347.0)">{</text><text xml:space="preserve" font-family="Courier-Bold" font-weight="bold" font-size="39.0" fill="#164E86" transform="matrix(1.00, 0.00, -0.00, -1.00, 473.7, 347.0)">n</text><text xml:space="preserve" font-family="Courier-Bold" font-weight="bold" font-size="39.0" fill="#164E86" transform="matrix(1.00, 0.00, -0.00, -1.00, 497.1, 347.0)">a</text><text xml:space="preserve" font-family="Courier-Bold" font-weight="bold" font-size="39.0" fill="#164E86" transform="matrix(1.00, 0.00, -0.00, -1.00, 520.5, 347.0)">m</text><text xml:space="preserve" font-family="Courier-Bold" font-weight="bold" font-size="39.0" fill="#164E86" transform="matrix(1.00, 0.00, -0.00, -1.00, 543.9, 347.0)">e</text><text xml:space="preserve" font-family="Courier-Bold" font-weight="bold" font-size="39.0" fill="#164E86" transform="matrix(1.00, 0.00, -0.00, -1.00, 567.3, 347.0)">:</text><text xml:space="preserve" font-family="Courier-Bold" font-weight="bold" font-size="39.0" fill="#164E86" transform="matrix(1.00, 0.00, -0.00, -1.00, 590.7, 347.0)"> </text><text xml:space="preserve" font-family="Courier-Bold" font-weight="bold" font-size="39.0" fill="#164E86" transform="matrix(1.00, 0.00, -0.00, -1.00, 614.1, 347.0)">‘</text><text xml:space="preserve" font-family="Courier-Bold" font-weight="bold" font-size="39.0" fill="#164E86" transform="matrix(1.00, 0.00, -0.00, -1.00, 637.5, 347.0)">D</text><text xml:space="preserve" font-family="Courier-Bold" font-weight="bold" font-size="39.0" fill="#164E86" transform="matrix(1.00, 0.00, -0.00, -1.00, 660.9, 347.0)">a</text><text xml:space="preserve" font-family="Courier-Bold" font-weight="bold" font-size="39.0" fill="#164E86" transform="matrix(1.00, 0.00, -0.00, -1.00, 684.3, 347.0)">v</text><text xml:space="preserve" font-family="Courier-Bold" font-weight="bold" font-size="39.0" fill="#164E86" transform="matrix(1.00, 0.00, -0.00, -1.00, 707.7, 347.0)">i</text><text xml:space="preserve" font-family="Courier-Bold" font-weight="bold" font-size="39.0" fill="#164E86" transform="matrix(1.00, 0.00, -0.00, -1.00, 731.2, 347.0)">d</text><text xml:space="preserve" font-family="Courier-Bold" font-weight="bold" font-size="39.0" fill="#164E86" transform="matrix(1.00, 0.00, -0.00, -1.00, 754.6, 347.0)">’</text><text xml:space="preserve" font-family="Courier-Bold" font-weight="bold" font-size="39.0" fill="#164E86" transform="matrix(1.00, 0.00, -0.00, -1.00, 778.0, 347.0)">}</text><text xml:space="preserve" font-family="Courier-Bold" font-weight="bold" font-size="39.0" fill="#164E86" transform="matrix(1.00, 0.00, -0.00, -1.00, 801.4, 347.0)">)</text><text xml:space="preserve" font-family="Courier-Bold" font-weight="bold" font-size="39.0" fill="#164E86" transform="matrix(1.00, 0.00, -0.00, -1.00, 415.0, 280.0)">-</text><text xml:space="preserve" font-family="Courier-Bold" font-weight="bold" font-size="39.0" fill="#164E86" transform="matrix(1.00, 0.00, -0.00, -1.00, 438.4, 280.0)">[</text><text xml:space="preserve" font-family="Courier-Bold" font-weight="bold" font-size="39.0" fill="#164E86" transform="matrix(1.00, 0.00, -0.00, -1.00, 461.8, 280.0)">:</text><text xml:space="preserve" font-family="Courier-Bold" font-weight="bold" font-size="39.0" fill="#164E86" transform="matrix(1.00, 0.00, -0.00, -1.00, 485.2, 280.0)">L</text><text xml:space="preserve" font-family="Courier-Bold" font-weight="bold" font-size="39.0" fill="#164E86" transform="matrix(1.00, 0.00, -0.00, -1.00, 508.6, 280.0)">I</text><text xml:space="preserve" font-family="Courier-Bold" font-weight="bold" font-size="39.0" fill="#164E86" transform="matrix(1.00, 0.00, -0.00, -1.00, 532.0, 280.0)">K</text><text xml:space="preserve" font-family="Courier-Bold" font-weight="bold" font-size="39.0" fill="#164E86" transform="matrix(1.00, 0.00, -0.00, -1.00, 555.4, 280.0)">E</text><text xml:space="preserve" font-family="Courier-Bold" font-weight="bold" font-size="39.0" fill="#164E86" transform="matrix(1.00, 0.00, -0.00, -1.00, 578.9, 280.0)">S</text><text xml:space="preserve" font-family="Courier-Bold" font-weight="bold" font-size="39.0" fill="#164E86" transform="matrix(1.00, 0.00, -0.00, -1.00, 602.3, 280.0)">]</text><text xml:space="preserve" font-family="Courier-Bold" font-weight="bold" font-size="39.0" fill="#164E86" transform="matrix(1.00, 0.00, -0.00, -1.00, 625.7, 280.0)">-</text><text xml:space="preserve" font-family="Courier-Bold" font-weight="bold" font-size="39.0" fill="#164E86" transform="matrix(1.00, 0.00, -0.00, -1.00, 649.1, 280.0)">&gt;</text><text xml:space="preserve" font-family="Courier-Bold" font-weight="bold" font-size="39.0" fill="#164E86" transform="matrix(1.00, 0.00, -0.00, -1.00, 672.5, 280.0)"> </text><text xml:space="preserve" font-family="Courier-Bold" font-weight="bold" font-size="39.0" fill="#164E86" transform="matrix(1.00, 0.00, -0.00, -1.00, 227.0, 213.0)">(</text><text xml:space="preserve" font-family="Courier-Bold" font-weight="bold" font-size="39.0" fill="#164E86" transform="matrix(1.00, 0.00, -0.00, -1.00, 250.4, 213.0)">b</text><text xml:space="preserve" font-family="Courier-Bold" font-weight="bold" font-size="39.0" fill="#164E86" transform="matrix(1.00, 0.00, -0.00, -1.00, 273.8, 213.0)">:</text><text xml:space="preserve" font-family="Courier-Bold" font-weight="bold" font-size="39.0" fill="#164E86" transform="matrix(1.00, 0.00, -0.00, -1.00, 297.2, 213.0)">M</text><text xml:space="preserve" font-family="Courier-Bold" font-weight="bold" font-size="39.0" fill="#164E86" transform="matrix(1.00, 0.00, -0.00, -1.00, 320.6, 213.0)">o</text><text xml:space="preserve" font-family="Courier-Bold" font-weight="bold" font-size="39.0" fill="#164E86" transform="matrix(1.00, 0.00, -0.00, -1.00, 344.0, 213.0)">v</text><text xml:space="preserve" font-family="Courier-Bold" font-weight="bold" font-size="39.0" fill="#164E86" transform="matrix(1.00, 0.00, -0.00, -1.00, 367.4, 213.0)">i</text><text xml:space="preserve" font-family="Courier-Bold" font-weight="bold" font-size="39.0" fill="#164E86" transform="matrix(1.00, 0.00, -0.00, -1.00, 390.9, 213.0)">e</text><text xml:space="preserve" font-family="Courier-Bold" font-weight="bold" font-size="39.0" fill="#164E86" transform="matrix(1.00, 0.00, -0.00, -1.00, 414.3, 213.0)"> </text><text xml:space="preserve" font-family="Courier-Bold" font-weight="bold" font-size="39.0" fill="#164E86" transform="matrix(1.00, 0.00, -0.00, -1.00, 437.7, 213.0)">{</text><text xml:space="preserve" font-family="Courier-Bold" font-weight="bold" font-size="39.0" fill="#164E86" transform="matrix(1.00, 0.00, -0.00, -1.00, 461.1, 213.0)">n</text><text xml:space="preserve" font-family="Courier-Bold" font-weight="bold" font-size="39.0" fill="#164E86" transform="matrix(1.00, 0.00, -0.00, -1.00, 484.5, 213.0)">a</text><text xml:space="preserve" font-family="Courier-Bold" font-weight="bold" font-size="39.0" fill="#164E86" transform="matrix(1.00, 0.00, -0.00, -1.00, 507.9, 213.0)">m</text><text xml:space="preserve" font-family="Courier-Bold" font-weight="bold" font-size="39.0" fill="#164E86" transform="matrix(1.00, 0.00, -0.00, -1.00, 531.3, 213.0)">e</text><text xml:space="preserve" font-family="Courier-Bold" font-weight="bold" font-size="39.0" fill="#164E86" transform="matrix(1.00, 0.00, -0.00, -1.00, 554.7, 213.0)">:</text><text xml:space="preserve" font-family="Courier-Bold" font-weight="bold" font-size="39.0" fill="#164E86" transform="matrix(1.00, 0.00, -0.00, -1.00, 578.1, 213.0)"> </text><text xml:space="preserve" font-family="Courier-Bold" font-weight="bold" font-size="39.0" fill="#164E86" transform="matrix(1.00, 0.00, -0.00, -1.00, 601.5, 213.0)">‘</text><text xml:space="preserve" font-family="Courier-Bold" font-weight="bold" font-size="39.0" fill="#164E86" transform="matrix(1.00, 0.00, -0.00, -1.00, 624.9, 213.0)">T</text><text xml:space="preserve" font-family="Courier-Bold" font-weight="bold" font-size="39.0" fill="#164E86" transform="matrix(1.00, 0.00, -0.00, -1.00, 648.3, 213.0)">i</text><text xml:space="preserve" font-family="Courier-Bold" font-weight="bold" font-size="39.0" fill="#164E86" transform="matrix(1.00, 0.00, -0.00, -1.00, 671.7, 213.0)">t</text><text xml:space="preserve" font-family="Courier-Bold" font-weight="bold" font-size="39.0" fill="#164E86" transform="matrix(1.00, 0.00, -0.00, -1.00, 695.2, 213.0)">a</text><text xml:space="preserve" font-family="Courier-Bold" font-weight="bold" font-size="39.0" fill="#164E86" transform="matrix(1.00, 0.00, -0.00, -1.00, 718.6, 213.0)">n</text><text xml:space="preserve" font-family="Courier-Bold" font-weight="bold" font-size="39.0" fill="#164E86" transform="matrix(1.00, 0.00, -0.00, -1.00, 742.0, 213.0)">i</text><text xml:space="preserve" font-family="Courier-Bold" font-weight="bold" font-size="39.0" fill="#164E86" transform="matrix(1.00, 0.00, -0.00, -1.00, 765.4, 213.0)">c</text><text xml:space="preserve" font-family="Courier-Bold" font-weight="bold" font-size="39.0" fill="#164E86" transform="matrix(1.00, 0.00, -0.00, -1.00, 788.8, 213.0)">’</text><text xml:space="preserve" font-family="Courier-Bold" font-weight="bold" font-size="39.0" fill="#164E86" transform="matrix(1.00, 0.00, -0.00, -1.00, 812.2, 213.0)">}</text><text xml:space="preserve" font-family="Courier-Bold" font-weight="bold" font-size="39.0" fill="#164E86" transform="matrix(1.00, 0.00, -0.00, -1.00, 835.6, 213.0)">)</text><text xml:space="preserve" font-family="ProximaNova-Regular" font-size="30.0" fill="#000000" transform="matrix(1.00, 0.00, -0.00, -1.00, 365.0, 475.0)">B</text><text xml:space="preserve" font-family="ProximaNova-Regular" font-size="30.0" fill="#000000" transform="matrix(1.00, 0.00, -0.00, -1.00, 383.9, 475.0)">u</text><text xml:space="preserve" font-family="ProximaNova-Regular" font-size="30.0" fill="#000000" transform="matrix(1.00, 0.00, -0.00, -1.00, 400.4, 475.0)">t</text><text xml:space="preserve" font-family="ProximaNova-Regular" font-size="30.0" fill="#000000" transform="matrix(1.00, 0.00, -0.00, -1.00, 409.2, 475.0)"> </text><text xml:space="preserve" font-family="ProximaNova-Regular" font-size="30.0" fill="#000000" transform="matrix(1.00, 0.00, -0.00, -1.00, 417.0, 475.0)">w</text><text xml:space="preserve" font-family="ProximaNova-Regular" font-size="30.0" fill="#000000" transform="matrix(1.00, 0.00, -0.00, -1.00, 439.0, 475.0)">h</text><text xml:space="preserve" font-family="ProximaNova-Regular" font-size="30.0" fill="#000000" transform="matrix(1.00, 0.00, -0.00, -1.00, 455.6, 475.0)">a</text><text xml:space="preserve" font-family="ProximaNova-Regular" font-size="30.0" fill="#000000" transform="matrix(1.00, 0.00, -0.00, -1.00, 471.4, 475.0)">t</text><text xml:space="preserve" font-family="ProximaNova-Regular" font-size="30.0" fill="#000000" transform="matrix(1.00, 0.00, -0.00, -1.00, 480.2, 475.0)"> </text><text xml:space="preserve" font-family="ProximaNova-Regular" font-size="30.0" fill="#000000" transform="matrix(1.00, 0.00, -0.00, -1.00, 488.0, 475.0)">h</text><text xml:space="preserve" font-family="ProximaNova-Regular" font-size="30.0" fill="#000000" transform="matrix(1.00, 0.00, -0.00, -1.00, 504.6, 475.0)">a</text><text xml:space="preserve" font-family="ProximaNova-Regular" font-size="30.0" fill="#000000" transform="matrix(1.00, 0.00, -0.00, -1.00, 520.4, 475.0)">p</text><text xml:space="preserve" font-family="ProximaNova-Regular" font-size="30.0" fill="#000000" transform="matrix(1.00, 0.00, -0.00, -1.00, 537.6, 475.0)">p</text><text xml:space="preserve" font-family="ProximaNova-Regular" font-size="30.0" fill="#000000" transform="matrix(1.00, 0.00, -0.00, -1.00, 554.7, 475.0)">e</text><text xml:space="preserve" font-family="ProximaNova-Regular" font-size="30.0" fill="#000000" transform="matrix(1.00, 0.00, -0.00, -1.00, 571.6, 475.0)">n</text><text xml:space="preserve" font-family="ProximaNova-Regular" font-size="30.0" fill="#000000" transform="matrix(1.00, 0.00, -0.00, -1.00, 588.2, 475.0)">s</text><text xml:space="preserve" font-family="ProximaNova-Regular" font-size="30.0" fill="#000000" transform="matrix(1.00, 0.00, -0.00, -1.00, 602.1, 475.0)"> </text><text xml:space="preserve" font-family="ProximaNova-Regular" font-size="30.0" fill="#000000" transform="matrix(1.00, 0.00, -0.00, -1.00, 609.9, 475.0)">i</text><text xml:space="preserve" font-family="ProximaNova-Regular" font-size="30.0" fill="#000000" transform="matrix(1.00, 0.00, -0.00, -1.00, 616.6, 475.0)">f</text><text xml:space="preserve" font-family="ProximaNova-Regular" font-size="30.0" fill="#000000" transform="matrix(1.00, 0.00, -0.00, -1.00, 625.2, 475.0)"> </text><text xml:space="preserve" font-family="ProximaNova-Regular" font-size="30.0" fill="#000000" transform="matrix(1.00, 0.00, -0.00, -1.00, 632.9, 475.0)">w</text><text xml:space="preserve" font-family="ProximaNova-Regular" font-size="30.0" fill="#000000" transform="matrix(1.00, 0.00, -0.00, -1.00, 655.0, 475.0)">e</text><text xml:space="preserve" font-family="ProximaNova-Regular" font-size="30.0" fill="#000000" transform="matrix(1.00, 0.00, -0.00, -1.00, 671.8, 475.0)"> </text><text xml:space="preserve" font-family="ProximaNova-Regular" font-size="30.0" fill="#000000" transform="matrix(1.00, 0.00, -0.00, -1.00, 679.6, 475.0)">d</text><text xml:space="preserve" font-family="ProximaNova-Regular" font-size="30.0" fill="#000000" transform="matrix(1.00, 0.00, -0.00, -1.00, 696.9, 475.0)">o</text><text xml:space="preserve" font-family="ProximaNova-Regular" font-size="30.0" fill="#000000" transform="matrix(1.00, 0.00, -0.00, -1.00, 714.0, 475.0)">:</text><text xml:space="preserve" font-family="ProximaNova-Regular" font-size="30.0" fill="#000000" transform="matrix(1.00, 0.00, -0.00, -1.00, 404.0, 129.0)">w</text><text xml:space="preserve" font-family="ProximaNova-Regular" font-size="30.0" fill="#000000" transform="matrix(1.00, 0.00, -0.00, -1.00, 426.0, 129.0)">i</text><text xml:space="preserve" font-family="ProximaNova-Regular" font-size="30.0" fill="#000000" transform="matrix(1.00, 0.00, -0.00, -1.00, 432.8, 129.0)">t</text><text xml:space="preserve" font-family="ProximaNova-Regular" font-size="30.0" fill="#000000" transform="matrix(1.00, 0.00, -0.00, -1.00, 441.6, 129.0)">h</text><text xml:space="preserve" font-family="ProximaNova-Regular" font-size="30.0" fill="#000000" transform="matrix(1.00, 0.00, -0.00, -1.00, 458.1, 129.0)">o</text><text xml:space="preserve" font-family="ProximaNova-Regular" font-size="30.0" fill="#000000" transform="matrix(1.00, 0.00, -0.00, -1.00, 475.3, 129.0)">u</text><text xml:space="preserve" font-family="ProximaNova-Regular" font-size="30.0" fill="#000000" transform="matrix(1.00, 0.00, -0.00, -1.00, 491.8, 129.0)">t</text><text xml:space="preserve" font-family="ProximaNova-Regular" font-size="30.0" fill="#000000" transform="matrix(1.00, 0.00, -0.00, -1.00, 500.7, 129.0)"> </text><text xml:space="preserve" font-family="ProximaNova-Regular" font-size="30.0" fill="#000000" transform="matrix(1.00, 0.00, -0.00, -1.00, 508.4, 129.0)">t</text><text xml:space="preserve" font-family="ProximaNova-Regular" font-size="30.0" fill="#000000" transform="matrix(1.00, 0.00, -0.00, -1.00, 517.2, 129.0)">h</text><text xml:space="preserve" font-family="ProximaNova-Regular" font-size="30.0" fill="#000000" transform="matrix(1.00, 0.00, -0.00, -1.00, 533.8, 129.0)">e</text><text xml:space="preserve" font-family="ProximaNova-Regular" font-size="30.0" fill="#000000" transform="matrix(1.00, 0.00, -0.00, -1.00, 550.7, 129.0)"> </text><text xml:space="preserve" font-family="ProximaNova-Regular" font-size="30.0" fill="#000000" transform="matrix(1.00, 0.00, -0.00, -1.00, 558.5, 129.0)">“</text><text xml:space="preserve" font-family="ProximaNova-Regular" font-size="30.0" fill="#000000" transform="matrix(1.00, 0.00, -0.00, -1.00, 570.2, 129.0)">M</text><text xml:space="preserve" font-family="ProximaNova-Regular" font-size="30.0" fill="#000000" transform="matrix(1.00, 0.00, -0.00, -1.00, 594.4, 129.0)">A</text><text xml:space="preserve" font-family="ProximaNova-Regular" font-size="30.0" fill="#000000" transform="matrix(1.00, 0.00, -0.00, -1.00, 612.2, 129.0)">T</text><text xml:space="preserve" font-family="ProximaNova-Regular" font-size="30.0" fill="#000000" transform="matrix(1.00, 0.00, -0.00, -1.00, 628.5, 129.0)">C</text><text xml:space="preserve" font-family="ProximaNova-Regular" font-size="30.0" fill="#000000" transform="matrix(1.00, 0.00, -0.00, -1.00, 648.7, 129.0)">H</text><text xml:space="preserve" font-family="ProximaNova-Regular" font-size="30.0" fill="#000000" transform="matrix(1.00, 0.00, -0.00, -1.00, 670.1, 129.0)">”</text></g></svg>