<?xml version="1.0" encoding="UTF-8" standalone="no"?><svg xmlns="http://www.w3.org/2000/svg" xmlns:xlink="http://www.w3.org/1999/xlink" clip-rule="evenodd" stroke-miterlimit="4.00" viewBox="0 0 1024 768"><desc>SVG generated by Keynote</desc><defs></defs><g transform="matrix(1.00, 0.00, -0.00, -1.00, 0.0, 768.0)"><path d="M 0.0 768.0 L 1024.0 768.0 L 1024.0 0.0 L 0.0 0.0 Z M 0.0 768.0 " fill="#FEFFFF"></path><text xml:space="preserve" font-family="ProximaNova-Semibold" font-weight="bold" font-size="60.0" fill="#276AA5" transform="matrix(1.00, 0.00, -0.00, -1.00, 56.0, 662.0)">C</text><text xml:space="preserve" font-family="ProximaNova-Semibold" font-weight="bold" font-size="60.0" fill="#276AA5" transform="matrix(1.00, 0.00, -0.00, -1.00, 94.8, 662.0)">A</text><text xml:space="preserve" font-family="ProximaNova-Semibold" font-weight="bold" font-size="60.0" fill="#276AA5" transform="matrix(1.00, 0.00, -0.00, -1.00, 132.8, 662.0)">S</text><text xml:space="preserve" font-family="ProximaNova-Semibold" font-weight="bold" font-size="60.0" fill="#276AA5" transform="matrix(1.00, 0.00, -0.00, -1.00, 166.6, 662.0)">E</text><text xml:space="preserve" font-family="ProximaNova-Semibold" font-weight="bold" font-size="60.0" fill="#276AA5" transform="matrix(1.00, 0.00, -0.00, -1.00, 199.5, 662.0)">/</text><text xml:space="preserve" font-family="ProximaNova-Semibold" font-weight="bold" font-size="60.0" fill="#276AA5" transform="matrix(1.00, 0.00, -0.00, -1.00, 216.6, 662.0)">W</text><text xml:space="preserve" font-family="ProximaNova-Semibold" font-weight="bold" font-size="60.0" fill="#276AA5" transform="matrix(1.00, 0.00, -0.00, -1.00, 268.9, 662.0)">H</text><text xml:space="preserve" font-family="ProximaNova-Semibold" font-weight="bold" font-size="60.0" fill="#276AA5" transform="matrix(1.00, 0.00, -0.00, -1.00, 310.5, 662.0)">E</text><text xml:space="preserve" font-family="ProximaNova-Semibold" font-weight="bold" font-size="60.0" fill="#276AA5" transform="matrix(1.00, 0.00, -0.00, -1.00, 343.3, 662.0)">N</text><text xml:space="preserve" font-family="ProximaNova-Regular" font-size="30.0" fill="#000000" transform="matrix(1.00, 0.00, -0.00, -1.00, 52.0, 566.0)">C</text><text xml:space="preserve" font-family="ProximaNova-Regular" font-size="30.0" fill="#000000" transform="matrix(1.00, 0.00, -0.00, -1.00, 72.3, 566.0)">a</text><text xml:space="preserve" font-family="ProximaNova-Regular" font-size="30.0" fill="#000000" transform="matrix(1.00, 0.00, -0.00, -1.00, 88.1, 566.0)">s</text><text xml:space="preserve" font-family="ProximaNova-Regular" font-size="30.0" fill="#000000" transform="matrix(1.00, 0.00, -0.00, -1.00, 102.1, 566.0)">e</text><text xml:space="preserve" font-family="ProximaNova-Regular" font-size="30.0" fill="#000000" transform="matrix(1.00, 0.00, -0.00, -1.00, 119.0, 566.0)"> </text><text xml:space="preserve" font-family="ProximaNova-Regular" font-size="30.0" fill="#000000" transform="matrix(1.00, 0.00, -0.00, -1.00, 126.7, 566.0)">w</text><text xml:space="preserve" font-family="ProximaNova-Regular" font-size="30.0" fill="#000000" transform="matrix(1.00, 0.00, -0.00, -1.00, 148.8, 566.0)">o</text><text xml:space="preserve" font-family="ProximaNova-Regular" font-size="30.0" fill="#000000" transform="matrix(1.00, 0.00, -0.00, -1.00, 165.9, 566.0)">r</text><text xml:space="preserve" font-family="ProximaNova-Regular" font-size="30.0" fill="#000000" transform="matrix(1.00, 0.00, -0.00, -1.00, 175.8, 566.0)">k</text><text xml:space="preserve" font-family="ProximaNova-Regular" font-size="30.0" fill="#000000" transform="matrix(1.00, 0.00, -0.00, -1.00, 191.2, 566.0)">s</text><text xml:space="preserve" font-family="ProximaNova-Regular" font-size="30.0" fill="#000000" transform="matrix(1.00, 0.00, -0.00, -1.00, 205.2, 566.0)"> </text><text xml:space="preserve" font-family="ProximaNova-Regular" font-size="30.0" fill="#000000" transform="matrix(1.00, 0.00, -0.00, -1.00, 212.9, 566.0)">j</text><text xml:space="preserve" font-family="ProximaNova-Regular" font-size="30.0" fill="#000000" transform="matrix(1.00, 0.00, -0.00, -1.00, 219.7, 566.0)">u</text><text xml:space="preserve" font-family="ProximaNova-Regular" font-size="30.0" fill="#000000" transform="matrix(1.00, 0.00, -0.00, -1.00, 236.2, 566.0)">s</text><text xml:space="preserve" font-family="ProximaNova-Regular" font-size="30.0" fill="#000000" transform="matrix(1.00, 0.00, -0.00, -1.00, 250.2, 566.0)">t</text><text xml:space="preserve" font-family="ProximaNova-Regular" font-size="30.0" fill="#000000" transform="matrix(1.00, 0.00, -0.00, -1.00, 259.0, 566.0)"> </text><text xml:space="preserve" font-family="ProximaNova-Regular" font-size="30.0" fill="#000000" transform="matrix(1.00, 0.00, -0.00, -1.00, 266.8, 566.0)">l</text><text xml:space="preserve" font-family="ProximaNova-Regular" font-size="30.0" fill="#000000" transform="matrix(1.00, 0.00, -0.00, -1.00, 273.5, 566.0)">i</text><text xml:space="preserve" font-family="ProximaNova-Regular" font-size="30.0" fill="#000000" transform="matrix(1.00, 0.00, -0.00, -1.00, 280.3, 566.0)">k</text><text xml:space="preserve" font-family="ProximaNova-Regular" font-size="30.0" fill="#000000" transform="matrix(1.00, 0.00, -0.00, -1.00, 295.6, 566.0)">e</text><text xml:space="preserve" font-family="ProximaNova-Regular" font-size="30.0" fill="#000000" transform="matrix(1.00, 0.00, -0.00, -1.00, 312.5, 566.0)"> </text><text xml:space="preserve" font-family="ProximaNova-Regular" font-size="30.0" fill="#000000" transform="matrix(1.00, 0.00, -0.00, -1.00, 320.3, 566.0)">i</text><text xml:space="preserve" font-family="ProximaNova-Regular" font-size="30.0" fill="#000000" transform="matrix(1.00, 0.00, -0.00, -1.00, 327.0, 566.0)">n</text><text xml:space="preserve" font-family="ProximaNova-Regular" font-size="30.0" fill="#000000" transform="matrix(1.00, 0.00, -0.00, -1.00, 343.6, 566.0)"> </text><text xml:space="preserve" font-family="ProximaNova-Regular" font-size="30.0" fill="#000000" transform="matrix(1.00, 0.00, -0.00, -1.00, 351.3, 566.0)">S</text><text xml:space="preserve" font-family="ProximaNova-Regular" font-size="30.0" fill="#000000" transform="matrix(1.00, 0.00, -0.00, -1.00, 368.9, 566.0)">Q</text><text xml:space="preserve" font-family="ProximaNova-Regular" font-size="30.0" fill="#000000" transform="matrix(1.00, 0.00, -0.00, -1.00, 391.9, 566.0)">L</text><text xml:space="preserve" font-family="CourierNewPS-BoldMT" font-weight="bold" font-size="30.0" fill="#164E86" transform="matrix(1.00, 0.00, -0.00, -1.00, 338.0, 414.0)">C</text><text xml:space="preserve" font-family="CourierNewPS-BoldMT" font-weight="bold" font-size="30.0" fill="#164E86" transform="matrix(1.00, 0.00, -0.00, -1.00, 356.0, 414.0)">A</text><text xml:space="preserve" font-family="CourierNewPS-BoldMT" font-weight="bold" font-size="30.0" fill="#164E86" transform="matrix(1.00, 0.00, -0.00, -1.00, 374.0, 414.0)">S</text><text xml:space="preserve" font-family="CourierNewPS-BoldMT" font-weight="bold" font-size="30.0" fill="#164E86" transform="matrix(1.00, 0.00, -0.00, -1.00, 392.0, 414.0)">E</text><text xml:space="preserve" font-family="CourierNewPS-BoldMT" font-weight="bold" font-size="30.0" fill="#164E86" transform="matrix(1.00, 0.00, -0.00, -1.00, 410.0, 414.0)"> </text><text xml:space="preserve" font-family="CourierNewPS-BoldMT" font-weight="bold" font-size="30.0" fill="#164E86" transform="matrix(1.00, 0.00, -0.00, -1.00, 374.0, 360.0)">W</text><text xml:space="preserve" font-family="CourierNewPS-BoldMT" font-weight="bold" font-size="30.0" fill="#164E86" transform="matrix(1.00, 0.00, -0.00, -1.00, 392.0, 360.0)">H</text><text xml:space="preserve" font-family="CourierNewPS-BoldMT" font-weight="bold" font-size="30.0" fill="#164E86" transform="matrix(1.00, 0.00, -0.00, -1.00, 410.0, 360.0)">E</text><text xml:space="preserve" font-family="CourierNewPS-BoldMT" font-weight="bold" font-size="30.0" fill="#164E86" transform="matrix(1.00, 0.00, -0.00, -1.00, 428.0, 360.0)">N</text><text xml:space="preserve" font-family="CourierNewPS-BoldMT" font-weight="bold" font-size="30.0" fill="#164E86" transform="matrix(1.00, 0.00, -0.00, -1.00, 446.0, 360.0)"> </text><text xml:space="preserve" font-family="CourierNewPS-BoldMT" font-weight="bold" font-size="30.0" fill="#164E86" transform="matrix(1.00, 0.00, -0.00, -1.00, 464.0, 360.0)">l</text><text xml:space="preserve" font-family="CourierNewPS-BoldMT" font-weight="bold" font-size="30.0" fill="#164E86" transform="matrix(1.00, 0.00, -0.00, -1.00, 482.0, 360.0)">i</text><text xml:space="preserve" font-family="CourierNewPS-BoldMT" font-weight="bold" font-size="30.0" fill="#164E86" transform="matrix(1.00, 0.00, -0.00, -1.00, 500.0, 360.0)">n</text><text xml:space="preserve" font-family="CourierNewPS-BoldMT" font-weight="bold" font-size="30.0" fill="#164E86" transform="matrix(1.00, 0.00, -0.00, -1.00, 518.0, 360.0)">e</text><text xml:space="preserve" font-family="CourierNewPS-BoldMT" font-weight="bold" font-size="30.0" fill="#164E86" transform="matrix(1.00, 0.00, -0.00, -1.00, 536.1, 360.0)">.</text><text xml:space="preserve" font-family="CourierNewPS-BoldMT" font-weight="bold" font-size="30.0" fill="#164E86" transform="matrix(1.00, 0.00, -0.00, -1.00, 554.1, 360.0)">P</text><text xml:space="preserve" font-family="CourierNewPS-BoldMT" font-weight="bold" font-size="30.0" fill="#164E86" transform="matrix(1.00, 0.00, -0.00, -1.00, 572.1, 360.0)">A</text><text xml:space="preserve" font-family="CourierNewPS-BoldMT" font-weight="bold" font-size="30.0" fill="#164E86" transform="matrix(1.00, 0.00, -0.00, -1.00, 590.1, 360.0)">I</text><text xml:space="preserve" font-family="CourierNewPS-BoldMT" font-weight="bold" font-size="30.0" fill="#164E86" transform="matrix(1.00, 0.00, -0.00, -1.00, 608.1, 360.0)">S</text><text xml:space="preserve" font-family="CourierNewPS-BoldMT" font-weight="bold" font-size="30.0" fill="#164E86" transform="matrix(1.00, 0.00, -0.00, -1.00, 626.1, 360.0)"> </text><text xml:space="preserve" font-family="CourierNewPS-BoldMT" font-weight="bold" font-size="30.0" fill="#164E86" transform="matrix(1.00, 0.00, -0.00, -1.00, 644.1, 360.0)">&lt;</text><text xml:space="preserve" font-family="CourierNewPS-BoldMT" font-weight="bold" font-size="30.0" fill="#164E86" transform="matrix(1.00, 0.00, -0.00, -1.00, 662.1, 360.0)">&gt;</text><text xml:space="preserve" font-family="CourierNewPS-BoldMT" font-weight="bold" font-size="30.0" fill="#164E86" transform="matrix(1.00, 0.00, -0.00, -1.00, 680.1, 360.0)"> </text><text xml:space="preserve" font-family="CourierNewPS-BoldMT" font-weight="bold" font-size="30.0" fill="#164E86" transform="matrix(1.00, 0.00, -0.00, -1.00, 698.1, 360.0)">“</text><text xml:space="preserve" font-family="CourierNewPS-BoldMT" font-weight="bold" font-size="30.0" fill="#164E86" transform="matrix(1.00, 0.00, -0.00, -1.00, 716.1, 360.0)">”</text><text xml:space="preserve" font-family="CourierNewPS-BoldMT" font-weight="bold" font-size="30.0" fill="#164E86" transform="matrix(1.00, 0.00, -0.00, -1.00, 734.1, 360.0)"> </text><text xml:space="preserve" font-family="CourierNewPS-BoldMT" font-weight="bold" font-size="30.0" fill="#164E86" transform="matrix(1.00, 0.00, -0.00, -1.00, 752.1, 360.0)">T</text><text xml:space="preserve" font-family="CourierNewPS-BoldMT" font-weight="bold" font-size="30.0" fill="#164E86" transform="matrix(1.00, 0.00, -0.00, -1.00, 770.1, 360.0)">H</text><text xml:space="preserve" font-family="CourierNewPS-BoldMT" font-weight="bold" font-size="30.0" fill="#164E86" transform="matrix(1.00, 0.00, -0.00, -1.00, 788.1, 360.0)">E</text><text xml:space="preserve" font-family="CourierNewPS-BoldMT" font-weight="bold" font-size="30.0" fill="#164E86" transform="matrix(1.00, 0.00, -0.00, -1.00, 806.1, 360.0)">N</text><text xml:space="preserve" font-family="CourierNewPS-BoldMT" font-weight="bold" font-size="30.0" fill="#164E86" transform="matrix(1.00, 0.00, -0.00, -1.00, 824.1, 360.0)"> </text><text xml:space="preserve" font-family="CourierNewPS-BoldMT" font-weight="bold" font-size="30.0" fill="#164E86" transform="matrix(1.00, 0.00, -0.00, -1.00, 842.1, 360.0)">[</text><text xml:space="preserve" font-family="CourierNewPS-BoldMT" font-weight="bold" font-size="30.0" fill="#164E86" transform="matrix(1.00, 0.00, -0.00, -1.00, 860.1, 360.0)">1</text><text xml:space="preserve" font-family="CourierNewPS-BoldMT" font-weight="bold" font-size="30.0" fill="#164E86" transform="matrix(1.00, 0.00, -0.00, -1.00, 878.1, 360.0)">]</text><text xml:space="preserve" font-family="CourierNewPS-BoldMT" font-weight="bold" font-size="30.0" fill="#164E86" transform="matrix(1.00, 0.00, -0.00, -1.00, 896.1, 360.0)"> </text><text xml:space="preserve" font-family="CourierNewPS-BoldMT" font-weight="bold" font-size="30.0" fill="#164E86" transform="matrix(1.00, 0.00, -0.00, -1.00, 914.1, 360.0)"> </text><text xml:space="preserve" font-family="CourierNewPS-BoldMT" font-weight="bold" font-size="30.0" fill="#164E86" transform="matrix(1.00, 0.00, -0.00, -1.00, 374.0, 306.0)">E</text><text xml:space="preserve" font-family="CourierNewPS-BoldMT" font-weight="bold" font-size="30.0" fill="#164E86" transform="matrix(1.00, 0.00, -0.00, -1.00, 392.0, 306.0)">L</text><text xml:space="preserve" font-family="CourierNewPS-BoldMT" font-weight="bold" font-size="30.0" fill="#164E86" transform="matrix(1.00, 0.00, -0.00, -1.00, 410.0, 306.0)">S</text><text xml:space="preserve" font-family="CourierNewPS-BoldMT" font-weight="bold" font-size="30.0" fill="#164E86" transform="matrix(1.00, 0.00, -0.00, -1.00, 428.0, 306.0)">E</text><text xml:space="preserve" font-family="CourierNewPS-BoldMT" font-weight="bold" font-size="30.0" fill="#164E86" transform="matrix(1.00, 0.00, -0.00, -1.00, 446.0, 306.0)"> </text><text xml:space="preserve" font-family="CourierNewPS-BoldMT" font-weight="bold" font-size="30.0" fill="#164E86" transform="matrix(1.00, 0.00, -0.00, -1.00, 464.0, 306.0)">[</text><text xml:space="preserve" font-family="CourierNewPS-BoldMT" font-weight="bold" font-size="30.0" fill="#164E86" transform="matrix(1.00, 0.00, -0.00, -1.00, 482.0, 306.0)">]</text><text xml:space="preserve" font-family="CourierNewPS-BoldMT" font-weight="bold" font-size="30.0" fill="#164E86" transform="matrix(1.00, 0.00, -0.00, -1.00, 500.0, 306.0)"> </text><text xml:space="preserve" font-family="CourierNewPS-BoldMT" font-weight="bold" font-size="30.0" fill="#164E86" transform="matrix(1.00, 0.00, -0.00, -1.00, 338.0, 252.0)">E</text><text xml:space="preserve" font-family="CourierNewPS-BoldMT" font-weight="bold" font-size="30.0" fill="#164E86" transform="matrix(1.00, 0.00, -0.00, -1.00, 356.0, 252.0)">N</text><text xml:space="preserve" font-family="CourierNewPS-BoldMT" font-weight="bold" font-size="30.0" fill="#164E86" transform="matrix(1.00, 0.00, -0.00, -1.00, 374.0, 252.0)">D</text></g></svg>