<?xml version="1.0" encoding="UTF-8" standalone="no"?><svg xmlns="http://www.w3.org/2000/svg" xmlns:xlink="http://www.w3.org/1999/xlink" clip-rule="evenodd" stroke-miterlimit="4.00" viewBox="0 0 1024 768"><desc>SVG generated by Keynote</desc><defs></defs><g transform="matrix(1.00, 0.00, -0.00, -1.00, 0.0, 768.0)"><path d="M 0.0 768.0 L 1024.0 768.0 L 1024.0 0.0 L 0.0 0.0 Z M 0.0 768.0 " fill="#FEFFFF"></path><text xml:space="preserve" font-family="ProximaNova-Semibold" font-weight="bold" font-size="60.0" fill="#276AA5" transform="matrix(1.00, 0.00, -0.00, -1.00, 56.0, 662.0)">T</text><text xml:space="preserve" font-family="ProximaNova-Semibold" font-weight="bold" font-size="60.0" fill="#276AA5" transform="matrix(1.00, 0.00, -0.00, -1.00, 88.8, 662.0)">h</text><text xml:space="preserve" font-family="ProximaNova-Semibold" font-weight="bold" font-size="60.0" fill="#276AA5" transform="matrix(1.00, 0.00, -0.00, -1.00, 121.1, 662.0)">e</text><text xml:space="preserve" font-family="ProximaNova-Semibold" font-weight="bold" font-size="60.0" fill="#276AA5" transform="matrix(1.00, 0.00, -0.00, -1.00, 152.7, 662.0)"> </text><text xml:space="preserve" font-family="ProximaNova-Semibold" font-weight="bold" font-size="60.0" fill="#276AA5" transform="matrix(1.00, 0.00, -0.00, -1.00, 166.4, 662.0)">R</text><text xml:space="preserve" font-family="ProximaNova-Semibold" font-weight="bold" font-size="60.0" fill="#276AA5" transform="matrix(1.00, 0.00, -0.00, -1.00, 202.3, 662.0)">E</text><text xml:space="preserve" font-family="ProximaNova-Semibold" font-weight="bold" font-size="60.0" fill="#276AA5" transform="matrix(1.00, 0.00, -0.00, -1.00, 235.2, 662.0)">T</text><text xml:space="preserve" font-family="ProximaNova-Semibold" font-weight="bold" font-size="60.0" fill="#276AA5" transform="matrix(1.00, 0.00, -0.00, -1.00, 268.0, 662.0)">U</text><text xml:space="preserve" font-family="ProximaNova-Semibold" font-weight="bold" font-size="60.0" fill="#276AA5" transform="matrix(1.00, 0.00, -0.00, -1.00, 309.4, 662.0)">R</text><text xml:space="preserve" font-family="ProximaNova-Semibold" font-weight="bold" font-size="60.0" fill="#276AA5" transform="matrix(1.00, 0.00, -0.00, -1.00, 345.3, 662.0)">N</text><text xml:space="preserve" font-family="ProximaNova-Semibold" font-weight="bold" font-size="60.0" fill="#276AA5" transform="matrix(1.00, 0.00, -0.00, -1.00, 386.7, 662.0)"> </text><text xml:space="preserve" font-family="ProximaNova-Semibold" font-weight="bold" font-size="60.0" fill="#276AA5" transform="matrix(1.00, 0.00, -0.00, -1.00, 400.4, 662.0)">k</text><text xml:space="preserve" font-family="ProximaNova-Semibold" font-weight="bold" font-size="60.0" fill="#276AA5" transform="matrix(1.00, 0.00, -0.00, -1.00, 429.9, 662.0)">e</text><text xml:space="preserve" font-family="ProximaNova-Semibold" font-weight="bold" font-size="60.0" fill="#276AA5" transform="matrix(1.00, 0.00, -0.00, -1.00, 461.5, 662.0)">y</text><text xml:space="preserve" font-family="ProximaNova-Semibold" font-weight="bold" font-size="60.0" fill="#276AA5" transform="matrix(1.00, 0.00, -0.00, -1.00, 489.9, 662.0)">w</text><text xml:space="preserve" font-family="ProximaNova-Semibold" font-weight="bold" font-size="60.0" fill="#276AA5" transform="matrix(1.00, 0.00, -0.00, -1.00, 533.4, 662.0)">o</text><text xml:space="preserve" font-family="ProximaNova-Semibold" font-weight="bold" font-size="60.0" fill="#276AA5" transform="matrix(1.00, 0.00, -0.00, -1.00, 566.1, 662.0)">r</text><text xml:space="preserve" font-family="ProximaNova-Semibold" font-weight="bold" font-size="60.0" fill="#276AA5" transform="matrix(1.00, 0.00, -0.00, -1.00, 585.1, 662.0)">d</text><text xml:space="preserve" font-family="ProximaNova-Regular" font-size="30.0" fill="#000000" transform="matrix(1.00, 0.00, -0.00, -1.00, 52.0, 566.0)">W</text><text xml:space="preserve" font-family="ProximaNova-Regular" font-size="30.0" fill="#000000" transform="matrix(1.00, 0.00, -0.00, -1.00, 78.5, 566.0)">h</text><text xml:space="preserve" font-family="ProximaNova-Regular" font-size="30.0" fill="#000000" transform="matrix(1.00, 0.00, -0.00, -1.00, 95.0, 566.0)">a</text><text xml:space="preserve" font-family="ProximaNova-Regular" font-size="30.0" fill="#000000" transform="matrix(1.00, 0.00, -0.00, -1.00, 110.9, 566.0)">t</text><text xml:space="preserve" font-family="ProximaNova-Regular" font-size="30.0" fill="#000000" transform="matrix(1.00, 0.00, -0.00, -1.00, 119.7, 566.0)"> </text><text xml:space="preserve" font-family="ProximaNova-Regular" font-size="30.0" fill="#000000" transform="matrix(1.00, 0.00, -0.00, -1.00, 127.5, 566.0)">c</text><text xml:space="preserve" font-family="ProximaNova-Regular" font-size="30.0" fill="#000000" transform="matrix(1.00, 0.00, -0.00, -1.00, 142.4, 566.0)">a</text><text xml:space="preserve" font-family="ProximaNova-Regular" font-size="30.0" fill="#000000" transform="matrix(1.00, 0.00, -0.00, -1.00, 158.2, 566.0)">n</text><text xml:space="preserve" font-family="ProximaNova-Regular" font-size="30.0" fill="#000000" transform="matrix(1.00, 0.00, -0.00, -1.00, 174.8, 566.0)"> </text><text xml:space="preserve" font-family="ProximaNova-Regular" font-size="30.0" fill="#000000" transform="matrix(1.00, 0.00, -0.00, -1.00, 182.5, 566.0)">w</text><text xml:space="preserve" font-family="ProximaNova-Regular" font-size="30.0" fill="#000000" transform="matrix(1.00, 0.00, -0.00, -1.00, 204.6, 566.0)">e</text><text xml:space="preserve" font-family="ProximaNova-Regular" font-size="30.0" fill="#000000" transform="matrix(1.00, 0.00, -0.00, -1.00, 221.4, 566.0)"> </text><text xml:space="preserve" font-family="ProximaNova-Regular" font-size="30.0" fill="#000000" transform="matrix(1.00, 0.00, -0.00, -1.00, 229.2, 566.0)">r</text><text xml:space="preserve" font-family="ProximaNova-Regular" font-size="30.0" fill="#000000" transform="matrix(1.00, 0.00, -0.00, -1.00, 239.1, 566.0)">e</text><text xml:space="preserve" font-family="ProximaNova-Regular" font-size="30.0" fill="#000000" transform="matrix(1.00, 0.00, -0.00, -1.00, 256.0, 566.0)">t</text><text xml:space="preserve" font-family="ProximaNova-Regular" font-size="30.0" fill="#000000" transform="matrix(1.00, 0.00, -0.00, -1.00, 264.8, 566.0)">u</text><text xml:space="preserve" font-family="ProximaNova-Regular" font-size="30.0" fill="#000000" transform="matrix(1.00, 0.00, -0.00, -1.00, 281.4, 566.0)">r</text><text xml:space="preserve" font-family="ProximaNova-Regular" font-size="30.0" fill="#000000" transform="matrix(1.00, 0.00, -0.00, -1.00, 291.2, 566.0)">n</text><text xml:space="preserve" font-family="ProximaNova-Regular" font-size="30.0" fill="#000000" transform="matrix(1.00, 0.00, -0.00, -1.00, 306.7, 566.0)">?</text><text xml:space="preserve" font-family="ProximaNova-Regular" font-size="30.0" fill="#000000" transform="matrix(1.00, 0.00, -0.00, -1.00, 320.6, 566.0)"> </text><text xml:space="preserve" font-family="Courier-Bold" font-weight="bold" font-size="33.0" fill="#164E86" transform="matrix(1.00, 0.00, -0.00, -1.00, 52.0, 508.0)">M</text><text xml:space="preserve" font-family="Courier-Bold" font-weight="bold" font-size="33.0" fill="#164E86" transform="matrix(1.00, 0.00, -0.00, -1.00, 71.8, 508.0)">A</text><text xml:space="preserve" font-family="Courier-Bold" font-weight="bold" font-size="33.0" fill="#164E86" transform="matrix(1.00, 0.00, -0.00, -1.00, 91.6, 508.0)">T</text><text xml:space="preserve" font-family="Courier-Bold" font-weight="bold" font-size="33.0" fill="#164E86" transform="matrix(1.00, 0.00, -0.00, -1.00, 111.4, 508.0)">C</text><text xml:space="preserve" font-family="Courier-Bold" font-weight="bold" font-size="33.0" fill="#164E86" transform="matrix(1.00, 0.00, -0.00, -1.00, 131.2, 508.0)">H</text><text xml:space="preserve" font-family="Courier-Bold" font-weight="bold" font-size="33.0" fill="#164E86" transform="matrix(1.00, 0.00, -0.00, -1.00, 151.0, 508.0)"> </text><text xml:space="preserve" font-family="Courier-Bold" font-weight="bold" font-size="33.0" fill="#164E86" transform="matrix(1.00, 0.00, -0.00, -1.00, 170.8, 508.0)">(</text><text xml:space="preserve" font-family="Courier-Bold" font-weight="bold" font-size="33.0" fill="#164E86" transform="matrix(1.00, 0.00, -0.00, -1.00, 190.6, 508.0)">a</text><text xml:space="preserve" font-family="Courier-Bold" font-weight="bold" font-size="33.0" fill="#164E86" transform="matrix(1.00, 0.00, -0.00, -1.00, 210.5, 508.0)">)</text><text xml:space="preserve" font-family="Courier-Bold" font-weight="bold" font-size="33.0" fill="#164E86" transform="matrix(1.00, 0.00, -0.00, -1.00, 230.3, 508.0)">-</text><text xml:space="preserve" font-family="Courier-Bold" font-weight="bold" font-size="3.0" fill="#164E86" transform="matrix(1.00, 0.00, -0.00, -1.00, 250.0, 508.0)"> </text><text xml:space="preserve" font-family="Courier-Bold" font-weight="bold" font-size="33.0" fill="#164E86" transform="matrix(1.00, 0.00, -0.00, -1.00, 251.8, 508.0)">-</text><text xml:space="preserve" font-family="Courier-Bold" font-weight="bold" font-size="33.0" fill="#164E86" transform="matrix(1.00, 0.00, -0.00, -1.00, 271.6, 508.0)">(</text><text xml:space="preserve" font-family="Courier-Bold" font-weight="bold" font-size="33.0" fill="#164E86" transform="matrix(1.00, 0.00, -0.00, -1.00, 291.4, 508.0)">b</text><text xml:space="preserve" font-family="Courier-Bold" font-weight="bold" font-size="33.0" fill="#164E86" transform="matrix(1.00, 0.00, -0.00, -1.00, 311.3, 508.0)">)</text><g><clipPath id="clip-129768"><path d="M 52.4 399.6 L 58.4 399.6 L 58.4 405.6 L 52.4 405.6 Z M 52.4 399.6 "></path></clipPath><g clip-path="url(#clip-129768)"><path d="M 55.4 399.6 C 53.8 399.6 52.4 400.9 52.4 402.6 C 52.4 404.2 53.8 405.6 55.4 405.6 C 57.1 405.6 58.4 404.2 58.4 402.6 C 58.4 400.9 57.1 399.6 55.4 399.6 M 55.4 404.6 C 54.3 404.6 53.4 403.7 53.4 402.6 C 53.4 401.4 54.3 400.5 55.4 400.5 C 56.6 400.5 57.5 401.4 57.5 402.6 C 57.5 403.7 56.6 404.6 55.4 404.6 Z M 55.4 404.6 " fill="#000000"></path></g></g><text xml:space="preserve" font-family="ProximaNova-Regular" font-size="30.0" fill="#000000" transform="matrix(1.00, 0.00, -0.00, -1.00, 92.0, 394.0)">I</text><text xml:space="preserve" font-family="ProximaNova-Regular" font-size="30.0" fill="#000000" transform="matrix(1.00, 0.00, -0.00, -1.00, 99.2, 394.0)">d</text><text xml:space="preserve" font-family="ProximaNova-Regular" font-size="30.0" fill="#000000" transform="matrix(1.00, 0.00, -0.00, -1.00, 116.4, 394.0)">e</text><text xml:space="preserve" font-family="ProximaNova-Regular" font-size="30.0" fill="#000000" transform="matrix(1.00, 0.00, -0.00, -1.00, 133.3, 394.0)">n</text><text xml:space="preserve" font-family="ProximaNova-Regular" font-size="30.0" fill="#000000" transform="matrix(1.00, 0.00, -0.00, -1.00, 149.9, 394.0)">t</text><text xml:space="preserve" font-family="ProximaNova-Regular" font-size="30.0" fill="#000000" transform="matrix(1.00, 0.00, -0.00, -1.00, 158.7, 394.0)">i</text><text xml:space="preserve" font-family="ProximaNova-Regular" font-size="30.0" fill="#000000" transform="matrix(1.00, 0.00, -0.00, -1.00, 165.4, 394.0)">ï¬</text><text xml:space="preserve" font-family="ProximaNova-Regular" font-size="30.0" fill="#000000" transform="matrix(1.00, 0.00, -0.00, -1.00, 180.7, 394.0)">e</text><text xml:space="preserve" font-family="ProximaNova-Regular" font-size="30.0" fill="#000000" transform="matrix(1.00, 0.00, -0.00, -1.00, 197.6, 394.0)">r</text><text xml:space="preserve" font-family="ProximaNova-Regular" font-size="30.0" fill="#000000" transform="matrix(1.00, 0.00, -0.00, -1.00, 207.5, 394.0)"> </text><image xlink:href="../../146540D4-469B-4476-BF69-BB05C5C42E02/assets/B7D0926207CB33F03FF35B183B733B60.png" width="16.00" height="16.00" transform="matrix(0.94, 0.00, -0.00, -0.94, 102.4, 354.1)"></image><text xml:space="preserve" font-family="Courier-Bold" font-weight="bold" font-size="30.0" fill="#164E86" transform="matrix(1.00, 0.00, -0.00, -1.00, 131.0, 339.0)">R</text><text xml:space="preserve" font-family="Courier-Bold" font-weight="bold" font-size="30.0" fill="#164E86" transform="matrix(1.00, 0.00, -0.00, -1.00, 149.0, 339.0)">E</text><text xml:space="preserve" font-family="Courier-Bold" font-weight="bold" font-size="30.0" fill="#164E86" transform="matrix(1.00, 0.00, -0.00, -1.00, 167.0, 339.0)">T</text><text xml:space="preserve" font-family="Courier-Bold" font-weight="bold" font-size="30.0" fill="#164E86" transform="matrix(1.00, 0.00, -0.00, -1.00, 185.0, 339.0)">U</text><text xml:space="preserve" font-family="Courier-Bold" font-weight="bold" font-size="30.0" fill="#164E86" transform="matrix(1.00, 0.00, -0.00, -1.00, 203.0, 339.0)">R</text><text xml:space="preserve" font-family="Courier-Bold" font-weight="bold" font-size="30.0" fill="#164E86" transform="matrix(1.00, 0.00, -0.00, -1.00, 221.0, 339.0)">N</text><text xml:space="preserve" font-family="Courier-Bold" font-weight="bold" font-size="30.0" fill="#164E86" transform="matrix(1.00, 0.00, -0.00, -1.00, 239.0, 339.0)"> </text><text xml:space="preserve" font-family="Courier-Bold" font-weight="bold" font-size="30.0" fill="#164E86" transform="matrix(1.00, 0.00, -0.00, -1.00, 257.0, 339.0)">p</text><g><clipPath id="clip-129769"><path d="M 52.4 287.6 L 58.4 287.6 L 58.4 293.6 L 52.4 293.6 Z M 52.4 287.6 "></path></clipPath><g clip-path="url(#clip-129769)"><path d="M 55.4 287.6 C 53.8 287.6 52.4 288.9 52.4 290.6 C 52.4 292.2 53.8 293.6 55.4 293.6 C 57.1 293.6 58.4 292.2 58.4 290.6 C 58.4 288.9 57.1 287.6 55.4 287.6 M 55.4 292.6 C 54.3 292.6 53.4 291.7 53.4 290.6 C 53.4 289.4 54.3 288.5 55.4 288.5 C 56.6 288.5 57.5 289.4 57.5 290.6 C 57.5 291.7 56.6 292.6 55.4 292.6 Z M 55.4 292.6 " fill="#000000"></path></g></g><text xml:space="preserve" font-family="ProximaNova-Regular" font-size="30.0" fill="#000000" transform="matrix(1.00, 0.00, -0.00, -1.00, 92.0, 282.0)">A</text><text xml:space="preserve" font-family="ProximaNova-Regular" font-size="30.0" fill="#000000" transform="matrix(1.00, 0.00, -0.00, -1.00, 111.7, 282.0)">g</text><text xml:space="preserve" font-family="ProximaNova-Regular" font-size="30.0" fill="#000000" transform="matrix(1.00, 0.00, -0.00, -1.00, 129.0, 282.0)">g</text><text xml:space="preserve" font-family="ProximaNova-Regular" font-size="30.0" fill="#000000" transform="matrix(1.00, 0.00, -0.00, -1.00, 146.2, 282.0)">r</text><text xml:space="preserve" font-family="ProximaNova-Regular" font-size="30.0" fill="#000000" transform="matrix(1.00, 0.00, -0.00, -1.00, 156.1, 282.0)">e</text><text xml:space="preserve" font-family="ProximaNova-Regular" font-size="30.0" fill="#000000" transform="matrix(1.00, 0.00, -0.00, -1.00, 173.0, 282.0)">g</text><text xml:space="preserve" font-family="ProximaNova-Regular" font-size="30.0" fill="#000000" transform="matrix(1.00, 0.00, -0.00, -1.00, 190.3, 282.0)">a</text><text xml:space="preserve" font-family="ProximaNova-Regular" font-size="30.0" fill="#000000" transform="matrix(1.00, 0.00, -0.00, -1.00, 206.1, 282.0)">t</text><text xml:space="preserve" font-family="ProximaNova-Regular" font-size="30.0" fill="#000000" transform="matrix(1.00, 0.00, -0.00, -1.00, 214.9, 282.0)">i</text><text xml:space="preserve" font-family="ProximaNova-Regular" font-size="30.0" fill="#000000" transform="matrix(1.00, 0.00, -0.00, -1.00, 221.7, 282.0)">o</text><text xml:space="preserve" font-family="ProximaNova-Regular" font-size="30.0" fill="#000000" transform="matrix(1.00, 0.00, -0.00, -1.00, 238.8, 282.0)">n</text><text xml:space="preserve" font-family="ProximaNova-Regular" font-size="30.0" fill="#000000" transform="matrix(1.00, 0.00, -0.00, -1.00, 255.4, 282.0)"> </text><text xml:space="preserve" font-family="ProximaNova-Regular" font-size="30.0" fill="#000000" transform="matrix(1.00, 0.00, -0.00, -1.00, 263.2, 282.0)">F</text><text xml:space="preserve" font-family="ProximaNova-Regular" font-size="30.0" fill="#000000" transform="matrix(1.00, 0.00, -0.00, -1.00, 279.7, 282.0)">u</text><text xml:space="preserve" font-family="ProximaNova-Regular" font-size="30.0" fill="#000000" transform="matrix(1.00, 0.00, -0.00, -1.00, 296.2, 282.0)">n</text><text xml:space="preserve" font-family="ProximaNova-Regular" font-size="30.0" fill="#000000" transform="matrix(1.00, 0.00, -0.00, -1.00, 312.8, 282.0)">c</text><text xml:space="preserve" font-family="ProximaNova-Regular" font-size="30.0" fill="#000000" transform="matrix(1.00, 0.00, -0.00, -1.00, 327.7, 282.0)">t</text><text xml:space="preserve" font-family="ProximaNova-Regular" font-size="30.0" fill="#000000" transform="matrix(1.00, 0.00, -0.00, -1.00, 336.5, 282.0)">i</text><text xml:space="preserve" font-family="ProximaNova-Regular" font-size="30.0" fill="#000000" transform="matrix(1.00, 0.00, -0.00, -1.00, 343.2, 282.0)">o</text><text xml:space="preserve" font-family="ProximaNova-Regular" font-size="30.0" fill="#000000" transform="matrix(1.00, 0.00, -0.00, -1.00, 360.4, 282.0)">n</text><text xml:space="preserve" font-family="ProximaNova-Regular" font-size="30.0" fill="#000000" transform="matrix(1.00, 0.00, -0.00, -1.00, 377.0, 282.0)"> </text><image xlink:href="../../146540D4-469B-4476-BF69-BB05C5C42E02/assets/B7D0926207CB33F03FF35B183B733B60.png" width="16.00" height="16.00" transform="matrix(0.94, 0.00, -0.00, -0.94, 102.4, 242.1)"></image><text xml:space="preserve" font-family="Courier-Bold" font-weight="bold" font-size="30.0" fill="#164E86" transform="matrix(1.00, 0.00, -0.00, -1.00, 131.0, 227.0)">R</text><text xml:space="preserve" font-family="Courier-Bold" font-weight="bold" font-size="30.0" fill="#164E86" transform="matrix(1.00, 0.00, -0.00, -1.00, 149.0, 227.0)">E</text><text xml:space="preserve" font-family="Courier-Bold" font-weight="bold" font-size="30.0" fill="#164E86" transform="matrix(1.00, 0.00, -0.00, -1.00, 167.0, 227.0)">T</text><text xml:space="preserve" font-family="Courier-Bold" font-weight="bold" font-size="30.0" fill="#164E86" transform="matrix(1.00, 0.00, -0.00, -1.00, 185.0, 227.0)">U</text><text xml:space="preserve" font-family="Courier-Bold" font-weight="bold" font-size="30.0" fill="#164E86" transform="matrix(1.00, 0.00, -0.00, -1.00, 203.0, 227.0)">R</text><text xml:space="preserve" font-family="Courier-Bold" font-weight="bold" font-size="30.0" fill="#164E86" transform="matrix(1.00, 0.00, -0.00, -1.00, 221.0, 227.0)">N</text><text xml:space="preserve" font-family="Courier-Bold" font-weight="bold" font-size="30.0" fill="#164E86" transform="matrix(1.00, 0.00, -0.00, -1.00, 239.0, 227.0)"> </text><text xml:space="preserve" font-family="Courier-Bold" font-weight="bold" font-size="30.0" fill="#164E86" transform="matrix(1.00, 0.00, -0.00, -1.00, 257.0, 227.0)">c</text><text xml:space="preserve" font-family="Courier-Bold" font-weight="bold" font-size="30.0" fill="#164E86" transform="matrix(1.00, 0.00, -0.00, -1.00, 275.0, 227.0)">o</text><text xml:space="preserve" font-family="Courier-Bold" font-weight="bold" font-size="30.0" fill="#164E86" transform="matrix(1.00, 0.00, -0.00, -1.00, 293.1, 227.0)">u</text><text xml:space="preserve" font-family="Courier-Bold" font-weight="bold" font-size="30.0" fill="#164E86" transform="matrix(1.00, 0.00, -0.00, -1.00, 311.1, 227.0)">n</text><text xml:space="preserve" font-family="Courier-Bold" font-weight="bold" font-size="30.0" fill="#164E86" transform="matrix(1.00, 0.00, -0.00, -1.00, 329.1, 227.0)">t</text><text xml:space="preserve" font-family="Courier-Bold" font-weight="bold" font-size="30.0" fill="#164E86" transform="matrix(1.00, 0.00, -0.00, -1.00, 347.1, 227.0)">(</text><text xml:space="preserve" font-family="Courier-Bold" font-weight="bold" font-size="30.0" fill="#164E86" transform="matrix(1.00, 0.00, -0.00, -1.00, 365.1, 227.0)">p</text><text xml:space="preserve" font-family="Courier-Bold" font-weight="bold" font-size="30.0" fill="#164E86" transform="matrix(1.00, 0.00, -0.00, -1.00, 383.1, 227.0)">)</text><g><clipPath id="clip-129770"><path d="M 52.4 175.6 L 58.4 175.6 L 58.4 181.6 L 52.4 181.6 Z M 52.4 175.6 "></path></clipPath><g clip-path="url(#clip-129770)"><path d="M 55.4 175.6 C 53.8 175.6 52.4 176.9 52.4 178.6 C 52.4 180.2 53.8 181.6 55.4 181.6 C 57.1 181.6 58.4 180.2 58.4 178.6 C 58.4 176.9 57.1 175.6 55.4 175.6 M 55.4 180.6 C 54.3 180.6 53.4 179.7 53.4 178.6 C 53.4 177.4 54.3 176.5 55.4 176.5 C 56.6 176.5 57.5 177.4 57.5 178.6 C 57.5 179.7 56.6 180.6 55.4 180.6 Z M 55.4 180.6 " fill="#000000"></path></g></g><text xml:space="preserve" font-family="ProximaNova-Regular" font-size="30.0" fill="#000000" transform="matrix(1.00, 0.00, -0.00, -1.00, 92.0, 170.0)">A</text><text xml:space="preserve" font-family="ProximaNova-Regular" font-size="30.0" fill="#000000" transform="matrix(1.00, 0.00, -0.00, -1.00, 111.4, 170.0)">t</text><text xml:space="preserve" font-family="ProximaNova-Regular" font-size="30.0" fill="#000000" transform="matrix(1.00, 0.00, -0.00, -1.00, 120.2, 170.0)">t</text><text xml:space="preserve" font-family="ProximaNova-Regular" font-size="30.0" fill="#000000" transform="matrix(1.00, 0.00, -0.00, -1.00, 129.1, 170.0)">r</text><text xml:space="preserve" font-family="ProximaNova-Regular" font-size="30.0" fill="#000000" transform="matrix(1.00, 0.00, -0.00, -1.00, 138.9, 170.0)">i</text><text xml:space="preserve" font-family="ProximaNova-Regular" font-size="30.0" fill="#000000" transform="matrix(1.00, 0.00, -0.00, -1.00, 145.7, 170.0)">b</text><text xml:space="preserve" font-family="ProximaNova-Regular" font-size="30.0" fill="#000000" transform="matrix(1.00, 0.00, -0.00, -1.00, 162.9, 170.0)">u</text><text xml:space="preserve" font-family="ProximaNova-Regular" font-size="30.0" fill="#000000" transform="matrix(1.00, 0.00, -0.00, -1.00, 179.5, 170.0)">t</text><text xml:space="preserve" font-family="ProximaNova-Regular" font-size="30.0" fill="#000000" transform="matrix(1.00, 0.00, -0.00, -1.00, 188.3, 170.0)">e</text><text xml:space="preserve" font-family="ProximaNova-Regular" font-size="30.0" fill="#000000" transform="matrix(1.00, 0.00, -0.00, -1.00, 205.2, 170.0)">s</text><text xml:space="preserve" font-family="ProximaNova-Regular" font-size="30.0" fill="#000000" transform="matrix(1.00, 0.00, -0.00, -1.00, 219.1, 170.0)"> </text><g><clipPath id="clip-129771"><path d="M 44.2 109.4 L 977.4 109.4 L 977.4 595.6 L 44.2 595.6 Z M 44.2 109.4 "></path></clipPath><g clip-path="url(#clip-129771)"><image xlink:href="../../146540D4-469B-4476-BF69-BB05C5C42E02/assets/B7D0926207CB33F03FF35B183B733B60.png" width="16.00" height="16.00" transform="matrix(0.94, 0.00, -0.00, -0.94, 102.4, 130.1)"></image><text xml:space="preserve" font-family="Courier-Bold" font-weight="bold" font-size="30.0" fill="#164E86" transform="matrix(1.00, 0.00, -0.00, -1.00, 131.0, 115.0)">R</text><text xml:space="preserve" font-family="Courier-Bold" font-weight="bold" font-size="30.0" fill="#164E86" transform="matrix(1.00, 0.00, -0.00, -1.00, 149.0, 115.0)">E</text><text xml:space="preserve" font-family="Courier-Bold" font-weight="bold" font-size="30.0" fill="#164E86" transform="matrix(1.00, 0.00, -0.00, -1.00, 167.0, 115.0)">T</text><text xml:space="preserve" font-family="Courier-Bold" font-weight="bold" font-size="30.0" fill="#164E86" transform="matrix(1.00, 0.00, -0.00, -1.00, 185.0, 115.0)">U</text><text xml:space="preserve" font-family="Courier-Bold" font-weight="bold" font-size="30.0" fill="#164E86" transform="matrix(1.00, 0.00, -0.00, -1.00, 203.0, 115.0)">R</text><text xml:space="preserve" font-family="Courier-Bold" font-weight="bold" font-size="30.0" fill="#164E86" transform="matrix(1.00, 0.00, -0.00, -1.00, 221.0, 115.0)">N</text><text xml:space="preserve" font-family="Courier-Bold" font-weight="bold" font-size="30.0" fill="#164E86" transform="matrix(1.00, 0.00, -0.00, -1.00, 239.0, 115.0)"> </text><text xml:space="preserve" font-family="Courier-Bold" font-weight="bold" font-size="30.0" fill="#164E86" transform="matrix(1.00, 0.00, -0.00, -1.00, 257.0, 115.0)">p</text><text xml:space="preserve" font-family="Courier-Bold" font-weight="bold" font-size="30.0" fill="#164E86" transform="matrix(1.00, 0.00, -0.00, -1.00, 275.0, 115.0)">.</text><text xml:space="preserve" font-family="Courier-Bold" font-weight="bold" font-size="30.0" fill="#164E86" transform="matrix(1.00, 0.00, -0.00, -1.00, 293.1, 115.0)">n</text><text xml:space="preserve" font-family="Courier-Bold" font-weight="bold" font-size="30.0" fill="#164E86" transform="matrix(1.00, 0.00, -0.00, -1.00, 311.1, 115.0)">a</text><text xml:space="preserve" font-family="Courier-Bold" font-weight="bold" font-size="30.0" fill="#164E86" transform="matrix(1.00, 0.00, -0.00, -1.00, 329.1, 115.0)">m</text><text xml:space="preserve" font-family="Courier-Bold" font-weight="bold" font-size="30.0" fill="#164E86" transform="matrix(1.00, 0.00, -0.00, -1.00, 347.1, 115.0)">e</text></g></g></g></svg>