<?xml version="1.0" encoding="UTF-8" standalone="no"?><svg xmlns="http://www.w3.org/2000/svg" xmlns:xlink="http://www.w3.org/1999/xlink" clip-rule="evenodd" stroke-miterlimit="4.00" viewBox="0 0 444 30"><desc>SVG generated by Keynote</desc><defs></defs><g transform="matrix(1.00, 0.00, -0.00, -1.00, 0.0, 30.0)"><g><clipPath id="clip-179266"><path d="M 0.0 14.0 L 6.0 14.0 L 6.0 20.0 L 0.0 20.0 Z M 0.0 14.0 "></path></clipPath><g clip-path="url(#clip-179266)"><path d="M 3.0 14.0 C 1.3 14.0 0.0 15.3 0.0 17.0 C -0.0 18.6 1.3 20.0 3.0 20.0 C 4.6 20.0 6.0 18.6 6.0 17.0 C 6.0 15.3 4.6 14.0 3.0 14.0 M 3.0 19.1 C 1.9 19.1 0.9 18.1 0.9 17.0 C 0.9 15.9 1.9 14.9 3.0 14.9 C 4.1 14.9 5.1 15.9 5.1 17.0 C 5.1 18.1 4.1 19.1 3.0 19.1 Z M 3.0 19.1 " fill="#000000"></path></g></g><text xml:space="preserve" font-family="ProximaNova-Regular" font-size="30.0" fill="#000000" transform="matrix(1.00, 0.00, -0.00, -1.00, 40.0, 8.0)">P</text><text xml:space="preserve" font-family="ProximaNova-Regular" font-size="30.0" fill="#000000" transform="matrix(1.00, 0.00, -0.00, -1.00, 57.6, 8.0)">r</text><text xml:space="preserve" font-family="ProximaNova-Regular" font-size="30.0" fill="#000000" transform="matrix(1.00, 0.00, -0.00, -1.00, 67.5, 8.0)">o</text><text xml:space="preserve" font-family="ProximaNova-Regular" font-size="30.0" fill="#000000" transform="matrix(1.00, 0.00, -0.00, -1.00, 84.7, 8.0)">p</text><text xml:space="preserve" font-family="ProximaNova-Regular" font-size="30.0" fill="#000000" transform="matrix(1.00, 0.00, -0.00, -1.00, 101.8, 8.0)">e</text><text xml:space="preserve" font-family="ProximaNova-Regular" font-size="30.0" fill="#000000" transform="matrix(1.00, 0.00, -0.00, -1.00, 118.7, 8.0)">r</text><text xml:space="preserve" font-family="ProximaNova-Regular" font-size="30.0" fill="#000000" transform="matrix(1.00, 0.00, -0.00, -1.00, 128.6, 8.0)">t</text><text xml:space="preserve" font-family="ProximaNova-Regular" font-size="30.0" fill="#000000" transform="matrix(1.00, 0.00, -0.00, -1.00, 137.4, 8.0)">y</text><text xml:space="preserve" font-family="ProximaNova-Regular" font-size="30.0" fill="#000000" transform="matrix(1.00, 0.00, -0.00, -1.00, 152.1, 8.0)"> </text><text xml:space="preserve" font-family="ProximaNova-Regular" font-size="30.0" fill="#000000" transform="matrix(1.00, 0.00, -0.00, -1.00, 159.9, 8.0)">E</text><text xml:space="preserve" font-family="ProximaNova-Regular" font-size="30.0" fill="#000000" transform="matrix(1.00, 0.00, -0.00, -1.00, 177.0, 8.0)">x</text><text xml:space="preserve" font-family="ProximaNova-Regular" font-size="30.0" fill="#000000" transform="matrix(1.00, 0.00, -0.00, -1.00, 191.6, 8.0)">i</text><text xml:space="preserve" font-family="ProximaNova-Regular" font-size="30.0" fill="#000000" transform="matrix(1.00, 0.00, -0.00, -1.00, 198.3, 8.0)">s</text><text xml:space="preserve" font-family="ProximaNova-Regular" font-size="30.0" fill="#000000" transform="matrix(1.00, 0.00, -0.00, -1.00, 212.3, 8.0)">t</text><text xml:space="preserve" font-family="ProximaNova-Regular" font-size="30.0" fill="#000000" transform="matrix(1.00, 0.00, -0.00, -1.00, 221.1, 8.0)">e</text><text xml:space="preserve" font-family="ProximaNova-Regular" font-size="30.0" fill="#000000" transform="matrix(1.00, 0.00, -0.00, -1.00, 238.0, 8.0)">n</text><text xml:space="preserve" font-family="ProximaNova-Regular" font-size="30.0" fill="#000000" transform="matrix(1.00, 0.00, -0.00, -1.00, 254.6, 8.0)">c</text><text xml:space="preserve" font-family="ProximaNova-Regular" font-size="30.0" fill="#000000" transform="matrix(1.00, 0.00, -0.00, -1.00, 269.4, 8.0)">e</text><text xml:space="preserve" font-family="ProximaNova-Regular" font-size="30.0" fill="#000000" transform="matrix(1.00, 0.00, -0.00, -1.00, 286.3, 8.0)"> </text><text xml:space="preserve" font-family="ProximaNova-Regular" font-size="30.0" fill="#000000" transform="matrix(1.00, 0.00, -0.00, -1.00, 294.1, 8.0)">C</text><text xml:space="preserve" font-family="ProximaNova-Regular" font-size="30.0" fill="#000000" transform="matrix(1.00, 0.00, -0.00, -1.00, 314.4, 8.0)">o</text><text xml:space="preserve" font-family="ProximaNova-Regular" font-size="30.0" fill="#000000" transform="matrix(1.00, 0.00, -0.00, -1.00, 331.5, 8.0)">n</text><text xml:space="preserve" font-family="ProximaNova-Regular" font-size="30.0" fill="#000000" transform="matrix(1.00, 0.00, -0.00, -1.00, 348.1, 8.0)">s</text><text xml:space="preserve" font-family="ProximaNova-Regular" font-size="30.0" fill="#000000" transform="matrix(1.00, 0.00, -0.00, -1.00, 362.0, 8.0)">t</text><text xml:space="preserve" font-family="ProximaNova-Regular" font-size="30.0" fill="#000000" transform="matrix(1.00, 0.00, -0.00, -1.00, 370.9, 8.0)">r</text><text xml:space="preserve" font-family="ProximaNova-Regular" font-size="30.0" fill="#000000" transform="matrix(1.00, 0.00, -0.00, -1.00, 380.8, 8.0)">a</text><text xml:space="preserve" font-family="ProximaNova-Regular" font-size="30.0" fill="#000000" transform="matrix(1.00, 0.00, -0.00, -1.00, 396.6, 8.0)">i</text><text xml:space="preserve" font-family="ProximaNova-Regular" font-size="30.0" fill="#000000" transform="matrix(1.00, 0.00, -0.00, -1.00, 403.4, 8.0)">n</text><text xml:space="preserve" font-family="ProximaNova-Regular" font-size="30.0" fill="#000000" transform="matrix(1.00, 0.00, -0.00, -1.00, 419.9, 8.0)">t</text><text xml:space="preserve" font-family="ProximaNova-Regular" font-size="30.0" fill="#000000" transform="matrix(1.00, 0.00, -0.00, -1.00, 428.7, 8.0)">s</text></g></svg>