<?xml version="1.0" encoding="UTF-8" standalone="no"?><svg xmlns="http://www.w3.org/2000/svg" xmlns:xlink="http://www.w3.org/1999/xlink" clip-rule="evenodd" stroke-miterlimit="4.00" viewBox="0 0 1024 768"><desc>SVG generated by Keynote</desc><defs></defs><g transform="matrix(1.00, 0.00, -0.00, -1.00, 0.0, 768.0)"><path d="M 0.0 768.0 L 1024.0 768.0 L 1024.0 0.0 L 0.0 0.0 Z M 0.0 768.0 " fill="#FEFFFF"></path><text xml:space="preserve" font-family="ProximaNova-Semibold" font-weight="bold" font-size="60.0" fill="#276AA5" transform="matrix(1.00, 0.00, -0.00, -1.00, 56.0, 662.0)">L</text><text xml:space="preserve" font-family="ProximaNova-Semibold" font-weight="bold" font-size="60.0" fill="#276AA5" transform="matrix(1.00, 0.00, -0.00, -1.00, 82.8, 662.0)">O</text><text xml:space="preserve" font-family="ProximaNova-Semibold" font-weight="bold" font-size="60.0" fill="#276AA5" transform="matrix(1.00, 0.00, -0.00, -1.00, 124.8, 662.0)">A</text><text xml:space="preserve" font-family="ProximaNova-Semibold" font-weight="bold" font-size="60.0" fill="#276AA5" transform="matrix(1.00, 0.00, -0.00, -1.00, 163.3, 662.0)">D</text><text xml:space="preserve" font-family="ProximaNova-Semibold" font-weight="bold" font-size="60.0" fill="#276AA5" transform="matrix(1.00, 0.00, -0.00, -1.00, 204.1, 662.0)"> </text><text xml:space="preserve" font-family="ProximaNova-Semibold" font-weight="bold" font-size="60.0" fill="#276AA5" transform="matrix(1.00, 0.00, -0.00, -1.00, 217.8, 662.0)">C</text><text xml:space="preserve" font-family="ProximaNova-Semibold" font-weight="bold" font-size="60.0" fill="#276AA5" transform="matrix(1.00, 0.00, -0.00, -1.00, 256.9, 662.0)">S</text><text xml:space="preserve" font-family="ProximaNova-Semibold" font-weight="bold" font-size="60.0" fill="#276AA5" transform="matrix(1.00, 0.00, -0.00, -1.00, 290.8, 662.0)">V</text><text xml:space="preserve" font-family="ProximaNova-Regular" font-size="30.0" fill="#000000" transform="matrix(1.00, 0.00, -0.00, -1.00, 52.0, 566.0)">L</text><text xml:space="preserve" font-family="ProximaNova-Regular" font-size="30.0" fill="#000000" transform="matrix(1.00, 0.00, -0.00, -1.00, 65.8, 566.0)">O</text><text xml:space="preserve" font-family="ProximaNova-Regular" font-size="30.0" fill="#000000" transform="matrix(1.00, 0.00, -0.00, -1.00, 87.6, 566.0)">A</text><text xml:space="preserve" font-family="ProximaNova-Regular" font-size="30.0" fill="#000000" transform="matrix(1.00, 0.00, -0.00, -1.00, 107.3, 566.0)">D</text><text xml:space="preserve" font-family="ProximaNova-Regular" font-size="30.0" fill="#000000" transform="matrix(1.00, 0.00, -0.00, -1.00, 128.3, 566.0)"> </text><text xml:space="preserve" font-family="ProximaNova-Regular" font-size="30.0" fill="#000000" transform="matrix(1.00, 0.00, -0.00, -1.00, 136.1, 566.0)">C</text><text xml:space="preserve" font-family="ProximaNova-Regular" font-size="30.0" fill="#000000" transform="matrix(1.00, 0.00, -0.00, -1.00, 156.4, 566.0)">S</text><text xml:space="preserve" font-family="ProximaNova-Regular" font-size="30.0" fill="#000000" transform="matrix(1.00, 0.00, -0.00, -1.00, 174.0, 566.0)">V</text><text xml:space="preserve" font-family="ProximaNova-Regular" font-size="30.0" fill="#000000" transform="matrix(1.00, 0.00, -0.00, -1.00, 193.7, 566.0)"> </text><text xml:space="preserve" font-family="ProximaNova-Regular" font-size="30.0" fill="#000000" transform="matrix(1.00, 0.00, -0.00, -1.00, 201.5, 566.0)">i</text><text xml:space="preserve" font-family="ProximaNova-Regular" font-size="30.0" fill="#000000" transform="matrix(1.00, 0.00, -0.00, -1.00, 208.2, 566.0)">s</text><text xml:space="preserve" font-family="ProximaNova-Regular" font-size="30.0" fill="#000000" transform="matrix(1.00, 0.00, -0.00, -1.00, 222.2, 566.0)"> </text><text xml:space="preserve" font-family="ProximaNova-Regular" font-size="30.0" fill="#000000" transform="matrix(1.00, 0.00, -0.00, -1.00, 230.0, 566.0)">a</text><text xml:space="preserve" font-family="ProximaNova-Regular" font-size="30.0" fill="#000000" transform="matrix(1.00, 0.00, -0.00, -1.00, 245.8, 566.0)"> </text><text xml:space="preserve" font-family="ProximaNova-Regular" font-size="30.0" fill="#000000" transform="matrix(1.00, 0.00, -0.00, -1.00, 253.6, 566.0)">g</text><text xml:space="preserve" font-family="ProximaNova-Regular" font-size="30.0" fill="#000000" transform="matrix(1.00, 0.00, -0.00, -1.00, 270.8, 566.0)">r</text><text xml:space="preserve" font-family="ProximaNova-Regular" font-size="30.0" fill="#000000" transform="matrix(1.00, 0.00, -0.00, -1.00, 280.7, 566.0)">e</text><text xml:space="preserve" font-family="ProximaNova-Regular" font-size="30.0" fill="#000000" transform="matrix(1.00, 0.00, -0.00, -1.00, 297.6, 566.0)">a</text><text xml:space="preserve" font-family="ProximaNova-Regular" font-size="30.0" fill="#000000" transform="matrix(1.00, 0.00, -0.00, -1.00, 313.4, 566.0)">t</text><text xml:space="preserve" font-family="ProximaNova-Regular" font-size="30.0" fill="#000000" transform="matrix(1.00, 0.00, -0.00, -1.00, 322.3, 566.0)"> </text><text xml:space="preserve" font-family="ProximaNova-Regular" font-size="30.0" fill="#000000" transform="matrix(1.00, 0.00, -0.00, -1.00, 330.0, 566.0)">t</text><text xml:space="preserve" font-family="ProximaNova-Regular" font-size="30.0" fill="#000000" transform="matrix(1.00, 0.00, -0.00, -1.00, 338.9, 566.0)">o</text><text xml:space="preserve" font-family="ProximaNova-Regular" font-size="30.0" fill="#000000" transform="matrix(1.00, 0.00, -0.00, -1.00, 356.0, 566.0)">o</text><text xml:space="preserve" font-family="ProximaNova-Regular" font-size="30.0" fill="#000000" transform="matrix(1.00, 0.00, -0.00, -1.00, 373.2, 566.0)">l</text><text xml:space="preserve" font-family="ProximaNova-Regular" font-size="30.0" fill="#000000" transform="matrix(1.00, 0.00, -0.00, -1.00, 379.9, 566.0)"> </text><text xml:space="preserve" font-family="ProximaNova-Regular" font-size="30.0" fill="#000000" transform="matrix(1.00, 0.00, -0.00, -1.00, 387.7, 566.0)">f</text><text xml:space="preserve" font-family="ProximaNova-Regular" font-size="30.0" fill="#000000" transform="matrix(1.00, 0.00, -0.00, -1.00, 396.2, 566.0)">o</text><text xml:space="preserve" font-family="ProximaNova-Regular" font-size="30.0" fill="#000000" transform="matrix(1.00, 0.00, -0.00, -1.00, 413.4, 566.0)">r</text><text xml:space="preserve" font-family="ProximaNova-Regular" font-size="30.0" fill="#000000" transform="matrix(1.00, 0.00, -0.00, -1.00, 423.3, 566.0)"> </text><text xml:space="preserve" font-family="ProximaNova-Regular" font-size="30.0" fill="#000000" transform="matrix(1.00, 0.00, -0.00, -1.00, 431.0, 566.0)">f</text><text xml:space="preserve" font-family="ProximaNova-Regular" font-size="30.0" fill="#000000" transform="matrix(1.00, 0.00, -0.00, -1.00, 439.6, 566.0)">a</text><text xml:space="preserve" font-family="ProximaNova-Regular" font-size="30.0" fill="#000000" transform="matrix(1.00, 0.00, -0.00, -1.00, 455.4, 566.0)">s</text><text xml:space="preserve" font-family="ProximaNova-Regular" font-size="30.0" fill="#000000" transform="matrix(1.00, 0.00, -0.00, -1.00, 469.4, 566.0)">t</text><text xml:space="preserve" font-family="ProximaNova-Regular" font-size="30.0" fill="#000000" transform="matrix(1.00, 0.00, -0.00, -1.00, 478.2, 566.0)"> </text><text xml:space="preserve" font-family="ProximaNova-Regular" font-size="30.0" fill="#000000" transform="matrix(1.00, 0.00, -0.00, -1.00, 485.9, 566.0)">d</text><text xml:space="preserve" font-family="ProximaNova-Regular" font-size="30.0" fill="#000000" transform="matrix(1.00, 0.00, -0.00, -1.00, 503.2, 566.0)">a</text><text xml:space="preserve" font-family="ProximaNova-Regular" font-size="30.0" fill="#000000" transform="matrix(1.00, 0.00, -0.00, -1.00, 519.0, 566.0)">t</text><text xml:space="preserve" font-family="ProximaNova-Regular" font-size="30.0" fill="#000000" transform="matrix(1.00, 0.00, -0.00, -1.00, 527.9, 566.0)">a</text><text xml:space="preserve" font-family="ProximaNova-Regular" font-size="30.0" fill="#000000" transform="matrix(1.00, 0.00, -0.00, -1.00, 543.7, 566.0)"> </text><text xml:space="preserve" font-family="ProximaNova-Regular" font-size="30.0" fill="#000000" transform="matrix(1.00, 0.00, -0.00, -1.00, 551.5, 566.0)">i</text><text xml:space="preserve" font-family="ProximaNova-Regular" font-size="30.0" fill="#000000" transform="matrix(1.00, 0.00, -0.00, -1.00, 558.2, 566.0)">m</text><text xml:space="preserve" font-family="ProximaNova-Regular" font-size="30.0" fill="#000000" transform="matrix(1.00, 0.00, -0.00, -1.00, 582.5, 566.0)">p</text><text xml:space="preserve" font-family="ProximaNova-Regular" font-size="30.0" fill="#000000" transform="matrix(1.00, 0.00, -0.00, -1.00, 599.6, 566.0)">o</text><text xml:space="preserve" font-family="ProximaNova-Regular" font-size="30.0" fill="#000000" transform="matrix(1.00, 0.00, -0.00, -1.00, 616.8, 566.0)">r</text><text xml:space="preserve" font-family="ProximaNova-Regular" font-size="30.0" fill="#000000" transform="matrix(1.00, 0.00, -0.00, -1.00, 626.7, 566.0)">t</text><text xml:space="preserve" font-family="ProximaNova-Regular" font-size="30.0" fill="#000000" transform="matrix(1.00, 0.00, -0.00, -1.00, 635.5, 566.0)">,</text><text xml:space="preserve" font-family="ProximaNova-Regular" font-size="30.0" fill="#000000" transform="matrix(1.00, 0.00, -0.00, -1.00, 642.4, 566.0)"> </text><text xml:space="preserve" font-family="ProximaNova-Regular" font-size="30.0" fill="#000000" transform="matrix(1.00, 0.00, -0.00, -1.00, 650.2, 566.0)">b</text><text xml:space="preserve" font-family="ProximaNova-Regular" font-size="30.0" fill="#000000" transform="matrix(1.00, 0.00, -0.00, -1.00, 667.4, 566.0)">u</text><text xml:space="preserve" font-family="ProximaNova-Regular" font-size="30.0" fill="#000000" transform="matrix(1.00, 0.00, -0.00, -1.00, 683.9, 566.0)">t</text><text xml:space="preserve" font-family="ProximaNova-Regular" font-size="30.0" fill="#000000" transform="matrix(1.00, 0.00, -0.00, -1.00, 692.8, 566.0)">:</text><text xml:space="preserve" font-family="ProximaNova-Regular" font-size="30.0" fill="#000000" transform="matrix(1.00, 0.00, -0.00, -1.00, 699.5, 566.0)"> </text><g><clipPath id="clip-152191"><path d="M 52.4 459.6 L 58.4 459.6 L 58.4 465.6 L 52.4 465.6 Z M 52.4 459.6 "></path></clipPath><g clip-path="url(#clip-152191)"><path d="M 55.4 459.6 C 53.8 459.6 52.4 460.9 52.4 462.6 C 52.4 464.2 53.8 465.6 55.4 465.6 C 57.1 465.6 58.4 464.2 58.4 462.6 C 58.4 460.9 57.1 459.6 55.4 459.6 M 55.4 464.6 C 54.3 464.6 53.4 463.7 53.4 462.6 C 53.4 461.4 54.3 460.5 55.4 460.5 C 56.6 460.5 57.5 461.4 57.5 462.6 C 57.5 463.7 56.6 464.6 55.4 464.6 Z M 55.4 464.6 " fill="#000000"></path></g></g><text xml:space="preserve" font-family="ProximaNova-Regular" font-size="30.0" fill="#000000" transform="matrix(1.00, 0.00, -0.00, -1.00, 92.0, 454.0)">I</text><text xml:space="preserve" font-family="ProximaNova-Regular" font-size="30.0" fill="#000000" transform="matrix(1.00, 0.00, -0.00, -1.00, 99.2, 454.0)">t</text><text xml:space="preserve" font-family="ProximaNova-Regular" font-size="30.0" fill="#000000" transform="matrix(1.00, 0.00, -0.00, -1.00, 108.0, 454.0)"> </text><text xml:space="preserve" font-family="ProximaNova-Regular" font-size="30.0" fill="#000000" transform="matrix(1.00, 0.00, -0.00, -1.00, 115.8, 454.0)">c</text><text xml:space="preserve" font-family="ProximaNova-Regular" font-size="30.0" fill="#000000" transform="matrix(1.00, 0.00, -0.00, -1.00, 130.6, 454.0)">a</text><text xml:space="preserve" font-family="ProximaNova-Regular" font-size="30.0" fill="#000000" transform="matrix(1.00, 0.00, -0.00, -1.00, 146.5, 454.0)">n</text><text xml:space="preserve" font-family="ProximaNova-Regular" font-size="30.0" fill="#000000" transform="matrix(1.00, 0.00, -0.00, -1.00, 163.0, 454.0)"> </text><text xml:space="preserve" font-family="ProximaNova-Regular" font-size="30.0" fill="#000000" transform="matrix(1.00, 0.00, -0.00, -1.00, 170.8, 454.0)">b</text><text xml:space="preserve" font-family="ProximaNova-Regular" font-size="30.0" fill="#000000" transform="matrix(1.00, 0.00, -0.00, -1.00, 188.1, 454.0)">e</text><text xml:space="preserve" font-family="ProximaNova-Regular" font-size="30.0" fill="#000000" transform="matrix(1.00, 0.00, -0.00, -1.00, 204.9, 454.0)"> </text><text xml:space="preserve" font-family="ProximaNova-Regular" font-size="30.0" fill="#000000" transform="matrix(1.00, 0.00, -0.00, -1.00, 212.7, 454.0)">s</text><text xml:space="preserve" font-family="ProximaNova-Regular" font-size="30.0" fill="#000000" transform="matrix(1.00, 0.00, -0.00, -1.00, 226.7, 454.0)">l</text><text xml:space="preserve" font-family="ProximaNova-Regular" font-size="30.0" fill="#000000" transform="matrix(1.00, 0.00, -0.00, -1.00, 233.4, 454.0)">o</text><text xml:space="preserve" font-family="ProximaNova-Regular" font-size="30.0" fill="#000000" transform="matrix(1.00, 0.00, -0.00, -1.00, 250.6, 454.0)">w</text><text xml:space="preserve" font-family="ProximaNova-Regular" font-size="30.0" fill="#000000" transform="matrix(1.00, 0.00, -0.00, -1.00, 272.6, 454.0)"> </text><text xml:space="preserve" font-family="ProximaNova-Regular" font-size="30.0" fill="#000000" transform="matrix(1.00, 0.00, -0.00, -1.00, 280.4, 454.0)">f</text><text xml:space="preserve" font-family="ProximaNova-Regular" font-size="30.0" fill="#000000" transform="matrix(1.00, 0.00, -0.00, -1.00, 288.9, 454.0)">o</text><text xml:space="preserve" font-family="ProximaNova-Regular" font-size="30.0" fill="#000000" transform="matrix(1.00, 0.00, -0.00, -1.00, 306.1, 454.0)">r</text><text xml:space="preserve" font-family="ProximaNova-Regular" font-size="30.0" fill="#000000" transform="matrix(1.00, 0.00, -0.00, -1.00, 316.0, 454.0)"> </text><text xml:space="preserve" font-family="ProximaNova-Regular" font-size="30.0" fill="#000000" transform="matrix(1.00, 0.00, -0.00, -1.00, 323.7, 454.0)">v</text><text xml:space="preserve" font-family="ProximaNova-Regular" font-size="30.0" fill="#000000" transform="matrix(1.00, 0.00, -0.00, -1.00, 338.4, 454.0)">e</text><text xml:space="preserve" font-family="ProximaNova-Regular" font-size="30.0" fill="#000000" transform="matrix(1.00, 0.00, -0.00, -1.00, 355.3, 454.0)">r</text><text xml:space="preserve" font-family="ProximaNova-Regular" font-size="30.0" fill="#000000" transform="matrix(1.00, 0.00, -0.00, -1.00, 365.2, 454.0)">y</text><text xml:space="preserve" font-family="ProximaNova-Regular" font-size="30.0" fill="#000000" transform="matrix(1.00, 0.00, -0.00, -1.00, 379.9, 454.0)"> </text><text xml:space="preserve" font-family="ProximaNova-Regular" font-size="30.0" fill="#000000" transform="matrix(1.00, 0.00, -0.00, -1.00, 387.7, 454.0)">l</text><text xml:space="preserve" font-family="ProximaNova-Regular" font-size="30.0" fill="#000000" transform="matrix(1.00, 0.00, -0.00, -1.00, 394.4, 454.0)">a</text><text xml:space="preserve" font-family="ProximaNova-Regular" font-size="30.0" fill="#000000" transform="matrix(1.00, 0.00, -0.00, -1.00, 410.3, 454.0)">r</text><text xml:space="preserve" font-family="ProximaNova-Regular" font-size="30.0" fill="#000000" transform="matrix(1.00, 0.00, -0.00, -1.00, 420.2, 454.0)">g</text><text xml:space="preserve" font-family="ProximaNova-Regular" font-size="30.0" fill="#000000" transform="matrix(1.00, 0.00, -0.00, -1.00, 437.4, 454.0)">e</text><text xml:space="preserve" font-family="ProximaNova-Regular" font-size="30.0" fill="#000000" transform="matrix(1.00, 0.00, -0.00, -1.00, 454.3, 454.0)"> </text><text xml:space="preserve" font-family="ProximaNova-Regular" font-size="30.0" fill="#000000" transform="matrix(1.00, 0.00, -0.00, -1.00, 462.1, 454.0)">d</text><text xml:space="preserve" font-family="ProximaNova-Regular" font-size="30.0" fill="#000000" transform="matrix(1.00, 0.00, -0.00, -1.00, 479.3, 454.0)">a</text><text xml:space="preserve" font-family="ProximaNova-Regular" font-size="30.0" fill="#000000" transform="matrix(1.00, 0.00, -0.00, -1.00, 495.2, 454.0)">t</text><text xml:space="preserve" font-family="ProximaNova-Regular" font-size="30.0" fill="#000000" transform="matrix(1.00, 0.00, -0.00, -1.00, 504.0, 454.0)">a</text><text xml:space="preserve" font-family="ProximaNova-Regular" font-size="30.0" fill="#000000" transform="matrix(1.00, 0.00, -0.00, -1.00, 519.8, 454.0)"> </text><text xml:space="preserve" font-family="ProximaNova-Regular" font-size="30.0" fill="#000000" transform="matrix(1.00, 0.00, -0.00, -1.00, 527.6, 454.0)">s</text><text xml:space="preserve" font-family="ProximaNova-Regular" font-size="30.0" fill="#000000" transform="matrix(1.00, 0.00, -0.00, -1.00, 541.5, 454.0)">e</text><text xml:space="preserve" font-family="ProximaNova-Regular" font-size="30.0" fill="#000000" transform="matrix(1.00, 0.00, -0.00, -1.00, 558.4, 454.0)">t</text><text xml:space="preserve" font-family="ProximaNova-Regular" font-size="30.0" fill="#000000" transform="matrix(1.00, 0.00, -0.00, -1.00, 567.3, 454.0)">s</text><text xml:space="preserve" font-family="ProximaNova-Regular" font-size="30.0" fill="#000000" transform="matrix(1.00, 0.00, -0.00, -1.00, 581.2, 454.0)"> </text><g><clipPath id="clip-152192"><path d="M 52.4 403.6 L 58.4 403.6 L 58.4 409.6 L 52.4 409.6 Z M 52.4 403.6 "></path></clipPath><g clip-path="url(#clip-152192)"><path d="M 55.4 403.6 C 53.8 403.6 52.4 404.9 52.4 406.6 C 52.4 408.2 53.8 409.6 55.4 409.6 C 57.1 409.6 58.4 408.2 58.4 406.6 C 58.4 404.9 57.1 403.6 55.4 403.6 M 55.4 408.6 C 54.3 408.6 53.4 407.7 53.4 406.6 C 53.4 405.4 54.3 404.5 55.4 404.5 C 56.6 404.5 57.5 405.4 57.5 406.6 C 57.5 407.7 56.6 408.6 55.4 408.6 Z M 55.4 408.6 " fill="#000000"></path></g></g><text xml:space="preserve" font-family="ProximaNova-Regular" font-size="30.0" fill="#000000" transform="matrix(1.00, 0.00, -0.00, -1.00, 92.0, 398.0)">I</text><text xml:space="preserve" font-family="ProximaNova-Regular" font-size="30.0" fill="#000000" transform="matrix(1.00, 0.00, -0.00, -1.00, 99.2, 398.0)">t</text><text xml:space="preserve" font-family="ProximaNova-Regular" font-size="30.0" fill="#000000" transform="matrix(1.00, 0.00, -0.00, -1.00, 108.0, 398.0)"> </text><text xml:space="preserve" font-family="ProximaNova-Regular" font-size="30.0" fill="#000000" transform="matrix(1.00, 0.00, -0.00, -1.00, 115.8, 398.0)">r</text><text xml:space="preserve" font-family="ProximaNova-Regular" font-size="30.0" fill="#000000" transform="matrix(1.00, 0.00, -0.00, -1.00, 125.7, 398.0)">e</text><text xml:space="preserve" font-family="ProximaNova-Regular" font-size="30.0" fill="#000000" transform="matrix(1.00, 0.00, -0.00, -1.00, 142.6, 398.0)">q</text><text xml:space="preserve" font-family="ProximaNova-Regular" font-size="30.0" fill="#000000" transform="matrix(1.00, 0.00, -0.00, -1.00, 159.7, 398.0)">u</text><text xml:space="preserve" font-family="ProximaNova-Regular" font-size="30.0" fill="#000000" transform="matrix(1.00, 0.00, -0.00, -1.00, 176.2, 398.0)">i</text><text xml:space="preserve" font-family="ProximaNova-Regular" font-size="30.0" fill="#000000" transform="matrix(1.00, 0.00, -0.00, -1.00, 183.0, 398.0)">r</text><text xml:space="preserve" font-family="ProximaNova-Regular" font-size="30.0" fill="#000000" transform="matrix(1.00, 0.00, -0.00, -1.00, 192.9, 398.0)">e</text><text xml:space="preserve" font-family="ProximaNova-Regular" font-size="30.0" fill="#000000" transform="matrix(1.00, 0.00, -0.00, -1.00, 209.8, 398.0)">s</text><text xml:space="preserve" font-family="ProximaNova-Regular" font-size="30.0" fill="#000000" transform="matrix(1.00, 0.00, -0.00, -1.00, 223.7, 398.0)"> </text><text xml:space="preserve" font-family="ProximaNova-Regular" font-size="30.0" fill="#000000" transform="matrix(1.00, 0.00, -0.00, -1.00, 231.5, 398.0)">y</text><text xml:space="preserve" font-family="ProximaNova-Regular" font-size="30.0" fill="#000000" transform="matrix(1.00, 0.00, -0.00, -1.00, 246.2, 398.0)">o</text><text xml:space="preserve" font-family="ProximaNova-Regular" font-size="30.0" fill="#000000" transform="matrix(1.00, 0.00, -0.00, -1.00, 263.4, 398.0)">u</text><text xml:space="preserve" font-family="ProximaNova-Regular" font-size="30.0" fill="#000000" transform="matrix(1.00, 0.00, -0.00, -1.00, 279.9, 398.0)"> </text><text xml:space="preserve" font-family="ProximaNova-Regular" font-size="30.0" fill="#000000" transform="matrix(1.00, 0.00, -0.00, -1.00, 287.7, 398.0)">t</text><text xml:space="preserve" font-family="ProximaNova-Regular" font-size="30.0" fill="#000000" transform="matrix(1.00, 0.00, -0.00, -1.00, 296.5, 398.0)">o</text><text xml:space="preserve" font-family="ProximaNova-Regular" font-size="30.0" fill="#000000" transform="matrix(1.00, 0.00, -0.00, -1.00, 313.6, 398.0)"> </text><text xml:space="preserve" font-family="ProximaNova-Regular" font-size="30.0" fill="#000000" transform="matrix(1.00, 0.00, -0.00, -1.00, 321.4, 398.0)">h</text><text xml:space="preserve" font-family="ProximaNova-Regular" font-size="30.0" fill="#000000" transform="matrix(1.00, 0.00, -0.00, -1.00, 338.0, 398.0)">a</text><text xml:space="preserve" font-family="ProximaNova-Regular" font-size="30.0" fill="#000000" transform="matrix(1.00, 0.00, -0.00, -1.00, 353.8, 398.0)">v</text><text xml:space="preserve" font-family="ProximaNova-Regular" font-size="30.0" fill="#000000" transform="matrix(1.00, 0.00, -0.00, -1.00, 368.5, 398.0)">e</text><text xml:space="preserve" font-family="ProximaNova-Regular" font-size="30.0" fill="#000000" transform="matrix(1.00, 0.00, -0.00, -1.00, 385.4, 398.0)"> </text><text xml:space="preserve" font-family="ProximaNova-Regular" font-size="30.0" fill="#000000" transform="matrix(1.00, 0.00, -0.00, -1.00, 393.2, 398.0)">d</text><text xml:space="preserve" font-family="ProximaNova-Regular" font-size="30.0" fill="#000000" transform="matrix(1.00, 0.00, -0.00, -1.00, 410.4, 398.0)">a</text><text xml:space="preserve" font-family="ProximaNova-Regular" font-size="30.0" fill="#000000" transform="matrix(1.00, 0.00, -0.00, -1.00, 426.3, 398.0)">t</text><text xml:space="preserve" font-family="ProximaNova-Regular" font-size="30.0" fill="#000000" transform="matrix(1.00, 0.00, -0.00, -1.00, 435.1, 398.0)">a</text><text xml:space="preserve" font-family="ProximaNova-Regular" font-size="30.0" fill="#000000" transform="matrix(1.00, 0.00, -0.00, -1.00, 450.9, 398.0)"> </text><text xml:space="preserve" font-family="ProximaNova-Regular" font-size="30.0" fill="#000000" transform="matrix(1.00, 0.00, -0.00, -1.00, 458.7, 398.0)">i</text><text xml:space="preserve" font-family="ProximaNova-Regular" font-size="30.0" fill="#000000" transform="matrix(1.00, 0.00, -0.00, -1.00, 465.4, 398.0)">n</text><text xml:space="preserve" font-family="ProximaNova-Regular" font-size="30.0" fill="#000000" transform="matrix(1.00, 0.00, -0.00, -1.00, 482.0, 398.0)"> </text><text xml:space="preserve" font-family="ProximaNova-Regular" font-size="30.0" fill="#000000" transform="matrix(1.00, 0.00, -0.00, -1.00, 489.8, 398.0)">a</text><text xml:space="preserve" font-family="ProximaNova-Regular" font-size="30.0" fill="#000000" transform="matrix(1.00, 0.00, -0.00, -1.00, 505.6, 398.0)"> </text><text xml:space="preserve" font-family="ProximaNova-Regular" font-size="30.0" fill="#000000" transform="matrix(1.00, 0.00, -0.00, -1.00, 513.4, 398.0)">C</text><text xml:space="preserve" font-family="ProximaNova-Regular" font-size="30.0" fill="#000000" transform="matrix(1.00, 0.00, -0.00, -1.00, 533.7, 398.0)">S</text><text xml:space="preserve" font-family="ProximaNova-Regular" font-size="30.0" fill="#000000" transform="matrix(1.00, 0.00, -0.00, -1.00, 551.2, 398.0)">V</text><text xml:space="preserve" font-family="ProximaNova-Regular" font-size="30.0" fill="#000000" transform="matrix(1.00, 0.00, -0.00, -1.00, 571.0, 398.0)"> </text><text xml:space="preserve" font-family="ProximaNova-Regular" font-size="30.0" fill="#000000" transform="matrix(1.00, 0.00, -0.00, -1.00, 578.7, 398.0)">f</text><text xml:space="preserve" font-family="ProximaNova-Regular" font-size="30.0" fill="#000000" transform="matrix(1.00, 0.00, -0.00, -1.00, 587.3, 398.0)">o</text><text xml:space="preserve" font-family="ProximaNova-Regular" font-size="30.0" fill="#000000" transform="matrix(1.00, 0.00, -0.00, -1.00, 604.4, 398.0)">r</text><text xml:space="preserve" font-family="ProximaNova-Regular" font-size="30.0" fill="#000000" transform="matrix(1.00, 0.00, -0.00, -1.00, 614.3, 398.0)">m</text><text xml:space="preserve" font-family="ProximaNova-Regular" font-size="30.0" fill="#000000" transform="matrix(1.00, 0.00, -0.00, -1.00, 638.6, 398.0)">a</text><text xml:space="preserve" font-family="ProximaNova-Regular" font-size="30.0" fill="#000000" transform="matrix(1.00, 0.00, -0.00, -1.00, 654.4, 398.0)">t</text><text xml:space="preserve" font-family="ProximaNova-Regular" font-size="30.0" fill="#000000" transform="matrix(1.00, 0.00, -0.00, -1.00, 663.2, 398.0)"> </text><g><clipPath id="clip-152193"><path d="M 52.4 347.6 L 58.4 347.6 L 58.4 353.6 L 52.4 353.6 Z M 52.4 347.6 "></path></clipPath><g clip-path="url(#clip-152193)"><path d="M 55.4 347.6 C 53.8 347.6 52.4 348.9 52.4 350.6 C 52.4 352.2 53.8 353.6 55.4 353.6 C 57.1 353.6 58.4 352.2 58.4 350.6 C 58.4 348.9 57.1 347.6 55.4 347.6 M 55.4 352.6 C 54.3 352.6 53.4 351.7 53.4 350.6 C 53.4 349.4 54.3 348.5 55.4 348.5 C 56.6 348.5 57.5 349.4 57.5 350.6 C 57.5 351.7 56.6 352.6 55.4 352.6 Z M 55.4 352.6 " fill="#000000"></path></g></g><text xml:space="preserve" font-family="ProximaNova-Regular" font-size="30.0" fill="#000000" transform="matrix(1.00, 0.00, -0.00, -1.00, 92.0, 342.0)">I</text><text xml:space="preserve" font-family="ProximaNova-Regular" font-size="30.0" fill="#000000" transform="matrix(1.00, 0.00, -0.00, -1.00, 99.2, 342.0)">t</text><text xml:space="preserve" font-family="ProximaNova-Regular" font-size="30.0" fill="#000000" transform="matrix(1.00, 0.00, -0.00, -1.00, 108.0, 342.0)"> </text><text xml:space="preserve" font-family="ProximaNova-Regular" font-size="30.0" fill="#000000" transform="matrix(1.00, 0.00, -0.00, -1.00, 115.8, 342.0)">d</text><text xml:space="preserve" font-family="ProximaNova-Regular" font-size="30.0" fill="#000000" transform="matrix(1.00, 0.00, -0.00, -1.00, 133.0, 342.0)">o</text><text xml:space="preserve" font-family="ProximaNova-Regular" font-size="30.0" fill="#000000" transform="matrix(1.00, 0.00, -0.00, -1.00, 150.2, 342.0)">e</text><text xml:space="preserve" font-family="ProximaNova-Regular" font-size="30.0" fill="#000000" transform="matrix(1.00, 0.00, -0.00, -1.00, 167.1, 342.0)">s</text><text xml:space="preserve" font-family="ProximaNova-Regular" font-size="30.0" fill="#000000" transform="matrix(1.00, 0.00, -0.00, -1.00, 181.0, 342.0)">n</text><text xml:space="preserve" font-family="ProximaNova-Regular" font-size="30.0" fill="#000000" transform="matrix(1.00, 0.00, -0.00, -1.00, 197.4, 342.0)">’</text><text xml:space="preserve" font-family="ProximaNova-Regular" font-size="30.0" fill="#000000" transform="matrix(1.00, 0.00, -0.00, -1.00, 204.3, 342.0)">t</text><text xml:space="preserve" font-family="ProximaNova-Regular" font-size="30.0" fill="#000000" transform="matrix(1.00, 0.00, -0.00, -1.00, 213.1, 342.0)"> </text><text xml:space="preserve" font-family="ProximaNova-Regular" font-size="30.0" fill="#000000" transform="matrix(1.00, 0.00, -0.00, -1.00, 220.9, 342.0)">p</text><text xml:space="preserve" font-family="ProximaNova-Regular" font-size="30.0" fill="#000000" transform="matrix(1.00, 0.00, -0.00, -1.00, 238.0, 342.0)">r</text><text xml:space="preserve" font-family="ProximaNova-Regular" font-size="30.0" fill="#000000" transform="matrix(1.00, 0.00, -0.00, -1.00, 247.9, 342.0)">o</text><text xml:space="preserve" font-family="ProximaNova-Regular" font-size="30.0" fill="#000000" transform="matrix(1.00, 0.00, -0.00, -1.00, 265.1, 342.0)">v</text><text xml:space="preserve" font-family="ProximaNova-Regular" font-size="30.0" fill="#000000" transform="matrix(1.00, 0.00, -0.00, -1.00, 279.8, 342.0)">i</text><text xml:space="preserve" font-family="ProximaNova-Regular" font-size="30.0" fill="#000000" transform="matrix(1.00, 0.00, -0.00, -1.00, 286.6, 342.0)">d</text><text xml:space="preserve" font-family="ProximaNova-Regular" font-size="30.0" fill="#000000" transform="matrix(1.00, 0.00, -0.00, -1.00, 303.8, 342.0)">e</text><text xml:space="preserve" font-family="ProximaNova-Regular" font-size="30.0" fill="#000000" transform="matrix(1.00, 0.00, -0.00, -1.00, 320.7, 342.0)"> </text><text xml:space="preserve" font-family="ProximaNova-Regular" font-size="30.0" fill="#000000" transform="matrix(1.00, 0.00, -0.00, -1.00, 328.5, 342.0)">y</text><text xml:space="preserve" font-family="ProximaNova-Regular" font-size="30.0" fill="#000000" transform="matrix(1.00, 0.00, -0.00, -1.00, 343.2, 342.0)">o</text><text xml:space="preserve" font-family="ProximaNova-Regular" font-size="30.0" fill="#000000" transform="matrix(1.00, 0.00, -0.00, -1.00, 360.3, 342.0)">u</text><text xml:space="preserve" font-family="ProximaNova-Regular" font-size="30.0" fill="#000000" transform="matrix(1.00, 0.00, -0.00, -1.00, 376.9, 342.0)"> </text><text xml:space="preserve" font-family="ProximaNova-Regular" font-size="30.0" fill="#000000" transform="matrix(1.00, 0.00, -0.00, -1.00, 384.6, 342.0)">a</text><text xml:space="preserve" font-family="ProximaNova-Regular" font-size="30.0" fill="#000000" transform="matrix(1.00, 0.00, -0.00, -1.00, 400.5, 342.0)">l</text><text xml:space="preserve" font-family="ProximaNova-Regular" font-size="30.0" fill="#000000" transform="matrix(1.00, 0.00, -0.00, -1.00, 407.2, 342.0)">l</text><text xml:space="preserve" font-family="ProximaNova-Regular" font-size="30.0" fill="#000000" transform="matrix(1.00, 0.00, -0.00, -1.00, 414.0, 342.0)"> </text><text xml:space="preserve" font-family="ProximaNova-Regular" font-size="30.0" fill="#000000" transform="matrix(1.00, 0.00, -0.00, -1.00, 421.7, 342.0)">t</text><text xml:space="preserve" font-family="ProximaNova-Regular" font-size="30.0" fill="#000000" transform="matrix(1.00, 0.00, -0.00, -1.00, 430.5, 342.0)">h</text><text xml:space="preserve" font-family="ProximaNova-Regular" font-size="30.0" fill="#000000" transform="matrix(1.00, 0.00, -0.00, -1.00, 447.1, 342.0)">e</text><text xml:space="preserve" font-family="ProximaNova-Regular" font-size="30.0" fill="#000000" transform="matrix(1.00, 0.00, -0.00, -1.00, 464.0, 342.0)"> </text><text xml:space="preserve" font-family="ProximaNova-Regular" font-size="30.0" fill="#000000" transform="matrix(1.00, 0.00, -0.00, -1.00, 471.8, 342.0)">c</text><text xml:space="preserve" font-family="ProximaNova-Regular" font-size="30.0" fill="#000000" transform="matrix(1.00, 0.00, -0.00, -1.00, 486.6, 342.0)">u</text><text xml:space="preserve" font-family="ProximaNova-Regular" font-size="30.0" fill="#000000" transform="matrix(1.00, 0.00, -0.00, -1.00, 503.2, 342.0)">s</text><text xml:space="preserve" font-family="ProximaNova-Regular" font-size="30.0" fill="#000000" transform="matrix(1.00, 0.00, -0.00, -1.00, 517.1, 342.0)">t</text><text xml:space="preserve" font-family="ProximaNova-Regular" font-size="30.0" fill="#000000" transform="matrix(1.00, 0.00, -0.00, -1.00, 525.9, 342.0)">o</text><text xml:space="preserve" font-family="ProximaNova-Regular" font-size="30.0" fill="#000000" transform="matrix(1.00, 0.00, -0.00, -1.00, 543.1, 342.0)">m</text><text xml:space="preserve" font-family="ProximaNova-Regular" font-size="30.0" fill="#000000" transform="matrix(1.00, 0.00, -0.00, -1.00, 567.3, 342.0)">i</text><text xml:space="preserve" font-family="ProximaNova-Regular" font-size="30.0" fill="#000000" transform="matrix(1.00, 0.00, -0.00, -1.00, 574.1, 342.0)">s</text><text xml:space="preserve" font-family="ProximaNova-Regular" font-size="30.0" fill="#000000" transform="matrix(1.00, 0.00, -0.00, -1.00, 588.0, 342.0)">a</text><text xml:space="preserve" font-family="ProximaNova-Regular" font-size="30.0" fill="#000000" transform="matrix(1.00, 0.00, -0.00, -1.00, 603.9, 342.0)">t</text><text xml:space="preserve" font-family="ProximaNova-Regular" font-size="30.0" fill="#000000" transform="matrix(1.00, 0.00, -0.00, -1.00, 612.7, 342.0)">i</text><text xml:space="preserve" font-family="ProximaNova-Regular" font-size="30.0" fill="#000000" transform="matrix(1.00, 0.00, -0.00, -1.00, 619.5, 342.0)">o</text><text xml:space="preserve" font-family="ProximaNova-Regular" font-size="30.0" fill="#000000" transform="matrix(1.00, 0.00, -0.00, -1.00, 636.6, 342.0)">n</text><text xml:space="preserve" font-family="ProximaNova-Regular" font-size="30.0" fill="#000000" transform="matrix(1.00, 0.00, -0.00, -1.00, 653.2, 342.0)"> </text><text xml:space="preserve" font-family="ProximaNova-Regular" font-size="30.0" fill="#000000" transform="matrix(1.00, 0.00, -0.00, -1.00, 660.9, 342.0)">y</text><text xml:space="preserve" font-family="ProximaNova-Regular" font-size="30.0" fill="#000000" transform="matrix(1.00, 0.00, -0.00, -1.00, 675.6, 342.0)">o</text><text xml:space="preserve" font-family="ProximaNova-Regular" font-size="30.0" fill="#000000" transform="matrix(1.00, 0.00, -0.00, -1.00, 692.8, 342.0)">u</text><text xml:space="preserve" font-family="ProximaNova-Regular" font-size="30.0" fill="#000000" transform="matrix(1.00, 0.00, -0.00, -1.00, 709.3, 342.0)"> </text><text xml:space="preserve" font-family="ProximaNova-Regular" font-size="30.0" fill="#000000" transform="matrix(1.00, 0.00, -0.00, -1.00, 717.1, 342.0)">w</text><text xml:space="preserve" font-family="ProximaNova-Regular" font-size="30.0" fill="#000000" transform="matrix(1.00, 0.00, -0.00, -1.00, 739.1, 342.0)">a</text><text xml:space="preserve" font-family="ProximaNova-Regular" font-size="30.0" fill="#000000" transform="matrix(1.00, 0.00, -0.00, -1.00, 755.0, 342.0)">n</text><text xml:space="preserve" font-family="ProximaNova-Regular" font-size="30.0" fill="#000000" transform="matrix(1.00, 0.00, -0.00, -1.00, 771.5, 342.0)">t</text></g></svg>